<svg width="40" height="40" viewBox="0 0 40 40" fill="none" xmlns="http://www.w3.org/2000/svg">
<path d="M31.0025 23.4931L25.0025 20.4931C24.8253 20.405 24.6279 20.3652 24.4304 20.3777C24.2329 20.3902 24.0422 20.4546 23.8775 20.5644L20.9375 22.5238C19.4492 21.7617 18.2383 20.5508 17.4762 19.0625L19.4375 16.1244C19.5473 15.9597 19.6117 15.769 19.6242 15.5714C19.6367 15.3739 19.5969 15.1766 19.5087 14.9994L16.5087 8.99938C16.4155 8.81166 16.2716 8.65373 16.0934 8.54341C15.9151 8.43309 15.7096 8.37476 15.5 8.375C13.6103 8.375 11.798 9.12567 10.4619 10.4619C9.12565 11.7981 8.37499 13.6103 8.37499 15.5C8.37995 19.7751 10.0804 23.8737 13.1034 26.8966C16.1263 29.9196 20.2249 31.62 24.5 31.625C26.3897 31.625 28.2019 30.8743 29.5381 29.5381C30.8743 28.2019 31.625 26.3897 31.625 24.5C31.625 24.2909 31.5668 24.0859 31.4569 23.9081C31.3469 23.7302 31.1896 23.5865 31.0025 23.4931ZM24.5 29.375C20.8215 29.3705 17.2949 27.9073 14.6938 25.3062C12.0927 22.7051 10.6295 19.1785 10.625 15.5C10.6251 14.3234 11.0507 13.1866 11.8233 12.2992C12.5959 11.4119 13.6634 10.8339 14.8287 10.6719L17.2025 15.4194L15.2544 18.3406C15.152 18.4947 15.0892 18.6716 15.0716 18.8558C15.0539 19.0399 15.0819 19.2255 15.1531 19.3962C16.1876 21.8558 18.1442 23.8124 20.6037 24.8469C20.7745 24.9181 20.9601 24.9461 21.1442 24.9284C21.3284 24.9108 21.5053 24.848 21.6594 24.7456L24.5806 22.7975L29.3281 25.1712C29.1661 26.3366 28.5881 27.4041 27.7008 28.1767C26.8134 28.9493 25.6766 29.3749 24.5 29.375ZM20 0.875C16.6846 0.874304 13.426 1.73549 10.5438 3.37407C7.6616 5.01264 5.2549 7.37233 3.55977 10.2216C1.86465 13.0709 0.939335 16.3119 0.874617 19.6267C0.809899 22.9414 1.608 26.2161 3.19061 29.1294L1.01186 35.6675C0.857618 36.13 0.835234 36.6263 0.947218 37.1009C1.0592 37.5754 1.30113 38.0093 1.64588 38.3541C1.99064 38.6989 2.4246 38.9408 2.89912 39.0528C3.37364 39.1648 3.86997 39.1424 4.33249 38.9881L10.8706 36.8094C13.43 38.1983 16.2727 38.9844 19.1819 39.1078C22.0912 39.2312 24.9903 38.6887 27.6581 37.5216C30.3259 36.3544 32.6919 34.5936 34.5758 32.3732C36.4597 30.1528 37.8117 27.5315 38.5287 24.7092C39.2457 21.887 39.3088 18.9383 38.7132 16.0879C38.1176 13.2376 36.8789 10.5609 35.0917 8.26193C33.3045 5.96299 31.0159 4.1025 28.4005 2.82233C25.7851 1.54217 22.9119 0.876127 20 0.875ZM20 36.875C17.0336 36.8757 14.1195 36.0945 11.5512 34.61C11.38 34.5117 11.1862 34.4593 10.9887 34.4581C10.8677 34.4588 10.7475 34.4784 10.6325 34.5163L3.62186 36.8525C3.55579 36.8745 3.48488 36.8777 3.41709 36.8617C3.34931 36.8457 3.28731 36.8112 3.23806 36.7619C3.18881 36.7127 3.15425 36.6507 3.13825 36.5829C3.12225 36.5151 3.12545 36.4442 3.14749 36.3781L5.48374 29.375C5.53429 29.2237 5.55207 29.0633 5.5359 28.9046C5.51974 28.7459 5.47 28.5924 5.38999 28.4544C3.52859 25.2389 2.78039 21.4991 3.26147 17.815C3.74255 14.1309 5.426 10.7086 8.05067 8.0789C10.6753 5.44925 14.0945 3.75931 17.7776 3.27124C21.4608 2.78317 25.2021 3.52427 28.4211 5.37956C31.64 7.23485 34.1567 10.1006 35.5807 13.5322C37.0047 16.9639 37.2564 20.7695 36.2967 24.3588C35.3371 27.9481 33.2197 31.1203 30.2731 33.3834C27.3264 35.6464 23.7153 36.8738 20 36.875Z" fill="#F8F8F8"/>
</svg>
