<svg width="170" height="170" viewBox="0 0 170 170" fill="none" xmlns="http://www.w3.org/2000/svg">
<path d="M134.964 100.281C132.842 97.939 130.232 96.3114 127.409 95.008C126.727 94.6932 126.521 94.3359 126.524 93.6087C126.549 85.041 126.485 76.4717 126.568 67.9041C126.601 64.4285 125.29 61.7164 122.697 59.5127C119.683 56.9501 116.184 55.291 112.48 54.0239C104.437 51.2724 96.1191 50.202 87.6569 50.032C77.3624 49.8242 67.2128 50.6853 57.4 54.0475C53.2287 55.4767 49.2778 57.353 46.1359 60.5657C44.3698 62.3759 43.4175 64.5009 43.4348 67.1154C43.4946 75.9617 43.449 84.8096 43.4773 93.6575C43.4773 94.3579 43.2727 94.6995 42.6399 94.9828C40.2143 96.0658 37.946 97.4211 36.0068 99.2533C33.9951 101.153 32.4903 103.33 32.7831 106.283C33.0239 108.706 34.3571 110.55 36.0886 112.14C39.0888 114.896 42.6997 116.609 46.4649 117.988C57.1387 121.893 68.2706 123.25 79.5425 123.615C89.4781 123.943 99.3759 123.491 109.195 121.747C115.715 120.588 122.102 118.973 128.063 116C132.091 113.99 135.767 111.534 137.253 106.913V104.613C136.732 103.042 136.105 101.542 134.964 100.281ZM47.1434 61.8911C49.2447 59.6276 51.875 58.1542 54.6659 56.9359C60.3231 54.4693 66.292 53.1786 72.3742 52.3821C81.7094 51.1441 91.1759 51.2857 100.47 52.8024C106.352 53.7642 112.104 55.2123 117.441 57.9748C119.43 59.0042 121.282 60.2367 122.793 61.91C125.554 64.9558 125.493 68.3212 122.66 71.2899C120.246 73.8179 117.204 75.3431 114.026 76.6008C108.306 78.8612 102.337 80.1205 96.2261 80.7926C92.115 81.2357 87.9826 81.4522 83.8476 81.4411C75.6357 81.3372 66.4289 80.3896 57.57 77.2257C53.9874 75.946 50.5371 74.3924 47.7336 71.7165C46.6113 70.6445 45.7031 69.4199 45.3096 67.8899C44.7035 65.5241 45.5693 63.5927 47.1434 61.8911ZM45.0876 84.9576C45.1569 80.5344 45.1191 76.1097 45.1222 71.6866C45.1273 71.6555 45.1369 71.6252 45.1506 71.5968C45.2135 71.5968 45.308 71.5575 45.3363 71.5874C49.4934 76.3978 55.1554 78.4755 61.0141 80.1378C70.6285 82.8641 80.4697 83.4118 90.3958 82.9711C98.252 82.6201 105.967 81.449 113.377 78.7211C117.615 77.158 121.636 75.2109 124.605 71.6173C124.637 71.5795 124.728 71.5921 124.877 71.5638V74.4538C124.877 78.6345 124.814 82.8153 124.91 86.9944C124.982 88.4563 124.473 89.8872 123.494 90.9753C122.349 92.3054 121.115 93.5032 119.596 94.402C118.01 95.3465 116.382 95.4283 114.706 94.7027C113.879 94.3438 113.075 93.9329 112.253 93.5599C108.79 91.9858 105.598 92.7209 103.184 95.6487C102.563 96.3995 102.001 97.196 101.406 97.9689C99.9299 99.8877 97.1564 101.117 94.2963 99.1762C92.8088 98.1641 91.3544 97.089 89.5741 96.59C87.0556 95.8895 84.685 96.2106 82.4294 97.473C81.3275 98.0854 80.3673 98.8897 79.3804 99.6594C76.6431 101.789 74.1387 101.511 71.9035 98.8519C71.3447 98.1845 70.8017 97.5014 70.2397 96.8387C67.2742 93.3647 63.4508 92.5777 59.3692 94.5878C58.9961 94.7719 58.6184 94.9482 58.2311 95.0993C56.4446 95.7998 55.1066 95.4897 53.8096 94.062C52.9863 93.1554 52.4181 92.0692 51.7554 91.0508C50.6394 89.3335 49.3754 87.7862 47.3889 87.0165C47.0977 86.9047 46.8018 86.6922 46.5137 86.7016C45.223 86.7536 45.0703 86.0767 45.0876 84.9576ZM45.0876 97.3093C45.2088 94.5988 45.1616 91.8756 45.0876 89.1619C45.0609 88.1655 45.4748 88.164 46.1895 88.3544C47.8737 88.8046 48.9976 89.9663 49.9405 91.3452C50.5308 92.203 51.0581 93.105 51.6405 93.9707C53.8442 97.2495 56.3328 97.9311 59.8823 96.2059C61.1495 95.5904 62.4386 95.1513 63.8742 95.1906C64.7116 95.2033 65.5375 95.3872 66.3011 95.731C67.0648 96.0748 67.75 96.5712 68.3146 97.1897C69.1993 98.1231 69.9863 99.1479 70.8332 100.119C73.528 103.222 76.8886 103.582 80.1548 101.134C80.9324 100.55 81.6833 99.9254 82.486 99.3745C85.3666 97.3975 88.3101 97.3581 91.2772 99.1841C92.2532 99.7838 93.2086 100.423 94.2097 100.975C96.8038 102.406 99.7395 101.978 101.882 99.8987C102.76 99.0455 103.432 98.024 104.193 97.0748C106.407 94.2871 108.783 93.7393 112.001 95.2504C112.693 95.5747 113.368 95.932 114.06 96.2516C116.181 97.2259 118.24 97.0229 120.256 95.9194C121.987 94.975 123.404 93.6559 124.843 91.9386C124.843 94.4571 124.972 96.7206 124.811 98.9574C124.607 101.813 122.663 103.639 120.513 105.192C116.71 107.937 112.348 109.469 107.871 110.662C98.2693 113.225 88.4691 113.847 78.5776 113.247C71.3652 112.811 64.2787 111.687 57.452 109.217C54.1464 108.019 50.9605 106.565 48.2546 104.238C46.1344 102.414 44.9601 100.209 45.0892 97.3093H45.0876ZM134.202 109.335C132.471 111.663 130.066 113.137 127.533 114.399C121.951 117.182 115.97 118.725 109.88 119.869C98.1433 122.073 86.3032 122.554 74.4126 121.707C64.9871 121.037 55.6811 119.587 46.7734 116.291C43.1121 114.937 39.5752 113.3 36.7545 110.481C35.5534 109.28 34.6232 107.911 34.4311 106.159C34.2092 104.112 35.1442 102.51 36.457 101.097C38.3805 99.0314 40.7825 97.6556 43.2963 96.442C43.5623 96.771 43.4679 97.0953 43.4537 97.3865C43.2097 101.086 44.9869 103.785 47.7273 105.984C51.3981 108.931 55.6906 110.621 60.1468 111.918C68.5696 114.371 77.2066 115.199 85.9443 115.129C93.4872 115.07 100.95 114.287 108.257 112.35C113.009 111.09 117.596 109.417 121.614 106.466C124.832 104.105 126.899 101.15 126.541 96.941C126.545 96.7549 126.562 96.5693 126.59 96.3854C129.563 97.876 132.328 99.406 134.262 102.035C136.064 104.484 136.025 106.889 134.204 109.335H134.202Z" fill="white"/>
<path d="M73.1787 57.6975C72.8246 58.3775 72.5255 58.3413 71.9431 58.1697C69.1019 57.3433 66.3252 59.3424 66.311 62.3332C66.3598 64.222 67.1721 65.8496 68.8658 67.0444C71.0868 68.6106 73.6226 69.0718 76.2513 69.2481C76.4763 69.2733 76.704 69.2482 76.9181 69.1744C77.1321 69.1006 77.327 68.98 77.4885 68.8215C79.283 67.0664 80.6776 65.0563 81.3623 62.6165C81.9028 60.6951 81.5916 58.9111 80.4289 57.2646C78.5778 54.6438 74.6662 54.8358 73.1787 57.6975ZM77.6113 66.2117C76.8605 67.2443 76.0782 67.6992 74.7481 67.4552C72.8403 67.1089 71.0112 66.6839 69.4733 65.4199C69.0667 65.0914 68.7288 64.686 68.479 64.2269C68.2292 63.7677 68.0723 63.2638 68.0173 62.744C67.882 61.7051 68.0551 60.7953 68.9791 60.1672C69.4041 59.8589 69.9059 59.6736 70.4293 59.6317C70.9527 59.5898 71.4775 59.6928 71.9462 59.9295C72.261 60.0728 72.5302 60.3042 72.8371 60.4663C73.5093 60.8236 73.9658 60.6536 74.1499 59.887C74.2048 59.5792 74.2779 59.2749 74.3687 58.9757C74.789 57.8644 75.628 57.2442 76.7802 57.0742C77.838 56.9168 78.5762 57.507 79.1413 58.3145C79.6466 59.037 79.9819 59.8367 79.9661 60.7496C79.8449 62.8589 78.8139 64.5542 77.6113 66.2117Z" fill="white"/>
<path d="M103.102 64.3656C102.269 63.215 101.064 62.8545 99.6988 63.0481C99.3667 63.0953 99.1967 63.1583 98.9511 62.812C97.8949 61.3292 96.4326 60.7562 95.1246 61.2222C93.7173 61.7196 92.6863 63.3094 92.6722 65.2439C92.6433 65.7918 92.7481 66.3385 92.9775 66.8369C94.7326 70.536 95.2442 71.6819 98.5356 70.9562C100.487 70.5265 102.299 69.8827 103.231 67.9199C103.798 66.7409 103.925 65.4974 103.102 64.3656ZM101.816 67.0683C101.418 68.1812 100.469 68.7714 99.4139 69.0422C96.3539 69.8292 96.4468 69.9095 94.8696 67.1124C94.5124 66.5097 94.3289 65.82 94.3391 65.1196C94.358 64.2082 94.6035 63.3881 95.4551 62.9159C96.0344 62.6011 96.5995 62.7931 97.1111 63.152C97.5376 63.4511 97.6714 63.9091 97.8084 64.3861C98.0996 65.3966 98.4695 65.5351 99.3824 64.9811C100.118 64.5387 100.827 64.4852 101.5 65.0487C102.172 65.6123 102.071 66.3694 101.821 67.0683H101.816Z" fill="white"/>
<path d="M89.7224 54.2599C89.2203 54.4299 88.9952 54.2678 88.6505 54.0065C87.1708 52.8842 85.2332 53.3422 84.4398 54.9745C83.6843 56.5266 84.1439 58.4265 85.6582 59.9927C87.4258 61.8233 88.1767 62.039 90.1616 61.115C91.8931 60.3138 93.3412 59.2261 93.4451 57.3703C93.5128 54.9194 91.7782 53.5705 89.7224 54.2599ZM90.0908 59.2371C89.4186 59.5724 88.7134 60.2839 87.939 59.7644C86.8371 59.0293 85.8596 58.0912 85.7573 56.6431C85.7101 55.9709 85.8958 55.2783 86.6719 55.0784C87.4007 54.8895 87.8036 55.3586 88.1358 55.9536C88.6174 56.8146 88.9921 56.8634 89.7366 56.1771C90.1521 55.7946 90.574 55.5601 91.1359 55.7883C91.6617 56.0024 91.7986 56.4542 91.8254 56.9657C91.7687 58.118 91.0242 58.7728 90.0939 59.2371H90.0908Z" fill="white"/>
<path d="M9.48675 28.8134H5.86638V19.8223C6.02379 19.7908 6.26777 19.7515 6.5936 19.7027C6.91364 19.6559 7.23664 19.6322 7.56008 19.6318C8.24323 19.6318 8.73591 19.7509 9.03814 19.9892C9.34036 20.2284 9.49147 20.6802 9.49147 21.3492L9.48675 28.8134ZM5.86166 24.2407H9.48203V34.3038C9.2561 34.3684 9.02483 34.4126 8.79101 34.436C8.46668 34.4755 8.14023 34.4949 7.81351 34.4942C7.09678 34.4942 6.59203 34.3673 6.29925 34.1133C6.00647 33.8594 5.85903 33.4144 5.85693 32.7785L5.86166 24.2407Z" fill="white"/>
<path d="M23.5342 26.9056V29.1471H19.98V27.0237C19.98 26.4366 19.81 26.0037 19.4668 25.7251C19.0811 25.4323 18.6047 25.2847 18.121 25.308C17.7478 25.3042 17.3763 25.3572 17.0191 25.4654C16.7062 25.5605 16.4027 25.6843 16.1125 25.8353V29.1503H12.5928V25.426C12.5796 25.0793 12.6665 24.7361 12.8431 24.4375C13.0318 24.1532 13.2799 23.9131 13.5703 23.7339C14.1717 23.3419 14.8316 23.0481 15.5253 22.8634C16.3792 22.6244 17.2627 22.5078 18.1493 22.5171C19.8672 22.5171 21.1946 22.8949 22.1317 23.6505C23.0688 24.406 23.5363 25.4911 23.5342 26.9056ZM12.5928 28.05H16.1219V34.2975C15.9029 34.3577 15.6799 34.4019 15.4545 34.4297C15.1461 34.4702 14.8353 34.4897 14.5242 34.488C13.8568 34.488 13.3673 34.3699 13.0572 34.1306C12.7471 33.8914 12.585 33.4632 12.585 32.843L12.5928 28.05ZM19.991 28.05H23.5452V34.2975C23.3257 34.3577 23.1022 34.4019 22.8763 34.4297C22.5684 34.4703 22.2581 34.4897 21.9476 34.488C21.2786 34.488 20.7859 34.3699 20.4679 34.1306C20.15 33.8914 19.9957 33.4632 19.9957 32.843L19.991 28.05Z" fill="white"/>
<path d="M27.9463 30.2679L27.8031 27.8832L33.7169 26.9529C33.6737 26.4861 33.4714 26.0482 33.1439 25.7126C32.7945 25.3317 32.2782 25.1412 31.595 25.1412C31.2627 25.1323 30.9321 25.1923 30.6241 25.3175C30.3161 25.4426 30.0373 25.6302 29.8053 25.8684C29.3289 26.3532 29.0744 27.0406 29.0419 27.9304L29.1615 29.5769C29.3053 30.45 29.6789 31.0739 30.2823 31.4485C30.93 31.8332 31.673 32.0275 32.4262 32.0089C33.0669 32.0134 33.7044 31.9167 34.315 31.7224C34.8104 31.571 35.2897 31.3711 35.7459 31.1258C35.9872 31.2729 36.1879 31.478 36.3299 31.7224C36.4781 31.9668 36.5565 32.2472 36.5565 32.533C36.5598 32.7614 36.511 32.9875 36.4139 33.1942C36.3169 33.401 36.174 33.5829 35.9962 33.7262C35.5419 34.0817 35.0111 34.3264 34.4457 34.4408C33.7063 34.6088 32.9498 34.6891 32.1916 34.6801C31.0519 34.6985 29.9225 34.4619 28.8861 33.9875C27.9269 33.5444 27.1246 32.8211 26.5848 31.9129C26.0275 30.9915 25.7495 29.8372 25.7505 28.4499C25.7313 27.5473 25.8979 26.6504 26.24 25.8149C26.5336 25.1081 26.9798 24.4749 27.5465 23.9606C28.0892 23.4797 28.7215 23.1106 29.4071 22.8745C30.1015 22.6361 30.8309 22.5154 31.5651 22.5172C32.5629 22.494 33.5507 22.7195 34.4394 23.1736C35.2278 23.5822 35.8917 24.1955 36.3613 24.9492C36.832 25.7325 37.0726 26.6326 37.0555 27.5464C37.0555 28.0385 36.9201 28.4121 36.6494 28.6671C36.3349 28.9387 35.9427 29.104 35.5287 29.1393L27.9463 30.2679ZM30.4979 19.3691L32.8826 16.7703C33.5973 16.7703 34.1377 16.925 34.5039 17.2346C34.8702 17.5442 35.0528 17.89 35.0517 18.2719C35.0627 18.5666 34.9836 18.8576 34.825 19.1062C34.6167 19.391 34.3722 19.6477 34.0978 19.8696L31.8563 21.801C31.2519 21.801 30.7907 21.6541 30.4727 21.3603C30.3314 21.2454 30.2162 21.1018 30.1348 20.9389C30.0534 20.7761 30.0076 20.5978 30.0005 20.4158C29.9985 20.2348 30.0356 20.0555 30.1091 19.8901C30.2069 19.6948 30.3386 19.5184 30.4979 19.3691Z" fill="white"/>
<path d="M48.502 30.9826C48.502 32.1443 48.0649 33.0546 47.1908 33.7136C46.3167 34.3726 45.0448 34.7027 43.3752 34.7037C42.0698 34.7037 40.9963 34.5127 40.1547 34.1308C39.3131 33.7488 38.8933 33.1847 38.8954 32.4386C38.8878 32.151 38.954 31.8661 39.0876 31.6113C39.2212 31.3564 39.4179 31.14 39.6588 30.9826C40.1584 31.2621 40.6814 31.4976 41.2219 31.6862C41.8779 31.9087 42.5677 32.0153 43.2603 32.001C44.4209 32.001 45.0013 31.6673 45.0013 30.9999C45.0058 30.8698 44.9797 30.7405 44.925 30.6224C44.8703 30.5042 44.7886 30.4006 44.6864 30.3199C44.4802 30.1531 44.1371 30.0303 43.6601 29.95L42.6575 29.7186C41.3856 29.45 40.4359 29.0302 39.8084 28.4594C39.1808 27.8885 38.866 27.1135 38.8639 26.1345C38.8499 25.6142 38.9657 25.0987 39.201 24.6345C39.4362 24.1703 39.7835 23.7721 40.2113 23.4759C41.1107 22.8168 42.3232 22.4868 43.849 22.4858C44.5507 22.479 45.2508 22.5551 45.9347 22.7124C46.4787 22.8233 46.9891 23.06 47.4253 23.4034C47.5991 23.5416 47.739 23.7177 47.8342 23.9182C47.9294 24.1187 47.9775 24.3384 47.9747 24.5604C47.9809 24.8499 47.9154 25.1365 47.7842 25.3946C47.6616 25.6272 47.4903 25.8307 47.2821 25.9912C47.0294 25.8443 46.7619 25.7246 46.484 25.6339C46.103 25.4985 45.712 25.3932 45.3145 25.3191C44.9256 25.2422 44.5303 25.2022 44.1339 25.1995C43.6779 25.1783 43.2226 25.2556 42.7991 25.4261C42.6579 25.4811 42.537 25.578 42.4526 25.7038C42.3682 25.8296 42.3243 25.9783 42.3269 26.1297C42.3281 26.2343 42.3535 26.3371 42.401 26.4302C42.4485 26.5233 42.5169 26.6042 42.6008 26.6665C42.7834 26.8176 43.1055 26.9409 43.5673 27.0364L44.5212 27.2741C45.9368 27.5889 46.9542 28.0459 47.5733 28.6451C48.1924 29.2443 48.502 30.0235 48.502 30.9826Z" fill="white"/>
<path d="M60.0195 22.5171C61.6734 22.5171 62.993 22.8629 63.9783 23.5544C64.9637 24.2459 65.4569 25.3153 65.458 26.7624V32.1756C65.4724 32.5246 65.3607 32.8672 65.1431 33.1405C64.9221 33.3974 64.6552 33.6109 64.3561 33.7701C63.802 34.0864 63.2027 34.3158 62.579 34.4501C61.7843 34.6263 60.972 34.7102 60.158 34.7004C58.5367 34.7004 57.245 34.3825 56.2827 33.7465C55.3204 33.1106 54.8398 32.1662 54.8408 30.9132C54.8408 29.8313 55.1745 29.0007 55.8419 28.4214C56.5093 27.8422 57.5031 27.4885 58.8232 27.3605L61.995 27.0252V26.7403C61.995 26.1988 61.7841 25.8101 61.3654 25.5708C60.9467 25.3315 60.3438 25.2135 59.5662 25.2135C58.9673 25.2124 58.3705 25.2843 57.7891 25.4276C57.2563 25.5553 56.7339 25.7226 56.226 25.9281C56.0159 25.7786 55.8479 25.5775 55.738 25.3441C55.6048 25.0907 55.5351 24.8087 55.535 24.5225C55.535 23.854 55.9023 23.3692 56.6368 23.068C57.1519 22.8617 57.6908 22.7205 58.2408 22.6477C58.8299 22.5625 59.4243 22.5188 60.0195 22.5171ZM60.1628 32.056C60.5274 32.0558 60.8912 32.0199 61.2489 31.9489C61.5184 31.9061 61.7797 31.8217 62.0233 31.6987V29.4084L60.0195 29.6004C59.5699 29.6079 59.1286 29.7223 58.7319 29.9341C58.5823 30.0203 58.4592 30.1458 58.376 30.2971C58.2927 30.4483 58.2525 30.6195 58.2597 30.792C58.2551 30.9705 58.294 31.1474 58.373 31.3075C58.452 31.4677 58.5687 31.6062 58.713 31.7113C59.0121 31.9411 59.4954 32.056 60.1628 32.056Z" fill="white"/>
<path d="M76.6181 29.9341L73.0654 29.8617V18.7976C73.2846 18.7356 73.5075 18.6877 73.7328 18.6543C74.0404 18.6041 74.3515 18.5799 74.6631 18.5819C75.3463 18.5819 75.8431 18.701 76.1538 18.9392C76.4644 19.1774 76.6192 19.615 76.6181 20.252V29.9341ZM73.0654 28.0263L76.6181 28.0972V34.2975C76.3991 34.3576 76.1761 34.4017 75.9507 34.4297C75.6423 34.4702 75.3315 34.4896 75.0204 34.4879C74.353 34.4879 73.8588 34.3699 73.5408 34.1306C73.2228 33.8913 73.0686 33.4632 73.0686 32.843L73.0654 28.0263Z" fill="white"/>
<path d="M84.0555 22.5171C85.7083 22.5171 87.0279 22.8629 88.0143 23.5544C89.0008 24.2459 89.4945 25.3142 89.4955 26.7592V32.1725C89.51 32.5215 89.3983 32.864 89.1807 33.1374C88.9597 33.3943 88.6928 33.6078 88.3937 33.767C87.8397 34.0835 87.2403 34.3129 86.6166 34.447C85.8224 34.6231 85.0106 34.7071 84.1972 34.6973C82.5749 34.6973 81.2831 34.3793 80.3218 33.7434C79.3606 33.1075 78.8795 32.163 78.8784 30.9101C78.8784 29.8281 79.2121 28.9976 79.8795 28.4183C80.5469 27.839 81.5407 27.4854 82.8608 27.3574L86.0326 27.0221V26.7372C86.0326 26.1957 85.8217 25.8069 85.403 25.5676C84.9843 25.3284 84.3814 25.2103 83.6022 25.2103C83.0034 25.2095 82.4066 25.2814 81.8251 25.4244C81.2929 25.5521 80.7709 25.7195 80.2636 25.925C80.0526 25.776 79.8839 25.5748 79.7741 25.341C79.6408 25.0876 79.5712 24.8056 79.571 24.5193C79.571 23.8509 79.9383 23.366 80.6729 23.0649C81.19 22.8586 81.731 22.7179 82.2831 22.6462C82.8702 22.5618 83.4625 22.5187 84.0555 22.5171ZM84.1988 32.056C84.5629 32.0558 84.9262 32.02 85.2833 31.9489C85.5529 31.9061 85.8141 31.8217 86.0578 31.6987V29.4084L84.0555 29.6004C83.6054 29.6077 83.1635 29.7221 82.7664 29.9341C82.6161 30.0195 82.4923 30.1449 82.409 30.2963C82.3256 30.4477 82.2859 30.6193 82.2942 30.792C82.2894 30.9703 82.328 31.1472 82.4067 31.3073C82.4854 31.4674 82.6018 31.6061 82.7459 31.7113C83.0481 31.9411 83.5335 32.056 84.2019 32.056H84.1988Z" fill="white"/>
<path d="M103.16 25.3316C102.343 25.3173 101.553 25.621 100.956 26.1785C100.345 26.742 100.039 27.5647 100.039 28.6466C100.039 29.7107 100.333 30.5135 100.922 31.0549C101.528 31.6027 102.323 31.8934 103.14 31.8656C103.605 31.8746 104.068 31.806 104.511 31.6625C104.86 31.5446 105.2 31.3972 105.524 31.2218C105.771 31.3884 105.982 31.6024 106.145 31.8514C106.293 32.1082 106.368 32.4016 106.359 32.6983C106.359 33.287 106.041 33.7639 105.405 34.1291C104.769 34.4943 103.886 34.6774 102.757 34.6785C101.614 34.7034 100.48 34.4716 99.439 34C98.5069 33.566 97.7321 32.8539 97.2211 31.9616C96.6964 31.0549 96.4341 29.9499 96.4341 28.6466C96.4341 27.2625 96.7206 26.1218 97.2935 25.2246C97.8438 24.3453 98.6341 23.6419 99.5712 23.1972C100.536 22.7395 101.592 22.507 102.66 22.5172C103.756 22.5172 104.619 22.716 105.247 23.1137C105.877 23.5104 106.192 24.0047 106.192 24.5918C106.196 24.8636 106.125 25.1313 105.989 25.3662C105.858 25.5888 105.7 25.7936 105.516 25.9754C105.182 25.8024 104.836 25.6551 104.479 25.5347C104.054 25.394 103.608 25.3254 103.16 25.3316Z" fill="white"/>
<path d="M120.14 28.5979C120.14 29.8382 119.889 30.9154 119.389 31.8295C118.907 32.7248 118.173 33.4589 117.278 33.9403C116.292 34.4521 115.193 34.7066 114.083 34.6801C112.858 34.6801 111.793 34.4377 110.887 33.9529C109.991 33.478 109.256 32.747 108.776 31.8531C108.275 30.9401 108.024 29.855 108.024 28.5979C108.024 27.3586 108.278 26.2856 108.787 25.3789C109.282 24.4856 110.023 23.753 110.922 23.2681C111.902 22.7515 112.998 22.4931 114.106 22.5172C115.207 22.4907 116.297 22.7494 117.268 23.2681C118.159 23.7611 118.892 24.4976 119.379 25.3915C119.904 26.3771 120.166 27.4815 120.14 28.5979ZM114.083 25.3081C113.739 25.296 113.398 25.3678 113.088 25.5173C112.778 25.6668 112.51 25.8894 112.305 26.1659C111.868 26.7389 111.649 27.5495 111.649 28.5979C111.649 29.663 111.864 30.4778 112.293 31.0424C112.51 31.3081 112.783 31.522 113.093 31.6686C113.403 31.8152 113.742 31.8907 114.084 31.8896C114.427 31.8886 114.766 31.811 115.075 31.6625C115.384 31.514 115.656 31.2984 115.871 31.0314C116.301 30.4584 116.516 29.6473 116.514 28.5979C116.514 27.5653 116.3 26.7588 115.871 26.1785C115.668 25.897 115.398 25.6701 115.086 25.5182C114.774 25.3663 114.429 25.2941 114.083 25.3081Z" fill="white"/>
<path d="M128.534 25.3316C127.717 25.3163 126.927 25.6201 126.33 26.1785C125.718 26.742 125.412 27.5647 125.413 28.6466C125.413 29.7107 125.707 30.5135 126.294 31.0549C126.901 31.6018 127.696 31.8924 128.512 31.8656C128.977 31.8748 129.441 31.8062 129.883 31.6625C130.233 31.5452 130.572 31.3977 130.897 31.2218C131.144 31.3879 131.355 31.6021 131.517 31.8514C131.667 32.1077 131.742 32.4013 131.733 32.6983C131.733 33.287 131.418 33.7639 130.779 34.1291C130.14 34.4943 129.26 34.6785 128.131 34.6785C126.988 34.7034 125.854 34.4715 124.813 34C123.881 33.5664 123.106 32.8542 122.595 31.9616C122.07 31.0549 121.808 29.9499 121.808 28.6466C121.808 27.2625 122.094 26.1218 122.666 25.2246C123.217 24.3456 124.007 23.6422 124.944 23.1972C125.908 22.7397 126.964 22.5072 128.032 22.5172C129.13 22.5172 129.992 22.716 130.62 23.1137C131.249 23.5104 131.564 24.0047 131.564 24.5918C131.569 24.8634 131.499 25.1312 131.363 25.3662C131.232 25.5888 131.074 25.7936 130.891 25.9754C130.557 25.8021 130.21 25.6548 129.853 25.5347C129.428 25.3938 128.982 25.3252 128.534 25.3316Z" fill="white"/>
<path d="M133.828 19.5846C133.821 19.3315 133.868 19.0797 133.964 18.8456C134.061 18.6114 134.205 18.3999 134.388 18.2246C134.779 17.8721 135.286 17.677 135.813 17.677C136.339 17.677 136.846 17.8721 137.237 18.2246C137.417 18.4016 137.559 18.6137 137.653 18.8476C137.748 19.0815 137.793 19.3324 137.787 19.5846C137.773 19.9724 137.648 20.348 137.424 20.6655C137.201 20.9831 136.891 21.2288 136.531 21.3729C136.17 21.5169 135.776 21.5529 135.395 21.4766C135.015 21.4003 134.665 21.2149 134.388 20.9431C134.208 20.7662 134.065 20.5547 133.969 20.3212C133.873 20.0877 133.825 19.8372 133.828 19.5846ZM137.574 29.8618H134.042V23.0177C134.257 22.9546 134.476 22.9067 134.698 22.8745C135.011 22.8258 135.326 22.8021 135.643 22.8036C136.326 22.8036 136.82 22.9185 137.122 23.1484C137.424 23.3782 137.574 23.8205 137.574 24.4721V29.8618ZM134.045 28.0264H137.574V34.2975C137.364 34.36 137.148 34.4043 136.93 34.4297C136.622 34.4703 136.311 34.4898 136 34.488C135.317 34.488 134.819 34.3699 134.511 34.1307C134.202 33.8914 134.039 33.4633 134.039 32.8431L134.045 28.0264Z" fill="white"/>
<path d="M151.379 26.9056V29.1471H147.826V27.0237C147.826 26.436 147.655 26.0032 147.313 25.7251C146.927 25.4321 146.45 25.2844 145.965 25.308C145.592 25.3043 145.221 25.3574 144.864 25.4654C144.551 25.5602 144.248 25.684 143.958 25.8353V29.1503H140.433V25.426C140.419 25.0793 140.506 24.7361 140.683 24.4375C140.872 24.1532 141.12 23.9131 141.41 23.7339C142.012 23.3419 142.672 23.048 143.367 22.8634C144.22 22.6244 145.103 22.5078 145.989 22.5171C147.707 22.5171 149.034 22.8949 149.971 23.6505C150.909 24.406 151.378 25.4911 151.379 26.9056ZM140.433 28.05H143.963V34.2975C143.744 34.3576 143.52 34.4017 143.294 34.4297C142.986 34.4703 142.675 34.4898 142.364 34.488C141.697 34.488 141.209 34.3699 140.898 34.1306C140.588 33.8914 140.426 33.4632 140.426 32.843L140.433 28.05ZM147.831 28.05H151.379V34.2975C151.16 34.3577 150.937 34.4019 150.711 34.4297C150.403 34.4702 150.092 34.4897 149.781 34.488C149.114 34.488 148.621 34.3699 148.303 34.1306C147.985 33.8914 147.831 33.4632 147.831 32.843V28.05Z" fill="white"/>
<path d="M158.7 22.5171C160.354 22.5171 161.673 22.8629 162.658 23.5544C163.644 24.2459 164.137 25.3153 164.138 26.7624V32.1756C164.153 32.5246 164.041 32.8672 163.823 33.1405C163.602 33.3974 163.335 33.6109 163.036 33.7701C162.482 34.0864 161.883 34.3158 161.259 34.4501C160.464 34.6264 159.652 34.7103 158.838 34.7004C157.217 34.7004 155.925 34.3825 154.963 33.7465C154.001 33.1106 153.52 32.1662 153.521 30.9132C153.521 29.8313 153.855 29.0007 154.522 28.4214C155.19 27.8422 156.183 27.4885 157.503 27.3605L160.675 27.0252V26.7403C160.675 26.1988 160.464 25.8101 160.046 25.5708C159.627 25.3315 159.022 25.2135 158.245 25.2135C157.646 25.2126 157.049 25.2845 156.468 25.4276C155.935 25.5551 155.413 25.7224 154.906 25.9281C154.695 25.7787 154.526 25.5769 154.417 25.3426C154.283 25.0891 154.214 24.8072 154.214 24.5209C154.214 23.8524 154.581 23.3676 155.315 23.0664C155.833 22.8602 156.374 22.7195 156.926 22.6477C157.513 22.5627 158.106 22.519 158.7 22.5171ZM158.843 32.056C159.208 32.0558 159.571 32.02 159.929 31.9489C160.199 31.9061 160.46 31.8217 160.703 31.6987V29.4084L158.7 29.6004C158.25 29.6079 157.809 29.7223 157.412 29.9341C157.263 30.0203 157.139 30.1458 157.056 30.2971C156.973 30.4483 156.933 30.6195 156.94 30.792C156.935 30.9705 156.974 31.1474 157.053 31.3075C157.132 31.4677 157.249 31.6062 157.393 31.7113C157.692 31.9411 158.176 32.056 158.843 32.056Z" fill="white"/>
<path d="M19.3092 134.991C19.0227 134.991 18.6387 135.189 18.157 135.581C17.5882 136.06 17.0616 136.587 16.5829 137.155C15.9736 137.871 15.4095 138.624 14.8939 139.409C14.3274 140.264 13.8123 141.151 13.3513 142.067C12.9015 142.95 12.5256 143.869 12.2275 144.815C11.9604 145.628 11.8182 146.477 11.8056 147.333C11.7958 147.78 11.9221 148.219 12.1676 148.593C12.2866 148.769 12.4493 148.911 12.6397 149.005C12.8301 149.099 13.0417 149.142 13.2538 149.129C13.5812 149.121 13.9031 149.043 14.1982 148.901C14.5631 148.734 14.9133 148.537 15.245 148.311C15.6259 148.052 15.9937 147.774 16.3468 147.478C16.7235 147.163 17.0814 146.849 17.4203 146.534C18.2262 145.766 19.049 144.898 19.8885 143.932C19.916 143.892 19.9522 143.86 19.9942 143.837C20.0362 143.814 20.0829 143.8 20.1309 143.798C20.1838 143.798 20.2356 143.813 20.2806 143.841C20.3256 143.868 20.362 143.908 20.3859 143.955C20.4159 144.011 20.4281 144.074 20.4208 144.137C20.4135 144.199 20.387 144.258 20.345 144.305C19.3785 145.592 18.4304 146.747 17.5006 147.768C17.1071 148.198 16.7046 148.623 16.2933 149.043C15.91 149.439 15.5025 149.81 15.0734 150.156C14.7131 150.452 14.327 150.715 13.9196 150.943C13.6218 151.119 13.2859 151.22 12.9405 151.237C12.4743 151.237 12.01 151.178 11.5585 151.062C11.0982 150.944 10.6744 150.713 10.3244 150.392C9.92791 150.016 9.62496 149.552 9.43977 149.038C9.21625 148.465 9.10449 147.723 9.10449 146.811C9.12231 145.884 9.28482 144.965 9.58616 144.088C9.92466 143.042 10.3512 142.028 10.8612 141.054C11.403 140.027 12.0124 139.037 12.6855 138.09C13.3146 137.195 14.004 136.343 14.7491 135.542C15.3618 134.872 16.0483 134.273 16.7954 133.757C17.466 133.31 18.0515 133.086 18.5521 133.086C18.9044 133.09 19.252 133.167 19.5721 133.315C19.8983 133.458 20.2046 133.644 20.4835 133.866C20.7341 134.061 20.9557 134.291 21.1414 134.549C21.2875 134.728 21.3764 134.948 21.3964 135.178C21.3854 135.785 21.2599 136.384 21.0265 136.944C20.7817 137.57 20.4809 138.171 20.1277 138.742C19.8227 139.252 19.4627 139.727 19.0542 140.159C18.688 140.534 18.3889 140.722 18.157 140.722C17.9802 140.723 17.8071 140.672 17.6596 140.574C17.5208 140.489 17.3982 140.38 17.2975 140.252C17.2188 140.166 17.1755 140.053 17.1763 139.937C17.1858 139.839 17.2613 139.789 17.4046 139.789C17.584 139.789 17.7934 139.674 18.0342 139.441C18.3075 139.17 18.5542 138.873 18.7709 138.555C19.0272 138.188 19.2561 137.802 19.4556 137.401C19.6453 137.035 19.7896 136.648 19.8853 136.247C19.9661 135.958 19.9704 135.654 19.8979 135.363C19.8287 135.115 19.6324 134.991 19.3092 134.991Z" fill="white"/>
<path d="M27.8958 143.925C27.9226 143.886 27.9584 143.853 28.0002 143.83C28.0421 143.806 28.0888 143.793 28.1367 143.792C28.1896 143.792 28.2414 143.806 28.2864 143.834C28.3314 143.862 28.3678 143.902 28.3917 143.949C28.4217 144.004 28.4339 144.068 28.4266 144.13C28.4193 144.193 28.3928 144.251 28.3508 144.298C27.8099 145.187 27.1253 145.98 26.3249 146.645C25.5841 147.246 24.8463 147.572 24.1118 147.624C23.7394 148.038 23.3163 148.404 22.8525 148.712C22.482 148.97 22.0444 149.114 21.5933 149.128C21.3044 149.117 21.0229 149.033 20.7747 148.885C20.4687 148.717 20.1887 148.505 19.9436 148.256C19.6803 147.991 19.4585 147.688 19.2857 147.357C19.1098 147.026 19.0179 146.658 19.0181 146.283C19.0309 145.882 19.1174 145.487 19.2731 145.117C19.445 144.674 19.6556 144.247 19.9027 143.842C20.1357 143.455 20.4056 143.091 20.7086 142.756C20.9194 142.499 21.1851 142.292 21.4862 142.151C21.7504 141.632 22.1048 141.164 22.533 140.769C22.98 140.35 23.4522 140.14 23.9496 140.14C24.2464 140.149 24.5345 140.241 24.7808 140.407C25.0747 140.593 25.3377 140.824 25.5599 141.092C25.7974 141.377 25.9915 141.695 26.136 142.036C26.2866 142.384 26.3643 142.759 26.3643 143.138C26.3391 143.61 26.2298 144.073 26.0416 144.506C25.8141 145.092 25.5271 145.652 25.1853 146.179C25.6989 146.025 26.1652 145.744 26.5406 145.361C26.9782 144.94 27.4299 144.462 27.8958 143.925ZM21.2958 147.601C21.5056 147.601 21.8094 147.404 22.2071 147.01C22.1565 146.882 22.1293 146.746 22.1269 146.608C22.1269 146.251 22.2433 145.996 22.4763 145.844C22.7157 145.69 22.9958 145.61 23.2807 145.616C23.6859 144.985 24.0276 144.315 24.3007 143.617C24.5702 142.967 24.7154 142.273 24.7288 141.57C24.7309 141.471 24.703 141.372 24.6485 141.289C24.618 141.247 24.5774 141.215 24.5305 141.194C24.4836 141.173 24.4321 141.164 24.3809 141.169C24.2094 141.172 24.042 141.223 23.8977 141.315C23.7275 141.422 23.5738 141.553 23.4412 141.704C23.2972 141.868 23.1671 142.043 23.0524 142.228C22.9465 142.396 22.8523 142.571 22.7707 142.751C22.9565 142.952 23.0981 143.189 23.1862 143.448C23.2492 143.664 23.1736 143.771 22.958 143.771C22.712 143.791 22.4804 143.895 22.3016 144.065C22.0361 144.29 21.8054 144.552 21.6169 144.845C21.3928 145.184 21.2084 145.549 21.0675 145.931C20.9194 146.311 20.842 146.716 20.8393 147.124C20.834 147.247 20.8664 147.369 20.9321 147.473C20.978 147.522 21.035 147.559 21.0983 147.582C21.1616 147.604 21.2294 147.61 21.2958 147.601Z" fill="white"/>
<path d="M29.531 149.131C29.3147 149.115 29.1022 149.065 28.9014 148.983C28.6012 148.874 28.3169 148.725 28.0561 148.541C27.7647 148.339 27.5142 148.084 27.3179 147.788C27.1082 147.481 26.9983 147.116 27.0031 146.743C27.0031 146.206 27.1642 145.557 27.4863 144.798C27.8081 144.036 28.2035 143.308 28.6669 142.624C29.094 141.979 29.5983 141.389 30.1685 140.867C30.7058 140.384 31.1885 140.143 31.6167 140.143C31.948 140.142 32.2764 140.205 32.5832 140.33C32.8657 140.445 33.1307 140.598 33.3702 140.787C33.5784 140.949 33.7595 141.144 33.907 141.363C34.0216 141.516 34.0913 141.697 34.1085 141.887C34.0998 142.157 34.0355 142.421 33.9196 142.665C33.7976 142.946 33.6495 143.215 33.4772 143.469C33.3276 143.695 33.1569 143.906 32.9672 144.099C32.7972 144.269 32.6587 144.354 32.5517 144.354C32.4126 144.355 32.2767 144.312 32.1629 144.233C32.0568 144.162 31.9619 144.076 31.8811 143.978C31.8488 143.944 31.8238 143.904 31.8076 143.86C31.7913 143.816 31.7842 143.769 31.7867 143.723C31.7961 143.642 31.8544 143.603 31.9614 143.603C32.0685 143.603 32.2164 143.494 32.4037 143.288C32.5947 143.07 32.7537 142.827 32.876 142.564C32.9879 142.336 33.0643 142.091 33.1026 141.84C33.1294 141.624 33.0365 141.525 32.8209 141.525C32.6052 141.525 32.281 141.7 31.8953 142.049C31.467 142.449 31.089 142.899 30.7698 143.39C30.3896 143.967 30.0729 144.583 29.8254 145.227C29.5645 145.867 29.4277 146.55 29.4224 147.241C29.4224 147.597 29.5924 147.776 29.9324 147.776C30.3979 147.767 30.8538 147.642 31.2594 147.414C31.7461 147.153 32.205 146.842 32.6288 146.488C33.0951 146.103 33.5342 145.687 33.9432 145.242C34.3629 144.785 34.7428 144.351 35.0828 143.94C35.1139 143.898 35.1545 143.864 35.2013 143.84C35.2481 143.817 35.2997 143.805 35.352 143.806C35.4032 143.805 35.4536 143.82 35.4965 143.848C35.5395 143.876 35.573 143.916 35.5928 143.963C35.6186 144.021 35.6274 144.084 35.6179 144.146C35.6084 144.208 35.5811 144.266 35.5393 144.313C35.1993 144.778 34.8105 145.292 34.3729 145.855C33.9409 146.415 33.4673 146.941 32.9562 147.429C32.4621 147.901 31.9124 148.311 31.3192 148.649C30.7762 148.965 30.1592 149.131 29.531 149.131Z" fill="white"/>
<path d="M39.8604 143.926C39.9205 143.852 40.0068 143.804 40.1013 143.792C40.1542 143.792 40.2061 143.807 40.2511 143.834C40.2962 143.862 40.3326 143.902 40.3563 143.949C40.3865 144.004 40.399 144.068 40.392 144.13C40.3849 144.193 40.3587 144.252 40.3169 144.299C40.298 144.335 40.2004 144.481 40.021 144.741C39.8416 145.001 39.618 145.309 39.3504 145.667C39.0829 146.024 38.7822 146.405 38.4517 146.806C38.1308 147.199 37.7903 147.575 37.4317 147.933C37.1178 148.254 36.7718 148.542 36.3991 148.793C36.1238 148.994 35.7955 149.111 35.4546 149.128C35.3047 149.117 35.1586 149.075 35.0249 149.007C34.8359 148.92 34.6599 148.807 34.5023 148.671C34.334 148.53 34.1848 148.368 34.0584 148.188C33.9417 148.033 33.8762 147.846 33.8711 147.651C33.8972 147.323 33.9649 146.998 34.0726 146.687C34.2058 146.24 34.3758 145.738 34.5826 145.183C34.7893 144.628 35.0128 144.051 35.2531 143.452C35.4945 142.852 35.7269 142.306 35.9504 141.815C36.174 141.324 36.3749 140.921 36.5533 140.608C36.7328 140.293 36.8492 140.135 36.9028 140.135C37.1383 140.141 37.3687 140.206 37.5733 140.323C37.792 140.438 37.9912 140.587 38.1636 140.765C38.3128 140.918 38.4271 141.101 38.4989 141.302C38.533 141.374 38.5449 141.454 38.5331 141.533C38.5214 141.612 38.4864 141.685 38.4328 141.744C38.3242 141.853 38.1636 142.147 37.9495 142.63C37.7354 143.113 37.5104 143.645 37.279 144.226C37.0476 144.807 36.8445 145.349 36.6745 145.849C36.5513 146.16 36.4657 146.484 36.4195 146.816C36.4195 146.94 36.473 147.003 36.5769 147.003C36.7931 147.003 37.0707 146.86 37.4096 146.573C37.7672 146.271 38.1033 145.944 38.4154 145.594C38.746 145.229 39.0498 144.881 39.3268 144.549C39.6149 144.226 39.788 144.015 39.8604 143.926ZM39.5645 134.991C39.7957 134.999 40.0236 135.049 40.2366 135.139C40.4733 135.23 40.6947 135.357 40.893 135.515C41.0604 135.645 41.2015 135.805 41.3086 135.988C41.3532 136.054 41.3724 136.133 41.3625 136.213C41.3527 136.292 41.3145 136.364 41.2551 136.417C40.9384 136.733 40.6429 137.069 40.3704 137.423C40.1013 137.771 39.8604 138.094 39.6448 138.388C39.4292 138.682 39.2466 138.925 39.0954 139.114C38.9443 139.303 38.8231 139.395 38.7334 139.395C38.4981 139.354 38.2813 139.241 38.1124 139.072C37.9434 138.903 37.8305 138.686 37.789 138.451C37.8079 138.154 37.8667 137.861 37.9637 137.579C38.0843 137.184 38.2326 136.799 38.4076 136.425C38.5674 136.072 38.7603 135.736 38.9837 135.419C39.1946 135.134 39.3867 134.991 39.5645 134.991Z" fill="white"/>
<path d="M49.1962 143.926C49.227 143.884 49.2673 143.85 49.3138 143.826C49.3603 143.803 49.4118 143.791 49.4638 143.792C49.5153 143.791 49.5659 143.805 49.6091 143.833C49.6523 143.861 49.6861 143.902 49.7062 143.949C49.732 144.006 49.7407 144.07 49.7312 144.132C49.7217 144.194 49.6945 144.252 49.6527 144.299C49.6338 144.335 49.5362 144.481 49.3567 144.741C49.1773 145.001 48.9585 145.304 48.7004 145.654C48.4422 146.003 48.1447 146.378 47.8142 146.779C47.4836 147.181 47.1436 147.566 46.7957 147.906C46.481 148.227 46.1345 148.515 45.7616 148.766C45.4964 148.963 45.1799 149.079 44.8502 149.101C44.695 149.087 44.5443 149.041 44.4079 148.966C44.2163 148.876 44.0361 148.763 43.8711 148.63C43.7008 148.496 43.5517 148.337 43.4288 148.158C43.3109 148.004 43.2448 147.816 43.2399 147.622C43.2399 147.318 43.3606 146.818 43.6019 146.12C43.8433 145.422 44.1161 144.697 44.4205 143.946C44.7605 143.071 45.154 142.132 45.601 141.13C45.0211 141.564 44.5064 142.079 44.0726 142.658C43.5353 143.338 43.0253 144.054 42.5426 144.804C42.0599 145.554 41.6401 146.27 41.2833 146.951C41.0118 147.446 40.77 147.957 40.5593 148.481C40.5404 148.571 40.5278 148.651 40.5183 148.722C40.51 148.784 40.5058 148.846 40.5057 148.909C40.5057 149.035 40.4255 149.098 40.2633 149.098C40.0952 149.086 39.9313 149.04 39.7817 148.963C39.5782 148.871 39.3846 148.759 39.204 148.627C39.0206 148.498 38.8609 148.338 38.7317 148.155C38.615 148 38.5495 147.812 38.5444 147.618C38.5648 147.296 38.6322 146.977 38.7443 146.674C38.8797 146.262 39.0497 145.807 39.2543 145.304C39.459 144.802 39.6793 144.286 39.9123 143.749C40.1453 143.213 40.3641 142.707 40.5687 142.233C40.7733 141.76 40.9449 141.347 41.0787 140.999C41.1804 140.773 41.2483 140.534 41.2802 140.288C41.2802 140.164 41.3337 140.101 41.4376 140.101C41.5996 140.122 41.7528 140.187 41.8815 140.288C42.0762 140.42 42.2599 140.568 42.4308 140.73C42.6015 140.893 42.7545 141.072 42.8873 141.267C42.9958 141.411 43.0608 141.583 43.0746 141.763C43.0746 141.868 42.9492 142.226 42.6984 142.836C43.0027 142.462 43.3176 142.109 43.6429 141.777C43.9682 141.445 44.2767 141.155 44.5684 140.905C44.8255 140.681 45.1039 140.484 45.3995 140.315C45.598 140.19 45.8239 140.117 46.0575 140.101C46.2287 140.114 46.3943 140.168 46.5407 140.258C46.7459 140.371 46.9353 140.511 47.1042 140.674C47.2807 140.84 47.4389 141.025 47.5765 141.224C47.6953 141.379 47.7655 141.565 47.778 141.76C47.7473 141.909 47.6976 142.053 47.63 142.189C47.5308 142.422 47.4112 142.709 47.268 143.049C47.1247 143.389 46.9689 143.751 46.7957 144.135C46.6226 144.519 46.4683 144.886 46.3235 145.237C46.1787 145.588 46.0591 145.898 45.9615 146.181C45.886 146.366 45.8367 146.56 45.8151 146.759C45.8151 146.902 45.8592 146.973 45.9489 146.973C46.1588 146.973 46.4358 146.83 46.78 146.543C47.1353 146.243 47.4712 145.921 47.7858 145.578C48.1164 145.222 48.416 144.877 48.6846 144.546C48.9538 144.226 49.1238 144.015 49.1962 143.926Z" fill="white"/>
<path d="M58.4784 143.926C58.5093 143.883 58.5499 143.849 58.5967 143.826C58.6436 143.803 58.6953 143.791 58.7476 143.792C58.7989 143.791 58.8492 143.806 58.8922 143.834C58.9351 143.862 58.9686 143.902 58.9884 143.949C59.0143 144.006 59.023 144.07 59.0135 144.132C59.004 144.194 58.9767 144.252 58.9349 144.299C58.5949 144.764 58.224 145.278 57.822 145.841C57.4329 146.39 57.0124 146.915 56.5628 147.415C56.1657 147.86 55.7301 148.268 55.261 148.635C54.8308 148.967 54.4194 149.133 54.0269 149.133C53.8888 149.117 53.7559 149.071 53.6381 148.997C53.4558 148.901 53.2848 148.784 53.1281 148.649C52.9599 148.509 52.8112 148.346 52.6858 148.166C52.5715 148.02 52.5055 147.842 52.4969 147.656C52.5123 147.331 52.5853 147.011 52.7126 146.712C52.8558 146.336 52.9975 145.951 53.1423 145.558C52.8191 146.007 52.4723 146.447 52.1019 146.877C51.7598 147.28 51.3917 147.661 51 148.017C50.6675 148.323 50.3034 148.593 49.9139 148.823C49.6248 149.009 49.2924 149.117 48.949 149.137C48.7624 149.135 48.5823 149.068 48.439 148.948C48.2713 148.815 48.1262 148.656 48.0093 148.476C47.8797 148.284 47.774 148.077 47.6944 147.859C47.618 147.658 47.577 147.445 47.5732 147.23C47.6007 146.856 47.7013 146.491 47.8692 146.156C48.0962 145.65 48.3592 145.162 48.6562 144.694C48.9868 144.169 49.354 143.637 49.7581 143.098C50.1395 142.586 50.5516 142.097 50.9921 141.635C51.3689 141.24 51.7827 140.881 52.2278 140.565C52.6213 140.288 52.9613 140.149 53.2478 140.149C53.6342 140.151 54.0137 140.253 54.3496 140.444C54.7047 140.638 55.0302 140.883 55.3161 141.169C55.5908 141.441 55.8338 141.742 56.0402 142.068C56.2089 142.318 56.3359 142.594 56.4164 142.885C56.415 142.9 56.4166 142.914 56.4212 142.928C56.4258 142.942 56.4333 142.955 56.4431 142.965V143.047C56.405 143.284 56.3329 143.514 56.2291 143.73C56.0843 144.08 55.9284 144.455 55.7569 144.857C55.5853 145.26 55.431 145.645 55.2846 146.025C55.1714 146.281 55.0992 146.552 55.0706 146.83C55.0706 146.954 55.1241 147.017 55.228 147.017C55.473 147.006 55.7079 146.916 55.8985 146.762C56.1674 146.56 56.4185 146.336 56.6494 146.092C56.9185 145.815 57.2034 145.489 57.5088 145.112C57.8142 144.736 58.1384 144.343 58.4784 143.926ZM50.4034 147.038C50.4743 147.038 50.6317 146.931 50.8756 146.723C51.1196 146.515 51.3951 146.235 51.7083 145.904C52.0216 145.574 52.3474 145.215 52.6874 144.831C53.0274 144.447 53.3438 144.075 53.6397 143.718C53.9356 143.361 54.1765 143.043 54.3638 142.773C54.5511 142.504 54.6456 142.312 54.6456 142.222C54.6436 142.073 54.6069 141.926 54.5385 141.793C54.4982 141.721 54.4398 141.661 54.3691 141.619C54.2984 141.576 54.2179 141.553 54.1356 141.552C53.9923 141.552 53.7956 141.656 53.5453 141.867C53.2551 142.11 52.9817 142.373 52.7268 142.654C52.4124 143 52.1171 143.362 51.8421 143.74C51.5462 144.143 51.2776 144.536 51.0362 144.92C50.8151 145.269 50.6179 145.633 50.4459 146.008C50.3212 146.25 50.2442 146.514 50.2193 146.786C50.213 146.948 50.2775 147.038 50.4034 147.038Z" fill="white"/>
<path d="M72.5363 143.925C72.5638 143.886 72.5999 143.854 72.642 143.83C72.684 143.807 72.7307 143.794 72.7787 143.792C72.8315 143.792 72.8834 143.807 72.9284 143.834C72.9734 143.862 73.0098 143.902 73.0337 143.949C73.0637 144.004 73.0759 144.068 73.0686 144.13C73.0613 144.193 73.0348 144.252 72.9927 144.298C72.9754 144.335 72.8763 144.481 72.6984 144.741C72.5205 145.001 72.2954 145.309 72.0262 145.666C71.7571 146.024 71.4596 146.405 71.1275 146.806C70.7953 147.207 70.4569 147.593 70.109 147.933C69.792 148.256 69.4411 148.544 69.0623 148.792C68.7913 148.989 68.4706 149.105 68.1367 149.128C67.9852 149.115 67.8384 149.069 67.707 148.992C67.5214 148.899 67.3462 148.787 67.1844 148.657C67.0141 148.523 66.865 148.364 66.7421 148.185C66.6242 148.03 66.5581 147.842 66.5532 147.648C66.5532 147.345 66.6739 146.844 66.9152 146.146C67.1566 145.449 67.4294 144.724 67.7338 143.973C68.0738 143.097 68.4673 142.159 68.9143 141.157C68.5214 141.437 68.1655 141.766 67.855 142.136C67.4887 142.555 67.1214 143.02 66.7531 143.53C66.3848 144.04 66.0317 144.565 65.6938 145.104C65.3538 145.641 65.05 146.146 64.7824 146.62C64.5148 147.095 64.2955 147.52 64.1244 147.895C63.996 148.154 63.8906 148.423 63.8096 148.7C63.7889 148.778 63.7799 148.859 63.7828 148.94C63.7828 149.066 63.7026 149.129 63.5404 149.129C63.3722 149.118 63.2081 149.072 63.0588 148.994C62.8587 148.904 62.6696 148.792 62.4952 148.659C62.3183 148.527 62.1641 148.368 62.0388 148.186C61.9244 148.03 61.8622 147.842 61.8609 147.648C61.8609 147.344 61.9805 146.844 62.2229 146.146C62.4653 145.449 62.7361 144.73 63.0414 143.973C63.3793 143.097 63.7729 142.159 64.222 141.157C63.6423 141.591 63.1271 142.106 62.692 142.685C62.1558 143.365 61.6463 144.081 61.1636 144.832C60.6809 145.583 60.2611 146.299 59.9043 146.978C59.6334 147.473 59.3916 147.984 59.1802 148.508C59.1472 148.584 59.1291 148.665 59.1267 148.748V148.936C59.1267 149.062 59.0464 149.125 58.8859 149.125C58.7171 149.114 58.5525 149.068 58.4026 148.989C58.1996 148.897 58.0066 148.785 57.8265 148.654C57.6429 148.525 57.4831 148.365 57.3543 148.182C57.2376 148.027 57.1721 147.839 57.167 147.645C57.1881 147.322 57.256 147.004 57.3685 146.7C57.5023 146.288 57.6675 145.833 57.8643 145.333C58.0611 144.832 58.2799 144.313 58.5223 143.776C58.7647 143.239 58.9819 142.734 59.1787 142.26C59.3754 141.786 59.5407 141.374 59.6761 141.026C59.7775 140.8 59.8449 140.56 59.876 140.314C59.876 140.19 59.9311 140.127 60.0334 140.127C60.195 140.149 60.3478 140.213 60.4757 140.314C60.6708 140.446 60.8545 140.594 61.025 140.757C61.1985 140.921 61.3566 141.101 61.4973 141.294C61.6129 141.435 61.6826 141.609 61.6972 141.791C61.6728 141.906 61.637 142.018 61.5901 142.126C61.5193 142.314 61.4201 142.559 61.2958 142.863C61.6169 142.488 61.9385 142.135 62.2607 141.804C62.5755 141.473 62.8903 141.183 63.1863 140.932C63.4439 140.708 63.7228 140.51 64.0189 140.341C64.2169 140.217 64.4423 140.144 64.6753 140.127C64.8434 140.14 65.0057 140.194 65.1475 140.285C65.3496 140.403 65.5385 140.542 65.7111 140.7C65.8925 140.864 66.0541 141.049 66.1927 141.251C66.3125 141.406 66.3828 141.593 66.3942 141.788C66.3817 141.927 66.3455 142.062 66.2872 142.189C66.2148 142.369 66.1167 142.592 65.9928 142.86C66.3139 142.485 66.6356 142.132 66.9577 141.8C67.2804 141.47 67.5874 141.18 67.8833 140.928C68.1407 140.705 68.419 140.508 68.7144 140.338C68.9129 140.214 69.1388 140.14 69.3724 140.124C69.5404 140.136 69.7028 140.19 69.8446 140.281C70.0472 140.399 70.2362 140.538 70.4081 140.697C70.5904 140.861 70.7527 141.046 70.8913 141.248C71.0105 141.403 71.0806 141.59 71.0928 141.785C71.0618 141.933 71.0121 142.077 70.9449 142.213L70.5828 143.072C70.4401 143.412 70.279 143.774 70.0996 144.158C69.9201 144.544 69.7596 144.909 69.6163 145.26C69.4731 145.611 69.3535 145.921 69.2543 146.205C69.1788 146.389 69.1295 146.584 69.1079 146.782C69.1079 146.926 69.1614 146.996 69.2653 146.996C69.4752 146.996 69.7522 146.853 70.0964 146.567C70.4566 146.262 70.7972 145.935 71.1164 145.588C71.4564 145.222 71.7602 144.874 72.0278 144.542C72.2954 144.211 72.4649 144.005 72.5363 143.925Z" fill="white"/>
<path d="M80.5578 143.925C80.5854 143.886 80.6215 143.854 80.6635 143.83C80.7056 143.807 80.7523 143.794 80.8003 143.792C80.8531 143.792 80.905 143.806 80.95 143.834C80.995 143.862 81.0314 143.902 81.0552 143.949C81.0853 144.004 81.0975 144.068 81.0902 144.13C81.0828 144.193 81.0563 144.251 81.0143 144.298C80.4725 145.187 79.7881 145.98 78.9885 146.645C78.2455 147.246 77.5078 147.572 76.7753 147.624C76.4026 148.038 75.9796 148.403 75.5161 148.712C75.1456 148.97 74.708 149.114 74.2568 149.128C73.9679 149.117 73.6864 149.034 73.4383 148.885C73.132 148.716 72.8516 148.504 72.6056 148.256C72.3433 147.99 72.122 147.687 71.9492 147.357C71.7734 147.026 71.6815 146.658 71.6816 146.283C71.6946 145.882 71.7805 145.487 71.9351 145.117C72.1076 144.674 72.3183 144.248 72.5647 143.842C72.7971 143.455 73.0665 143.091 73.369 142.756C73.5806 142.499 73.8468 142.292 74.1482 142.151C74.4123 141.633 74.7662 141.165 75.1934 140.769C75.6404 140.35 76.1127 140.14 76.6101 140.14C76.9079 140.148 77.1972 140.241 77.4443 140.407C77.7381 140.593 78.0006 140.824 78.2219 141.092C78.4598 141.377 78.6545 141.695 78.7996 142.036C78.9494 142.384 79.0271 142.759 79.0278 143.138C79.0025 143.613 78.8927 144.079 78.7036 144.516C78.475 145.098 78.1875 145.655 77.8457 146.179C78.359 146.026 78.8248 145.744 79.1994 145.361C79.648 144.941 80.0919 144.462 80.5578 143.925ZM73.9578 147.601C74.1739 147.601 74.4782 147.404 74.8707 147.01C74.82 146.882 74.7928 146.746 74.7904 146.608C74.7904 146.25 74.9053 145.995 75.1383 145.844C75.3782 145.689 75.6589 145.61 75.9442 145.616C76.3483 144.984 76.6894 144.315 76.9627 143.617C77.2333 142.968 77.3791 142.274 77.3924 141.57C77.3945 141.471 77.3665 141.372 77.3121 141.289C77.2814 141.247 77.2404 141.214 77.1933 141.193C77.1461 141.173 77.0943 141.164 77.0429 141.169C76.8719 141.172 76.7051 141.223 76.5613 141.315C76.3908 141.422 76.237 141.553 76.1048 141.704C75.9603 141.867 75.8302 142.043 75.716 142.228C75.61 142.396 75.5159 142.571 75.4342 142.751C75.6195 142.952 75.761 143.19 75.8498 143.448C75.9127 143.664 75.8356 143.771 75.6215 143.771C75.3752 143.792 75.1431 143.895 74.9636 144.065C74.6986 144.29 74.4684 144.553 74.2804 144.845C74.0558 145.184 73.871 145.549 73.7295 145.931C73.5826 146.311 73.5058 146.716 73.5028 147.124C73.4968 147.247 73.5293 147.369 73.5957 147.473C73.6414 147.522 73.6981 147.559 73.7611 147.581C73.8242 147.604 73.8916 147.61 73.9578 147.601Z" fill="white"/>
<path d="M86.574 143.925C86.6008 143.886 86.6365 143.853 86.6784 143.83C86.7202 143.806 86.767 143.793 86.8149 143.792C86.8678 143.792 86.9197 143.806 86.9647 143.834C87.0098 143.862 87.0462 143.902 87.0699 143.949C87.1006 144.004 87.1133 144.067 87.1062 144.13C87.0992 144.193 87.0727 144.252 87.0305 144.298C86.3327 145.442 85.5456 146.31 84.6694 146.9C84.5735 147.252 84.3991 147.578 84.1594 147.853C83.9082 148.148 83.6199 148.409 83.3015 148.63C82.9941 148.847 82.6604 149.023 82.3083 149.154C82.0001 149.273 81.6735 149.336 81.3434 149.342C81.1338 149.335 80.928 149.285 80.7389 149.194C80.5151 149.096 80.3071 148.965 80.1219 148.805C79.9385 148.651 79.7793 148.47 79.6497 148.268C79.5308 148.094 79.4652 147.889 79.4608 147.678C79.4548 147.613 79.4639 147.548 79.4874 147.488C79.5109 147.428 79.5481 147.374 79.5962 147.33C79.67 147.264 79.7647 147.226 79.8637 147.223C79.9245 147.22 79.9849 147.234 80.0385 147.262C80.0825 147.289 80.1232 147.321 80.1597 147.357C80.1974 147.395 80.2374 147.431 80.2793 147.464C80.3384 147.504 80.4095 147.523 80.4808 147.517C80.5532 147.517 80.7405 147.5 81.0443 147.464C81.3673 147.421 81.6778 147.311 81.9557 147.141C81.8851 147.071 81.8296 146.987 81.7928 146.895C81.7559 146.803 81.7385 146.704 81.7416 146.604C81.7441 146.399 81.8268 146.203 81.9721 146.057C82.1174 145.912 82.3137 145.829 82.5192 145.827C82.5489 145.825 82.5782 145.835 82.6011 145.854C82.5822 145.55 82.5328 145.139 82.4531 144.62C82.3733 144.1 82.2883 143.492 82.1981 142.795C81.9481 143.067 81.7152 143.354 81.5008 143.655L81.0175 144.298C80.99 144.338 80.9538 144.37 80.9118 144.393C80.8698 144.417 80.8231 144.43 80.7751 144.432C80.7224 144.432 80.6707 144.418 80.6259 144.39C80.5811 144.362 80.545 144.322 80.5217 144.275C80.491 144.22 80.4783 144.156 80.4853 144.094C80.4924 144.031 80.5189 143.972 80.5611 143.925L80.9908 143.362C81.1881 143.059 81.367 142.755 81.5275 142.45C81.6755 142.17 81.8008 141.879 81.9022 141.578C82.0027 141.299 82.0559 141.004 82.0596 140.706V140.277C82.0552 140.082 82.091 139.889 82.1647 139.709C82.2383 139.529 82.3483 139.366 82.4877 139.23C82.7742 138.945 83.0418 138.802 83.2936 138.802C83.4585 138.802 83.6208 138.843 83.7659 138.921C83.9084 138.996 84.0393 139.091 84.1547 139.203C84.2521 139.296 84.326 139.411 84.3703 139.538C84.3898 139.593 84.3924 139.652 84.3778 139.708C84.3632 139.765 84.3321 139.815 84.2885 139.853C84.1452 140.011 83.9847 140.189 83.8052 140.377C83.6258 140.566 83.5376 140.85 83.5376 141.249C83.5379 141.648 83.5876 142.044 83.6856 142.43C83.7832 142.824 83.895 143.212 84.0209 143.596C84.1452 143.982 84.2711 144.357 84.3971 144.723C84.5184 145.077 84.608 145.44 84.6647 145.81C85.0092 145.573 85.3261 145.298 85.6091 144.991C85.9271 144.656 86.2487 144.301 86.574 143.925Z" fill="white"/>
<path d="M93.5427 149.131C93.3264 149.115 93.1139 149.065 92.9131 148.983C92.6129 148.874 92.3286 148.725 92.0678 148.541C91.7763 148.339 91.5258 148.084 91.3296 147.788C91.1206 147.48 91.0108 147.116 91.0148 146.743C91.0148 146.206 91.1758 145.557 91.498 144.798C91.8204 144.037 92.2158 143.309 92.6786 142.624C93.1057 141.979 93.61 141.389 94.1802 140.867C94.7164 140.384 95.1997 140.143 95.6299 140.143C95.9607 140.142 96.2886 140.205 96.5948 140.33C96.8774 140.445 97.1424 140.598 97.3819 140.787C97.59 140.949 97.7712 141.144 97.9186 141.363C98.0332 141.516 98.103 141.697 98.1201 141.887C98.1114 142.157 98.0471 142.421 97.9312 142.665C97.8093 142.946 97.6612 143.215 97.4889 143.469C97.3393 143.695 97.1685 143.906 96.9789 144.099C96.8089 144.269 96.6704 144.354 96.5634 144.354C96.4243 144.355 96.2884 144.312 96.1746 144.233C96.0685 144.162 95.9735 144.076 95.8928 143.978C95.8289 143.908 95.795 143.817 95.7984 143.723C95.8078 143.642 95.866 143.603 95.9731 143.603C96.0801 143.603 96.2281 143.494 96.417 143.288C96.6075 143.07 96.7665 142.826 96.8892 142.564C97.0016 142.336 97.0785 142.091 97.1174 141.84C97.1442 141.624 97.0498 141.525 96.8357 141.525C96.6216 141.525 96.2942 141.7 95.9101 142.049C95.4813 142.449 95.1028 142.899 94.7831 143.39C94.4001 143.966 94.0808 144.582 93.8308 145.227C93.5698 145.867 93.4331 146.55 93.4278 147.241C93.4278 147.597 93.5978 147.776 93.9378 147.776C94.4037 147.767 94.8602 147.642 95.2663 147.414C95.7523 147.152 96.2106 146.842 96.6342 146.488C97.1008 146.104 97.54 145.687 97.9485 145.242C98.3683 144.785 98.7482 144.351 99.0882 143.94C99.1194 143.898 99.16 143.864 99.2068 143.841C99.2535 143.817 99.3051 143.806 99.3573 143.806C99.4086 143.805 99.459 143.82 99.5019 143.848C99.5448 143.876 99.5784 143.916 99.5982 143.963C99.624 144.021 99.6327 144.084 99.6232 144.146C99.6137 144.208 99.5864 144.266 99.5447 144.313C99.2047 144.778 98.8159 145.292 98.3783 145.855C97.9462 146.415 97.4727 146.941 96.9616 147.429C96.468 147.901 95.9188 148.311 95.3261 148.649C94.7844 148.964 94.1692 149.13 93.5427 149.131Z" fill="white"/>
<path d="M107.117 143.925C107.145 143.886 107.181 143.854 107.223 143.83C107.265 143.807 107.312 143.794 107.36 143.792C107.413 143.792 107.465 143.806 107.51 143.834C107.555 143.862 107.591 143.902 107.615 143.949C107.645 144.004 107.657 144.068 107.65 144.13C107.642 144.193 107.616 144.251 107.574 144.298C107.033 145.187 106.348 145.98 105.548 146.645C104.807 147.246 104.069 147.572 103.335 147.624C102.963 148.038 102.539 148.404 102.076 148.712C101.705 148.97 101.268 149.114 100.816 149.128C100.528 149.117 100.246 149.033 99.9979 148.885C99.6918 148.717 99.4119 148.505 99.1668 148.256C98.9034 147.991 98.6816 147.688 98.5088 147.357C98.333 147.026 98.2411 146.658 98.2412 146.283C98.2541 145.882 98.3405 145.487 98.4962 145.117C98.6681 144.674 98.8788 144.247 99.1258 143.842C99.3588 143.455 99.6287 143.091 99.9318 142.756C100.142 142.499 100.408 142.292 100.709 142.151C100.974 141.632 101.328 141.164 101.756 140.769C102.203 140.35 102.675 140.14 103.173 140.14C103.47 140.149 103.758 140.241 104.004 140.407C104.301 140.593 104.566 140.824 104.791 141.092C105.028 141.377 105.222 141.695 105.367 142.036C105.518 142.384 105.595 142.759 105.595 143.138C105.573 143.609 105.466 144.073 105.28 144.506C105.052 145.088 104.764 145.646 104.423 146.17C104.936 146.016 105.402 145.734 105.778 145.351C106.206 144.937 106.653 144.462 107.117 143.925ZM100.517 147.601C100.732 147.601 101.037 147.404 101.43 147.01C101.38 146.882 101.352 146.746 101.35 146.608C101.35 146.251 101.466 145.996 101.699 145.844C101.939 145.69 102.219 145.61 102.504 145.616C102.909 144.985 103.25 144.315 103.522 143.617C103.793 142.968 103.939 142.274 103.952 141.57C103.954 141.471 103.926 141.372 103.872 141.289C103.841 141.247 103.801 141.215 103.754 141.194C103.707 141.173 103.655 141.164 103.604 141.169C103.433 141.172 103.265 141.223 103.121 141.315C102.951 141.422 102.797 141.553 102.664 141.704C102.52 141.868 102.39 142.043 102.276 142.228C102.17 142.396 102.075 142.571 101.994 142.751C102.179 142.952 102.321 143.19 102.409 143.448C102.472 143.664 102.397 143.771 102.181 143.771C101.937 143.79 101.707 143.892 101.528 144.059C101.262 144.284 101.032 144.546 100.843 144.838C100.619 145.178 100.435 145.542 100.294 145.924C100.146 146.305 100.068 146.709 100.066 147.118C100.06 147.241 100.092 147.363 100.158 147.467C100.203 147.516 100.259 147.554 100.322 147.578C100.384 147.601 100.451 147.609 100.517 147.601Z" fill="white"/>
<path d="M116.455 143.925C116.485 143.884 116.526 143.849 116.572 143.826C116.619 143.803 116.67 143.791 116.722 143.792C116.774 143.791 116.824 143.806 116.867 143.834C116.91 143.862 116.944 143.902 116.965 143.949C116.99 144.006 116.999 144.07 116.989 144.132C116.98 144.194 116.953 144.251 116.911 144.299C116.892 144.335 116.795 144.481 116.615 144.741C116.436 145.001 116.217 145.304 115.959 145.654C115.701 146.003 115.403 146.378 115.073 146.779C114.752 147.172 114.411 147.548 114.053 147.906C113.739 148.227 113.393 148.515 113.02 148.766C112.755 148.963 112.438 149.079 112.109 149.101C111.953 149.087 111.802 149.041 111.665 148.966C111.474 148.875 111.294 148.763 111.13 148.63C110.959 148.496 110.809 148.337 110.686 148.158C110.569 148.003 110.503 147.815 110.498 147.621C110.498 147.318 110.619 146.818 110.86 146.12C111.102 145.422 111.375 144.697 111.679 143.946C112.019 143.071 112.412 142.132 112.859 141.13C112.279 141.564 111.764 142.079 111.329 142.658C110.794 143.338 110.285 144.053 109.801 144.804C109.317 145.554 108.897 146.27 108.542 146.951C108.27 147.446 108.028 147.957 107.818 148.481C107.799 148.571 107.786 148.651 107.777 148.722C107.768 148.784 107.764 148.846 107.764 148.909C107.764 149.035 107.682 149.098 107.522 149.098C107.353 149.086 107.189 149.04 107.038 148.962C106.835 148.871 106.642 148.758 106.462 148.627C106.279 148.499 106.119 148.339 105.99 148.155C105.872 148 105.806 147.813 105.801 147.618C105.822 147.295 105.89 146.977 106.003 146.674C106.137 146.261 106.308 145.806 106.513 145.304C106.717 144.802 106.938 144.286 107.169 143.749L107.824 142.249C108.03 141.777 108.2 141.363 108.334 141.015C108.436 140.789 108.504 140.549 108.535 140.304C108.535 140.179 108.589 140.116 108.693 140.116C108.854 140.138 109.007 140.202 109.135 140.304C109.331 140.435 109.515 140.583 109.686 140.746C109.857 140.908 110.009 141.088 110.141 141.283C110.251 141.426 110.316 141.598 110.33 141.778C110.33 141.883 110.204 142.241 109.954 142.852C110.257 142.477 110.572 142.124 110.898 141.793C111.224 141.461 111.533 141.17 111.824 140.921C112.08 140.697 112.359 140.499 112.655 140.33C112.853 140.206 113.079 140.133 113.313 140.116C113.483 140.13 113.649 140.184 113.794 140.274C114 140.387 114.189 140.526 114.358 140.689C114.534 140.856 114.693 141.04 114.83 141.24C114.949 141.395 115.018 141.581 115.03 141.775C115 141.924 114.951 142.069 114.884 142.205C114.784 142.438 114.663 142.724 114.522 143.064C114.38 143.404 114.223 143.766 114.049 144.151C113.879 144.535 113.722 144.902 113.577 145.252C113.432 145.603 113.312 145.918 113.215 146.197C113.139 146.381 113.089 146.576 113.067 146.775C113.067 146.918 113.111 146.989 113.201 146.989C113.417 146.989 113.695 146.845 114.034 146.559C114.389 146.259 114.725 145.937 115.04 145.594C115.37 145.237 115.67 144.893 115.938 144.561L116.455 143.925Z" fill="white"/>
<path d="M131.103 143.926C131.134 143.884 131.174 143.85 131.221 143.826C131.267 143.803 131.319 143.791 131.371 143.792C131.422 143.791 131.473 143.805 131.516 143.833C131.559 143.862 131.593 143.902 131.613 143.949C131.638 144.007 131.647 144.07 131.637 144.132C131.628 144.194 131.601 144.252 131.559 144.299C131.219 144.764 130.848 145.278 130.445 145.841C130.057 146.391 129.636 146.916 129.186 147.415C128.789 147.86 128.353 148.268 127.884 148.635C127.456 148.967 127.043 149.133 126.652 149.133C126.513 149.118 126.379 149.071 126.261 148.997C126.079 148.901 125.908 148.784 125.751 148.649C125.583 148.508 125.435 148.346 125.309 148.166C125.196 148.019 125.13 147.841 125.122 147.656C125.136 147.331 125.209 147.011 125.336 146.712C125.479 146.336 125.623 145.952 125.765 145.558C125.444 146.005 125.1 146.443 124.733 146.872C124.391 147.276 124.023 147.657 123.631 148.012C123.298 148.318 122.934 148.588 122.545 148.818C122.255 149.004 121.922 149.113 121.578 149.133C121.392 149.13 121.212 149.063 121.068 148.944C120.901 148.811 120.756 148.651 120.64 148.472C120.51 148.28 120.404 148.073 120.325 147.855C120.249 147.653 120.208 147.44 120.204 147.225C120.232 146.851 120.332 146.487 120.498 146.151C120.726 145.646 120.989 145.157 121.285 144.689C121.616 144.164 121.983 143.632 122.387 143.093C122.769 142.581 123.181 142.093 123.621 141.631C123.993 141.234 124.402 140.875 124.843 140.557C125.235 140.28 125.575 140.142 125.861 140.142C126.248 140.144 126.627 140.245 126.963 140.436C127.318 140.631 127.643 140.875 127.93 141.162C128.204 141.433 128.447 141.735 128.654 142.06C128.822 142.311 128.949 142.587 129.028 142.877C129.027 142.892 129.029 142.906 129.034 142.92C129.038 142.934 129.046 142.947 129.055 142.958V143.039C129.018 143.276 128.946 143.507 128.841 143.723C128.698 144.072 128.542 144.447 128.369 144.85C128.196 145.253 128.041 145.637 127.897 146.018C127.783 146.273 127.71 146.544 127.681 146.822C127.681 146.946 127.734 147.009 127.838 147.009C128.084 146.998 128.319 146.909 128.51 146.754C128.779 146.552 129.03 146.327 129.261 146.084C129.529 145.807 129.815 145.48 130.119 145.105C130.44 144.73 130.763 144.343 131.103 143.926ZM123.026 147.038C123.099 147.038 123.255 146.931 123.499 146.723C123.743 146.515 124.017 146.235 124.33 145.904C124.643 145.574 124.969 145.215 125.309 144.831C125.649 144.447 125.967 144.075 126.253 143.718C126.54 143.361 126.79 143.043 126.979 142.773C127.168 142.504 127.259 142.312 127.259 142.223C127.258 142.073 127.221 141.926 127.152 141.793C127.113 141.72 127.055 141.66 126.984 141.617C126.914 141.575 126.833 141.552 126.751 141.552C126.607 141.552 126.411 141.656 126.16 141.867C125.87 142.11 125.596 142.373 125.342 142.654C125.027 143 124.731 143.362 124.456 143.74C124.161 144.143 123.893 144.536 123.651 144.92C123.43 145.269 123.233 145.633 123.061 146.008C122.935 146.25 122.858 146.514 122.833 146.786C122.839 146.948 122.902 147.038 123.026 147.038Z" fill="white"/>
<path d="M145.161 143.925C145.188 143.886 145.224 143.853 145.265 143.83C145.307 143.806 145.354 143.793 145.402 143.792C145.455 143.792 145.507 143.806 145.552 143.834C145.597 143.862 145.633 143.902 145.657 143.949C145.687 144.004 145.7 144.067 145.693 144.13C145.686 144.192 145.659 144.251 145.618 144.298C145.599 144.335 145.5 144.481 145.322 144.741C145.144 145 144.919 145.309 144.651 145.666C144.383 146.024 144.083 146.404 143.752 146.806C143.431 147.198 143.091 147.575 142.732 147.933C142.416 148.257 142.065 148.545 141.686 148.792C141.415 148.989 141.095 149.105 140.762 149.128C140.61 149.115 140.463 149.069 140.332 148.992C140.146 148.9 139.97 148.787 139.808 148.657C139.637 148.523 139.488 148.363 139.365 148.185C139.249 148.03 139.183 147.842 139.178 147.648C139.178 147.345 139.299 146.844 139.54 146.146C139.781 145.448 140.054 144.724 140.359 143.973C140.699 143.097 141.092 142.159 141.539 141.157C141.146 141.437 140.79 141.766 140.48 142.136C140.111 142.555 139.744 143.02 139.378 143.53C139.012 144.04 138.658 144.565 138.317 145.104C137.977 145.641 137.673 146.146 137.406 146.62C137.138 147.094 136.919 147.519 136.748 147.895C136.619 148.153 136.514 148.423 136.433 148.699C136.412 148.778 136.403 148.859 136.406 148.94C136.406 149.066 136.326 149.129 136.165 149.129C135.996 149.118 135.832 149.072 135.682 148.994C135.482 148.904 135.293 148.791 135.118 148.659C134.942 148.527 134.788 148.367 134.662 148.186C134.545 148.031 134.48 147.844 134.475 147.65C134.475 147.346 134.595 146.846 134.837 146.148C135.078 145.45 135.351 144.725 135.655 143.974C135.995 143.099 136.389 142.16 136.836 141.158C136.256 141.593 135.741 142.107 135.306 142.687C134.771 143.367 134.261 144.082 133.777 144.834C133.294 145.585 132.874 146.3 132.518 146.979C132.247 147.474 132.005 147.985 131.794 148.509C131.764 148.586 131.749 148.667 131.75 148.75V148.937C131.75 149.063 131.668 149.126 131.508 149.126C131.339 149.115 131.175 149.069 131.026 148.991C130.822 148.899 130.629 148.787 130.448 148.655C130.264 148.527 130.105 148.367 129.976 148.183C129.858 148.029 129.792 147.841 129.787 147.646C129.808 147.324 129.876 147.005 129.989 146.702C130.122 146.29 130.289 145.835 130.484 145.334C130.68 144.834 130.902 144.314 131.142 143.777C131.383 143.241 131.602 142.735 131.8 142.262C131.999 141.788 132.162 141.375 132.296 141.027C132.398 140.801 132.466 140.562 132.498 140.316C132.498 140.192 132.551 140.129 132.655 140.129C132.817 140.15 132.969 140.215 133.097 140.316C133.293 140.448 133.477 140.596 133.648 140.758C133.822 140.922 133.98 141.102 134.121 141.295C134.237 141.437 134.307 141.61 134.322 141.792C134.298 141.907 134.262 142.02 134.215 142.128C134.143 142.315 134.045 142.561 133.919 142.864C134.242 142.49 134.564 142.137 134.886 141.805C135.2 141.474 135.515 141.185 135.811 140.933C136.068 140.709 136.346 140.511 136.642 140.343C136.841 140.219 137.067 140.145 137.3 140.129C137.468 140.141 137.631 140.195 137.772 140.286C137.975 140.404 138.164 140.543 138.336 140.702C138.518 140.866 138.68 141.051 138.819 141.253C138.938 141.407 139.008 141.594 139.021 141.789C139.008 141.928 138.971 142.064 138.912 142.191C138.841 142.37 138.742 142.594 138.618 142.861C138.94 142.487 139.262 142.133 139.584 141.802C139.899 141.471 140.214 141.182 140.51 140.93C140.767 140.706 141.045 140.508 141.341 140.34C141.539 140.215 141.765 140.142 141.999 140.125C142.167 140.138 142.329 140.192 142.471 140.283C142.673 140.401 142.862 140.54 143.035 140.698C143.216 140.863 143.378 141.048 143.516 141.249C143.636 141.404 143.706 141.591 143.718 141.786C143.688 141.935 143.638 142.078 143.571 142.214L143.208 143.074C143.064 143.414 142.903 143.776 142.726 144.16C142.547 144.545 142.386 144.911 142.243 145.262C142.1 145.613 141.978 145.923 141.881 146.206C141.804 146.391 141.754 146.585 141.733 146.784C141.733 146.927 141.786 146.998 141.89 146.998C142.105 146.998 142.383 146.855 142.723 146.568C143.082 146.263 143.422 145.936 143.741 145.589C144.081 145.224 144.386 144.876 144.654 144.544L145.161 143.925Z" fill="white"/>
<path d="M153.182 143.925C153.209 143.886 153.245 143.853 153.287 143.83C153.329 143.806 153.375 143.793 153.423 143.792C153.476 143.792 153.528 143.806 153.573 143.834C153.618 143.862 153.654 143.902 153.678 143.949C153.709 144.004 153.721 144.067 153.714 144.13C153.707 144.192 153.681 144.251 153.639 144.298C153.097 145.187 152.413 145.98 151.613 146.645C150.87 147.246 150.132 147.572 149.398 147.624C149.026 148.038 148.603 148.404 148.139 148.712C147.769 148.97 147.331 149.115 146.88 149.128C146.591 149.117 146.309 149.033 146.061 148.885C145.756 148.716 145.476 148.504 145.23 148.256C144.967 147.991 144.745 147.688 144.572 147.357C144.396 147.026 144.305 146.658 144.305 146.283C144.318 145.882 144.404 145.487 144.56 145.117C144.732 144.674 144.942 144.248 145.189 143.842C145.422 143.455 145.691 143.091 145.994 142.756C146.205 142.499 146.47 142.293 146.771 142.151C147.036 141.633 147.39 141.165 147.818 140.769C148.265 140.35 148.737 140.14 149.235 140.14C149.532 140.148 149.821 140.241 150.067 140.407C150.361 140.594 150.623 140.825 150.845 141.092C151.083 141.376 151.277 141.695 151.421 142.036C151.572 142.384 151.649 142.759 151.649 143.138C151.626 143.609 151.519 144.072 151.334 144.506C151.105 145.088 150.817 145.646 150.475 146.17C150.989 146.017 151.455 145.735 151.83 145.351C152.266 144.937 152.717 144.462 153.182 143.925ZM146.582 147.601C146.792 147.601 147.096 147.404 147.494 147.01C147.443 146.882 147.416 146.746 147.413 146.608C147.413 146.251 147.53 145.996 147.763 145.844C148.002 145.69 148.282 145.61 148.567 145.616C148.973 144.985 149.314 144.315 149.587 143.617C149.857 142.968 150.003 142.273 150.017 141.57C150.019 141.47 149.991 141.372 149.935 141.289C149.905 141.247 149.864 141.215 149.817 141.194C149.77 141.173 149.719 141.164 149.668 141.169C149.496 141.172 149.329 141.223 149.184 141.315C149.014 141.422 148.86 141.553 148.728 141.704C148.584 141.868 148.454 142.043 148.339 142.228C148.234 142.396 148.14 142.571 148.057 142.751C148.244 142.952 148.386 143.189 148.474 143.448C148.536 143.664 148.46 143.771 148.246 143.771C148 143.791 147.768 143.895 147.588 144.065C147.323 144.29 147.092 144.553 146.903 144.845C146.679 145.184 146.495 145.549 146.354 145.931C146.206 146.311 146.129 146.716 146.126 147.124C146.12 147.247 146.153 147.369 146.22 147.473C146.266 147.522 146.323 147.559 146.386 147.582C146.449 147.604 146.516 147.61 146.582 147.601Z" fill="white"/>
<path d="M160.371 143.925C160.403 143.884 160.443 143.85 160.49 143.826C160.537 143.803 160.588 143.791 160.641 143.792C160.692 143.791 160.742 143.805 160.785 143.833C160.828 143.862 160.862 143.902 160.881 143.949C160.907 144.006 160.916 144.07 160.906 144.132C160.897 144.194 160.87 144.252 160.828 144.299C160.811 144.335 160.711 144.481 160.534 144.741C160.356 145.001 160.131 145.309 159.863 145.666C159.595 146.024 159.295 146.405 158.964 146.806C158.634 147.207 158.292 147.593 157.944 147.933C157.63 148.254 157.284 148.542 156.912 148.793C156.646 148.99 156.329 149.106 155.999 149.128C155.843 149.114 155.692 149.068 155.556 148.992C155.365 148.902 155.185 148.789 155.02 148.657C154.849 148.523 154.7 148.364 154.577 148.185C154.46 148.03 154.394 147.842 154.39 147.648C154.39 147.344 154.51 146.844 154.752 146.147C154.994 145.449 155.265 144.73 155.569 143.973C155.909 143.098 156.302 142.159 156.749 141.157L156.858 140.941C156.768 140.96 156.669 140.977 156.562 140.995C156.333 141.062 156.1 141.115 155.865 141.152L155.596 141.541C155.454 141.745 155.281 142 155.06 142.306C154.84 142.611 154.613 142.935 154.363 143.283C154.113 143.631 153.861 143.968 153.611 144.291C153.584 144.33 153.548 144.363 153.506 144.386C153.465 144.41 153.418 144.423 153.37 144.424C153.311 144.423 153.254 144.405 153.206 144.371C153.158 144.337 153.122 144.289 153.101 144.234C153.081 144.179 153.078 144.118 153.092 144.061C153.107 144.005 153.138 143.953 153.183 143.914L154.04 142.787C154.201 142.556 154.38 142.301 154.577 142.024C154.774 141.745 154.944 141.483 155.087 141.237H154.711C154.46 141.237 154.223 141.094 154 140.807C153.801 140.584 153.683 140.301 153.664 140.003C153.688 139.706 153.761 139.416 153.88 139.143C154.031 138.749 154.206 138.364 154.402 137.99C154.588 137.629 154.808 137.288 155.06 136.971C155.291 136.685 155.488 136.542 155.651 136.542C155.883 136.549 156.111 136.602 156.321 136.699C156.558 136.799 156.783 136.925 156.992 137.075C157.168 137.195 157.311 137.357 157.407 137.547C157.448 137.618 157.464 137.7 157.452 137.78C157.439 137.861 157.4 137.935 157.34 137.99C156.946 138.383 156.575 138.79 156.227 139.211C155.879 139.631 155.569 139.998 155.301 140.297C155.605 140.261 155.882 140.234 156.134 140.217C156.342 140.182 156.553 140.159 156.764 140.149C156.968 140.149 157.116 140.137 157.206 140.137C157.377 140.15 157.543 140.204 157.689 140.294C157.894 140.407 158.084 140.547 158.253 140.71C158.429 140.876 158.587 141.061 158.725 141.261C158.844 141.415 158.914 141.602 158.926 141.797C158.896 141.946 158.846 142.09 158.778 142.225L158.416 143.085C158.274 143.425 158.116 143.787 157.944 144.171C157.774 144.557 157.618 144.922 157.472 145.273C157.326 145.624 157.207 145.934 157.108 146.217C157.033 146.402 156.984 146.597 156.962 146.795C156.962 146.938 157.006 147.009 157.096 147.009C157.306 147.009 157.583 146.866 157.927 146.579C158.287 146.275 158.628 145.948 158.947 145.6C159.287 145.235 159.591 144.887 159.86 144.555C160.128 144.224 160.299 144.014 160.371 143.925Z" fill="white"/>
</svg>
