<svg width="192" height="60" viewBox="0 0 192 60" fill="none" xmlns="http://www.w3.org/2000/svg">
<path d="M72.9636 41.243C71.5408 39.6742 69.7902 38.5831 67.8957 37.7098C67.4381 37.498 67.2962 37.2582 67.2962 36.7706C67.3142 31.0272 67.2702 25.2818 67.3261 19.5383C67.3481 17.2082 66.4688 15.3897 64.7282 13.9128C62.7078 12.1942 60.3617 11.0831 57.8797 10.2338C52.484 8.38926 46.9105 7.67184 41.239 7.55793C34.3405 7.41804 27.534 7.99758 20.9572 10.2498C18.1595 11.207 15.5136 12.462 13.4073 14.6203C12.8202 15.1899 12.3564 15.8741 12.0446 16.6304C11.7328 17.3866 11.5797 18.1989 11.5947 19.0168C11.6367 24.946 11.5947 30.8773 11.6247 36.8025C11.6247 37.2742 11.4868 37.502 11.0632 37.6918C9.42911 38.3869 7.92544 39.3553 6.61671 40.5555C5.26779 41.8285 4.2586 43.2873 4.45444 45.2678C4.61631 46.8925 5.51559 48.1295 6.67467 49.1946C8.68506 51.0411 11.1051 52.1922 13.6291 53.1135C20.7854 55.7334 28.2454 56.6387 35.8114 56.8865C42.472 57.1063 49.1107 56.8025 55.6895 55.6335C60.062 54.8561 64.3465 53.775 68.3393 51.7826C71.0392 50.4336 73.5032 48.785 74.5004 45.6894V44.1487C74.1407 43.0955 73.729 42.0883 72.9636 41.243ZM14.0907 15.5076C15.4976 13.9888 17.2622 13.0016 19.1327 12.1902C22.9297 10.5355 26.9265 9.67024 31.0052 9.13667C37.2634 8.30681 43.6096 8.40175 49.8401 9.41844C53.783 10.0639 57.6339 11.0351 61.217 12.8877C62.55 13.5771 63.791 14.4025 64.8142 15.5236C66.6647 17.5659 66.6247 19.8221 64.7242 21.8125C63.1075 23.5072 61.0672 24.5284 58.9289 25.3717C55.0919 26.8925 51.0911 27.7358 46.9944 28.1834C44.238 28.4801 41.4674 28.6249 38.6951 28.6171C33.1915 28.5491 27.0184 27.9136 21.0791 25.7913C18.6811 24.934 16.3649 23.8949 14.4844 22.0983C13.733 21.3789 13.1235 20.5575 12.8597 19.5324C12.452 17.9436 13.0336 16.6467 14.0907 15.5076ZM12.7118 30.9752C12.7578 28.0096 12.7338 25.0439 12.7358 22.0783C12.739 22.0576 12.7451 22.0374 12.7538 22.0184C12.7958 22.0184 12.8617 21.9924 12.8777 22.0184C15.6755 25.2438 19.4604 26.6367 23.3893 27.7498C29.8341 29.5783 36.4309 29.948 43.0855 29.6463C48.3513 29.4124 53.5252 28.6271 58.4932 26.7945C61.3329 25.7454 64.0308 24.4404 66.0212 22.0324C66.0412 22.0064 66.1031 22.0144 66.203 21.9964V23.9388C66.203 26.7366 66.1611 29.5443 66.225 32.3461C66.2724 33.3257 65.9312 34.2844 65.2758 35.014C64.5367 35.9184 63.6535 36.6949 62.6619 37.3121C62.1758 37.6166 61.6211 37.7943 61.0486 37.8292C60.4761 37.8642 59.904 37.7551 59.3845 37.512C58.8289 37.2702 58.2914 36.9944 57.7398 36.7446C55.4177 35.6934 53.2774 36.183 51.6587 38.1435C51.243 38.6471 50.8593 39.1806 50.4596 39.6982C49.4704 40.9852 47.6099 41.8145 45.6935 40.4976C44.6943 39.8201 43.721 39.0987 42.524 38.765C41.7259 38.5325 40.8887 38.4657 40.0639 38.5688C39.2391 38.6719 38.4441 38.9427 37.7278 39.3645C37.0104 39.8005 36.327 40.2902 35.6835 40.8293C33.8509 42.2602 32.1743 42.0723 30.6755 40.2897C30.2998 39.8421 29.9381 39.3845 29.5604 38.9408C27.562 36.6107 25.008 36.0831 22.2722 37.432C22.0224 37.5539 21.7686 37.6718 21.5088 37.7738C20.3098 38.2434 19.4145 38.0355 18.5452 37.0783C17.9936 36.4788 17.6119 35.7434 17.1683 35.0599C16.4209 33.9089 15.5696 32.8717 14.2406 32.3561C14.0408 32.2802 13.8409 32.1383 13.6531 32.1563C12.8018 32.1742 12.6998 31.7226 12.7118 30.9752ZM12.7118 39.2546C12.7938 37.438 12.7638 35.6135 12.7118 33.7929C12.6939 33.1255 12.9716 33.1255 13.4492 33.2514C14.5783 33.5531 15.3317 34.3325 15.9632 35.2498C16.3629 35.8253 16.7126 36.4308 17.1023 37.0104C18.5811 39.2086 20.2498 39.6642 22.6299 38.5092C23.4772 38.0955 24.3425 37.8017 25.3038 37.8277C25.8647 37.8365 26.4179 37.96 26.9293 38.1906C27.4407 38.4212 27.8995 38.7541 28.2774 39.1686C28.8769 39.7961 29.3985 40.4816 29.964 41.1331C31.7626 43.2134 34.0248 43.4572 36.213 41.8145C36.7346 41.4148 37.2382 41.0032 37.7758 40.6335C39.7082 39.3085 41.6787 39.2826 43.6691 40.5056C44.3245 40.9053 44.964 41.3369 45.6355 41.7046C47.3741 42.6638 49.3425 42.3761 50.7794 40.9812C51.3789 40.4097 51.8186 39.7242 52.3281 39.0887C53.819 37.2242 55.4117 36.8525 57.57 37.8657C58.0336 38.0835 58.4852 38.3213 58.9508 38.5352C60.3717 39.1906 61.7486 39.0547 63.1035 38.3133C64.2646 37.6778 65.2198 36.7965 66.1791 35.6455C66.1791 37.3361 66.265 38.8429 66.1571 40.3517C66.0192 42.2642 64.7162 43.4892 63.2754 44.5304C60.7254 46.3709 57.8018 47.3961 54.8002 48.1974C48.3613 49.92 41.7946 50.3377 35.1719 49.936C30.3377 49.6443 25.5795 48.8889 21.0112 47.2342C18.791 46.4348 16.6587 45.4576 14.8441 43.8969C13.4133 42.6738 12.6259 41.195 12.7118 39.2506V39.2546ZM72.464 47.3181C71.303 48.8789 69.6903 49.8661 67.9936 50.7154C64.2506 52.5799 60.2418 53.6131 56.1591 54.3825C48.2894 55.8613 40.3537 56.181 32.3781 55.6135C26.0592 55.1638 19.8241 54.1926 13.8489 51.9824C11.3949 51.0751 9.02279 49.984 7.1323 48.0875C6.33294 47.2882 5.70344 46.3649 5.57554 45.1898C5.42566 43.8189 6.05316 42.7438 6.93246 41.7925C8.22143 40.4077 9.83214 39.4864 11.5168 38.673C11.6966 38.8929 11.6327 39.1107 11.6207 39.3045C11.4568 41.7826 12.6479 43.5931 14.4844 45.0659C16.9464 47.0423 19.8241 48.1754 22.8118 49.0447C28.4572 50.6894 34.2466 51.243 40.1059 51.197C45.1619 51.1571 50.1639 50.6335 55.062 49.3345C58.2494 48.4892 61.325 47.3681 64.0188 45.3897C66.1751 43.8049 67.56 41.8265 67.3222 38.9948C67.3237 38.8703 67.3344 38.746 67.3541 38.6231C69.3525 39.6223 71.1991 40.6475 72.498 42.41C73.701 44.0607 73.6751 45.6734 72.454 47.3141L72.464 47.3181Z" fill="white"/>
<path d="M30.7054 12.6959C30.4676 13.1535 30.2678 13.1275 29.8761 13.0136C29.4389 12.8761 28.9754 12.844 28.5234 12.9199C28.0715 12.9959 27.6439 13.1777 27.2757 13.4506C26.9075 13.7235 26.6091 14.0797 26.405 14.49C26.2008 14.9003 26.0967 15.3531 26.1011 15.8114C26.1078 16.4374 26.2673 17.0522 26.5658 17.6025C26.8643 18.1528 27.2927 18.6218 27.8137 18.9688C29.3026 20.02 31.0112 20.3278 32.7658 20.4457C32.9166 20.4631 33.0694 20.4464 33.2129 20.397C33.3564 20.3475 33.487 20.2665 33.5951 20.1599C34.7942 18.9828 35.7334 17.6359 36.193 15.9992C36.3772 15.394 36.4169 14.7541 36.3089 14.1308C36.201 13.5075 35.9485 12.9181 35.5715 12.4101C35.2959 12.0031 34.9193 11.6747 34.4785 11.4571C34.0377 11.2396 33.5479 11.1404 33.0572 11.1692C32.5665 11.198 32.0917 11.3539 31.6794 11.6215C31.2671 11.8892 30.9315 12.2594 30.7054 12.6959ZM33.6771 18.4033C33.1735 19.0967 32.6499 19.4025 31.7566 19.2386C30.4796 19.0048 29.2526 18.721 28.2214 17.8737C27.9482 17.6531 27.7213 17.3806 27.554 17.072C27.3866 16.7633 27.282 16.4245 27.2462 16.0752C27.1543 15.3797 27.2702 14.7702 27.8897 14.3485C28.1746 14.1421 28.5108 14.018 28.8615 13.9898C29.2122 13.9616 29.5639 14.0304 29.8781 14.1887C30.0879 14.2846 30.2778 14.4405 30.4776 14.5484C30.9293 14.7882 31.235 14.6743 31.3589 14.1607C31.396 13.9543 31.4447 13.7501 31.5048 13.5492C31.6247 13.2048 31.8406 12.902 32.1271 12.6764C32.4136 12.4509 32.7586 12.312 33.1215 12.2762C33.8309 12.1743 34.3205 12.566 34.7042 13.1075C35.0594 13.5774 35.2535 14.1493 35.2578 14.7382C35.1719 16.1571 34.4824 17.2922 33.6771 18.4033Z" fill="white"/>
<path d="M50.7694 17.1662C50.2098 16.3948 49.4025 16.153 48.4872 16.2829C48.2654 16.3149 48.1515 16.3569 47.9856 16.1251C47.2782 15.1259 46.301 14.7462 45.4197 15.0579C44.4764 15.3917 43.787 16.4568 43.777 17.7558C43.7564 18.1224 43.825 18.4886 43.9768 18.8229C45.1539 21.3029 45.4976 22.0703 47.7038 21.5847C49.0108 21.2969 50.2258 20.8653 50.8513 19.5503C51.231 18.755 51.317 17.9256 50.7694 17.1662ZM49.9061 18.9848C49.6383 19.7302 49.0028 20.1259 48.2954 20.3077C46.245 20.8333 46.307 20.8893 45.2498 19.0148C45.01 18.6105 44.8869 18.1478 44.8941 17.6778C44.9061 17.0663 45.0719 16.5168 45.6435 16.201C46.0312 15.9872 46.4089 16.1191 46.7526 16.3589C47.0384 16.5587 47.1283 16.8665 47.2202 17.1882C47.4201 17.8637 47.6639 17.9576 48.2794 17.5879C48.771 17.2921 49.2466 17.2562 49.6982 17.6339C50.1499 18.0116 50.0739 18.5112 49.9061 18.9848Z" fill="white"/>
<path d="M41.7986 10.3917C41.4608 10.5056 41.3109 10.3917 41.0791 10.2218C40.8631 10.044 40.6092 9.9181 40.3368 9.85395C40.0645 9.7898 39.781 9.78908 39.5084 9.85184C39.2357 9.9146 38.9811 10.0392 38.7642 10.2159C38.5473 10.3927 38.3739 10.6169 38.2574 10.8713C37.7498 11.9125 38.0576 13.1854 39.0727 14.2346C40.2578 15.4616 40.7594 15.6035 42.0923 14.988C43.2554 14.4504 44.2246 13.725 44.2906 12.476C44.3365 10.8333 43.1655 9.93005 41.7986 10.3917ZM42.0444 13.729C41.5947 13.9528 41.1211 14.4305 40.6035 14.0827C39.8661 13.5891 39.2046 12.9616 39.1407 11.9904C39.1087 11.5388 39.2326 11.0751 39.7542 10.9412C40.2418 10.8153 40.5116 11.1291 40.7354 11.5268C41.0571 12.1043 41.3089 12.1383 41.8086 11.6767C42.0863 11.4209 42.3681 11.263 42.7458 11.4169C43.1235 11.5707 43.1914 11.8625 43.2074 12.2062C43.1655 12.9776 42.6679 13.4173 42.0444 13.729Z" fill="white"/>
<path d="M83.1874 24.7463H80.7574V18.7191C80.8633 18.6991 81.0272 18.6711 81.245 18.6391C81.4594 18.6074 81.6758 18.5914 81.8925 18.5912C82.3501 18.5912 82.6819 18.6711 82.8917 18.831C83.1015 18.9909 83.1954 19.2946 83.1954 19.7423L83.1874 24.7463ZM80.7574 21.6767H83.1874V28.4233C83.0359 28.4667 82.8807 28.4962 82.7238 28.5113C82.5064 28.5388 82.2875 28.5522 82.0683 28.5512C81.5887 28.5512 81.251 28.4673 81.0532 28.2954C80.8553 28.1236 80.7574 27.8278 80.7574 27.4001V21.6767Z" fill="white"/>
<path d="M92.6039 23.4672V24.98H90.2218V23.5571C90.2352 23.3953 90.2111 23.2325 90.1515 23.0814C90.0919 22.9303 89.9984 22.795 89.8781 22.6858C89.6186 22.4905 89.2993 22.3916 88.9748 22.4061C88.7259 22.4042 88.4781 22.4393 88.2394 22.51C88.0325 22.5743 87.8319 22.6573 87.6399 22.7578V24.98H85.2658V22.476C85.257 22.2433 85.3153 22.013 85.4337 21.8125C85.5606 21.6223 85.7269 21.4614 85.9213 21.3409C86.325 21.079 86.7674 20.8821 87.2322 20.7574C87.8046 20.5979 88.3966 20.5199 88.9908 20.5256C90.1419 20.5256 91.0318 20.7787 91.6607 21.285C92.2895 21.7912 92.6039 22.5186 92.6039 23.4672ZM85.2658 24.2346H87.6319V28.4312C87.4851 28.4717 87.3355 28.5011 87.1842 28.5192C86.9776 28.5474 86.7693 28.5608 86.5607 28.5591C86.2158 28.5865 85.8712 28.5024 85.5775 28.3193C85.3697 28.1595 85.2658 27.8717 85.2658 27.456V24.2346ZM90.2218 24.2346H92.6039V28.4312C92.4571 28.4717 92.3075 28.5011 92.1563 28.5192C91.9497 28.5474 91.7413 28.5608 91.5328 28.5591C91.1827 28.5871 90.8328 28.5031 90.5336 28.3193C90.3197 28.1595 90.2138 27.8717 90.2138 27.456L90.2218 24.2346Z" fill="white"/>
<path d="M95.5615 25.7214L95.4656 24.1227L99.4304 23.4992C99.4018 23.1862 99.2663 22.8927 99.0468 22.6678C98.9109 22.5335 98.7479 22.4298 98.5686 22.3637C98.3894 22.2975 98.1981 22.2704 98.0076 22.2841C97.7849 22.2786 97.5635 22.319 97.3572 22.4029C97.1509 22.4868 96.9641 22.6124 96.8085 22.7718C96.468 23.1507 96.285 23.6453 96.2969 24.1546L96.3769 25.2578C96.4728 25.8453 96.7233 26.2636 97.1283 26.5128C97.5627 26.7716 98.0616 26.9019 98.5671 26.8885C98.996 26.8889 99.4223 26.8214 99.8301 26.6886C100.162 26.5874 100.484 26.4535 100.789 26.2889C100.954 26.3864 101.092 26.5239 101.189 26.6886C101.289 26.8525 101.341 27.0405 101.341 27.2322C101.344 27.3853 101.311 27.537 101.246 27.6756C101.181 27.8142 101.085 27.936 100.965 28.0315C100.661 28.2708 100.305 28.4351 99.926 28.5112C99.4306 28.6243 98.9234 28.678 98.4153 28.671C97.6518 28.6836 96.8953 28.5252 96.201 28.2074C95.5568 27.9084 95.0187 27.4205 94.6583 26.8085C94.2624 26.1018 94.0688 25.2998 94.0987 24.4904C94.085 23.8826 94.1966 23.2786 94.4264 22.7158C94.625 22.2433 94.9252 21.8202 95.3057 21.4768C95.6695 21.1547 96.0933 20.9075 96.5527 20.7494C97.0182 20.589 97.5073 20.5079 97.9996 20.5096C98.6682 20.4948 99.3301 20.6458 99.926 20.9492C100.455 21.226 100.9 21.6402 101.213 22.1483C101.529 22.6737 101.69 23.2779 101.677 23.8909C101.687 24.0282 101.668 24.1661 101.621 24.2956C101.574 24.4251 101.501 24.5432 101.405 24.6423C101.195 24.8264 100.932 24.9384 100.653 24.962L95.5615 25.7214ZM97.2722 18.4152L98.8709 16.6726C99.259 16.6453 99.6442 16.7565 99.958 16.9864C100.067 17.0674 100.155 17.1718 100.218 17.2918C100.281 17.4119 100.315 17.5445 100.32 17.6798C100.328 17.8775 100.275 18.0728 100.168 18.2394C100.028 18.43 99.8639 18.6019 99.6802 18.751L98.1774 20.0459C97.8419 20.0696 97.5101 19.9637 97.2502 19.7502C97.1039 19.6383 96.9999 19.4803 96.9549 19.3018C96.9099 19.1232 96.9266 18.9347 97.0024 18.767C97.0709 18.6347 97.1622 18.5157 97.2722 18.4152Z" fill="white"/>
<path d="M109.343 26.201C109.357 26.5548 109.284 26.9067 109.131 27.2259C108.978 27.545 108.748 27.8217 108.463 28.0316C107.878 28.4752 107.026 28.6964 105.905 28.6951C105.167 28.7202 104.431 28.5895 103.747 28.3114C103.182 28.0556 102.9 27.6772 102.9 27.1763C102.894 26.9835 102.938 26.7925 103.028 26.6217C103.117 26.4508 103.249 26.306 103.411 26.201C103.746 26.3887 104.096 26.5466 104.458 26.6727C104.898 26.8231 105.361 26.8961 105.825 26.8885C106.603 26.8885 106.992 26.6647 106.992 26.217C106.997 26.1308 106.981 26.0447 106.946 25.9656C106.912 25.8865 106.859 25.8166 106.793 25.7614C106.587 25.6241 106.351 25.539 106.105 25.5136L105.434 25.3537C104.581 25.1739 103.944 24.8941 103.523 24.5144C103.31 24.3167 103.143 24.0746 103.034 23.8052C102.925 23.5359 102.876 23.2459 102.892 22.9556C102.883 22.6069 102.961 22.2615 103.118 21.9503C103.276 21.6391 103.508 21.372 103.795 21.1731C104.396 20.7308 105.209 20.5096 106.233 20.5096C106.704 20.5058 107.173 20.5567 107.632 20.6615C107.996 20.7364 108.339 20.8951 108.631 21.1251C108.747 21.2178 108.841 21.3358 108.905 21.4702C108.969 21.6046 109.001 21.7518 108.999 21.9005C109.004 22.0948 108.96 22.2871 108.871 22.46C108.789 22.6157 108.674 22.752 108.535 22.8597C108.365 22.7619 108.186 22.6815 108 22.6199C107.744 22.5342 107.482 22.4674 107.216 22.4201C106.953 22.3691 106.685 22.3423 106.417 22.3401C106.111 22.3266 105.806 22.3784 105.522 22.492C105.426 22.5284 105.345 22.5932 105.288 22.6775C105.23 22.7619 105.2 22.8617 105.202 22.9636C105.202 23.0338 105.219 23.1028 105.251 23.1652C105.283 23.2276 105.329 23.2818 105.386 23.3234C105.58 23.4543 105.801 23.539 106.033 23.5712L106.673 23.731C107.623 23.9455 108.305 24.2519 108.719 24.6503C108.925 24.851 109.087 25.0927 109.195 25.3597C109.302 25.6268 109.352 25.9134 109.343 26.201Z" fill="white"/>
<path d="M117.064 20.5255C118.171 20.5255 119.056 20.7573 119.718 21.221C120.38 21.6846 120.709 22.4047 120.703 23.3812V27.0103C120.717 27.2431 120.646 27.4729 120.504 27.6578C120.356 27.8306 120.177 27.9743 119.976 28.0815C119.602 28.2939 119.198 28.4476 118.777 28.5371C118.244 28.6552 117.7 28.7115 117.154 28.705C116.067 28.705 115.201 28.4918 114.556 28.0655C113.912 27.6392 113.589 27.005 113.589 26.163C113.589 25.4396 113.813 24.8827 114.261 24.4924C114.708 24.102 115.374 23.8649 116.259 23.7809L118.385 23.5571V23.3573C118.396 23.2 118.362 23.0429 118.287 22.9042C118.212 22.7656 118.099 22.651 117.962 22.5739C117.588 22.3954 117.176 22.3129 116.763 22.3341C116.359 22.3329 115.956 22.3812 115.564 22.478C115.207 22.5633 114.856 22.6755 114.516 22.8137C114.374 22.7115 114.261 22.5737 114.189 22.414C114.099 22.2441 114.052 22.0547 114.053 21.8625C114.053 21.4148 114.297 21.0911 114.788 20.8872C115.135 20.7497 115.497 20.6558 115.867 20.6075C116.264 20.552 116.664 20.5247 117.064 20.5255ZM117.16 26.9204C117.405 26.9204 117.648 26.8963 117.888 26.8485C118.069 26.8201 118.244 26.7635 118.407 26.6806V25.1458L117.064 25.2737C116.763 25.2785 116.467 25.3552 116.201 25.4976C116.1 25.5545 116.016 25.6384 115.96 25.74C115.903 25.8416 115.876 25.957 115.881 26.0731C115.878 26.1927 115.904 26.3114 115.956 26.4187C116.009 26.526 116.088 26.6187 116.185 26.6886C116.387 26.8445 116.707 26.9204 117.16 26.9204Z" fill="white"/>
<path d="M128.191 25.4976L125.809 25.4496V18.0316C126.158 17.9358 126.519 17.8874 126.88 17.8877C127.339 17.8877 127.672 17.9676 127.88 18.1275C128.08 18.2874 128.191 18.5811 128.191 19.0068V25.4976ZM125.809 24.2186L128.191 24.2666V28.4233C128.045 28.4636 127.895 28.4929 127.744 28.5112C127.537 28.5395 127.329 28.5528 127.12 28.5512C126.77 28.5794 126.42 28.4954 126.121 28.3114C125.907 28.1515 125.801 27.8637 125.801 27.448L125.809 24.2186Z" fill="white"/>
<path d="M133.179 20.5256C134.287 20.5256 135.171 20.7575 135.833 21.2211C136.495 21.6847 136.829 22.4015 136.833 23.3714V27.0005C136.846 27.2333 136.775 27.463 136.633 27.6479C136.485 27.8207 136.306 27.9644 136.105 28.0716C135.731 28.284 135.327 28.4377 134.906 28.5272C134.373 28.6453 133.829 28.7016 133.283 28.6951C132.196 28.6951 131.33 28.4819 130.685 28.0556C130.041 27.6293 129.718 26.9951 129.718 26.1531C129.718 25.4297 129.942 24.8728 130.39 24.4825C130.837 24.0921 131.503 23.855 132.388 23.771L134.514 23.5472V23.3474C134.522 23.1933 134.486 23.0401 134.412 22.905C134.337 22.7698 134.227 22.658 134.093 22.582C133.719 22.4035 133.307 22.321 132.894 22.3422C132.49 22.341 132.087 22.3893 131.695 22.4861C131.338 22.5714 130.988 22.6836 130.647 22.8218C130.505 22.7196 130.392 22.5818 130.32 22.4221C130.23 22.2522 130.183 22.0628 130.184 21.8706C130.184 21.4229 130.428 21.0992 130.919 20.8953C131.266 20.7578 131.629 20.6639 131.998 20.6156C132.39 20.5582 132.784 20.5282 133.179 20.5256ZM133.275 26.9205C133.52 26.9205 133.763 26.8964 134.003 26.8486C134.184 26.8202 134.359 26.7636 134.522 26.6807V25.1459L133.179 25.2738C132.878 25.2786 132.582 25.3553 132.316 25.4977C132.215 25.5546 132.131 25.6385 132.075 25.7401C132.018 25.8417 131.991 25.9571 131.996 26.0732C131.993 26.1928 132.019 26.3115 132.072 26.4188C132.125 26.5261 132.203 26.6188 132.3 26.6887C132.494 26.8446 132.828 26.9205 133.275 26.9205Z" fill="white"/>
<path d="M145.985 22.4121C145.437 22.4017 144.907 22.6053 144.506 22.9796C144.095 23.3593 143.891 23.9109 143.891 24.6343C143.891 25.3577 144.091 25.8873 144.49 26.249C144.896 26.6168 145.43 26.8118 145.977 26.7926C146.289 26.7993 146.6 26.7534 146.896 26.6567C147.131 26.5783 147.359 26.4794 147.576 26.3609C147.741 26.4734 147.882 26.6174 147.992 26.7846C148.092 26.9565 148.142 27.1532 148.135 27.3522C148.135 27.7518 147.922 28.0716 147.496 28.3114C147.07 28.5512 146.478 28.6738 145.721 28.6791C144.951 28.6974 144.187 28.5416 143.485 28.2235C142.86 27.9329 142.34 27.4552 141.998 26.8565C141.634 26.1742 141.457 25.4073 141.487 24.6343C141.455 23.8302 141.655 23.0339 142.062 22.3402C142.431 21.7509 142.961 21.2793 143.589 20.9812C144.236 20.6745 144.944 20.5187 145.659 20.5256C146.395 20.5256 146.973 20.6588 147.394 20.9253C147.814 21.1931 148.026 21.5248 148.026 21.9245C148.028 22.1068 147.981 22.2863 147.89 22.4441C147.803 22.5898 147.698 22.7241 147.578 22.8438C147.353 22.7293 147.121 22.6304 146.882 22.548C146.593 22.4528 146.29 22.4069 145.985 22.4121Z" fill="white"/>
<path d="M157.368 24.6023C157.392 25.3579 157.222 26.107 156.874 26.7786C156.552 27.3788 156.06 27.8709 155.46 28.1934C154.799 28.5374 154.062 28.7079 153.317 28.689C152.574 28.7074 151.837 28.5398 151.175 28.2014C150.575 27.8859 150.083 27.3989 149.76 26.8025C149.41 26.1297 149.236 25.3787 149.257 24.6203C149.237 23.8687 149.413 23.1249 149.768 22.462C150.1 21.863 150.596 21.3719 151.199 21.0471C151.856 20.7004 152.591 20.527 153.333 20.5435C154.071 20.5262 154.801 20.6997 155.452 21.0471C156.048 21.3784 156.539 21.8717 156.867 22.47C157.212 23.1267 157.385 23.8605 157.368 24.6023ZM153.307 22.4041C153.076 22.3945 152.845 22.442 152.636 22.5424C152.427 22.6427 152.246 22.7929 152.108 22.9796C151.814 23.3633 151.667 23.9069 151.669 24.6103C151.67 25.3137 151.814 25.86 152.1 26.249C152.245 26.4276 152.428 26.5717 152.635 26.6706C152.843 26.7696 153.07 26.821 153.299 26.821C153.529 26.821 153.756 26.7696 153.964 26.6706C154.171 26.5717 154.354 26.4276 154.498 26.249C154.786 25.8653 154.93 25.3217 154.93 24.6183C154.93 23.9148 154.789 23.3693 154.506 22.9816C154.37 22.7926 154.19 22.6403 153.98 22.5381C153.771 22.4359 153.54 22.3871 153.307 22.3961V22.4041Z" fill="white"/>
<path d="M162.994 22.4121C162.446 22.4021 161.915 22.6056 161.515 22.9796C161.104 23.3593 160.899 23.9109 160.899 24.6343C160.899 25.3577 161.099 25.896 161.499 26.249C161.905 26.6161 162.438 26.811 162.986 26.7926C163.298 26.7994 163.608 26.7535 163.905 26.6567C164.14 26.5787 164.367 26.4797 164.584 26.3609C164.75 26.4728 164.891 26.6169 165 26.7846C165.1 26.9565 165.15 27.1532 165.144 27.3521C165.144 27.7518 164.932 28.0676 164.504 28.3114C164.077 28.5552 163.487 28.6791 162.73 28.6791C161.964 28.6951 161.205 28.5394 160.508 28.2234C159.882 27.9328 159.363 27.4552 159.021 26.8565C158.651 26.1757 158.469 25.4087 158.493 24.6343C158.461 23.8302 158.661 23.0339 159.069 22.3401C159.438 21.7513 159.968 21.2799 160.596 20.9812C161.242 20.6749 161.95 20.5191 162.666 20.5256C163.401 20.5256 163.981 20.6595 164.4 20.9253C164.82 21.1911 165.032 21.5248 165.032 21.9245C165.035 22.1068 164.988 22.2865 164.896 22.4441C164.811 22.5906 164.706 22.7251 164.584 22.8437C164.36 22.7285 164.128 22.6297 163.889 22.548C163.6 22.4527 163.298 22.4067 162.994 22.4121Z" fill="white"/>
<path d="M166.543 18.5591C166.539 18.3895 166.571 18.221 166.635 18.0641C166.7 17.9073 166.796 17.7656 166.918 17.6478C167.044 17.5266 167.192 17.4316 167.355 17.3685C167.518 17.3053 167.691 17.2753 167.866 17.2801C168.042 17.273 168.218 17.3019 168.383 17.3651C168.548 17.4283 168.698 17.5245 168.825 17.6478C168.945 17.7665 169.04 17.9086 169.103 18.0654C169.166 18.2221 169.197 18.3901 169.193 18.5591C169.193 18.911 169.053 19.2485 168.804 19.4974C168.555 19.7462 168.218 19.886 167.866 19.886C167.514 19.886 167.176 19.7462 166.927 19.4974C166.679 19.2485 166.539 18.911 166.539 18.5591H166.543ZM169.053 25.4496H166.687V20.8533C166.831 20.8106 166.978 20.7786 167.126 20.7573C167.335 20.7245 167.546 20.7084 167.758 20.7094C168.217 20.7094 168.551 20.7866 168.757 20.9412C168.957 21.0971 169.061 21.3928 169.061 21.8285L169.053 25.4496ZM166.687 24.2186H169.053V28.4152C168.912 28.457 168.767 28.4865 168.621 28.5031C168.415 28.5314 168.206 28.5448 167.998 28.5431C167.541 28.5431 167.208 28.4632 166.998 28.3033C166.789 28.1434 166.685 27.8557 166.687 27.44V24.2186Z" fill="white"/>
<path d="M178.309 23.4672V24.98H175.927V23.5571C175.941 23.3953 175.917 23.2325 175.857 23.0814C175.797 22.9303 175.704 22.795 175.584 22.6858C175.324 22.4905 175.005 22.3916 174.68 22.4061C174.431 22.4042 174.184 22.4393 173.945 22.51C173.738 22.5743 173.537 22.6573 173.345 22.7578V24.98H170.971V22.476C170.962 22.2433 171.021 22.013 171.139 21.8125C171.266 21.6223 171.432 21.4614 171.627 21.3409C172.03 21.079 172.473 20.8821 172.938 20.7574C173.51 20.5979 174.102 20.5199 174.696 20.5256C175.847 20.5256 176.737 20.7787 177.366 21.285C177.995 21.7912 178.309 22.5186 178.309 23.4672ZM170.971 24.2346H173.337V28.4312C173.191 28.4717 173.041 28.5011 172.89 28.5192C172.683 28.5474 172.475 28.5608 172.266 28.5591C171.921 28.5865 171.577 28.5024 171.283 28.3193C171.075 28.1595 170.971 27.8717 170.971 27.456V24.2346ZM175.927 24.2346H178.309V28.4312C178.163 28.4717 178.013 28.5011 177.862 28.5192C177.655 28.5474 177.447 28.5608 177.238 28.5591C176.888 28.5871 176.538 28.5031 176.239 28.3193C176.027 28.1595 175.919 27.8717 175.919 27.456L175.927 24.2346Z" fill="white"/>
<path d="M183.217 20.5256C184.326 20.5256 185.21 20.7574 185.871 21.221C186.532 21.6847 186.865 22.4014 186.87 23.3713V27.0004C186.884 27.2332 186.813 27.463 186.671 27.6479C186.524 27.8216 186.344 27.9654 186.143 28.0716C185.769 28.2845 185.365 28.4382 184.944 28.5272C184.411 28.6454 183.867 28.7017 183.321 28.6951C182.234 28.6951 181.368 28.4819 180.723 28.0556C180.079 27.6292 179.756 26.9951 179.756 26.1531C179.756 25.4297 179.98 24.8728 180.428 24.4824C180.875 24.0921 181.541 23.8549 182.426 23.771L184.552 23.5472V23.3473C184.563 23.1901 184.529 23.033 184.454 22.8943C184.379 22.7556 184.266 22.6411 184.129 22.564C183.755 22.385 183.343 22.3026 182.93 22.3242C182.526 22.3231 182.123 22.3714 181.731 22.468C181.374 22.5536 181.024 22.6658 180.683 22.8038C180.542 22.7011 180.429 22.5634 180.356 22.4041C180.267 22.2338 180.22 22.0446 180.22 21.8525C180.22 21.4049 180.466 21.0812 180.955 20.8773C181.302 20.7403 181.665 20.6464 182.034 20.5975C182.427 20.5462 182.822 20.5221 183.217 20.5256ZM183.313 26.9205C183.558 26.9206 183.801 26.8965 184.041 26.8485C184.222 26.8205 184.397 26.7639 184.56 26.6807V25.1459L183.217 25.2738C182.916 25.2791 182.62 25.3558 182.354 25.4976C182.253 25.5545 182.169 25.6385 182.113 25.7401C182.056 25.8417 182.029 25.957 182.034 26.0732C182.031 26.1927 182.057 26.3112 182.11 26.4184C182.163 26.5256 182.241 26.6184 182.338 26.6887C182.54 26.8445 182.866 26.9205 183.313 26.9205Z" fill="white"/>
<path d="M88.2554 35.8573C88.0636 35.8573 87.8058 35.9906 87.482 36.257C87.1021 36.5766 86.7504 36.9283 86.4309 37.3082C86.0218 37.7875 85.6434 38.2921 85.2978 38.819C84.9179 39.3916 84.5723 39.9861 84.2626 40.5995C83.9609 41.1927 83.7083 41.8096 83.5072 42.4441C83.3263 42.9898 83.2293 43.5598 83.2194 44.1347C83.2128 44.4347 83.2979 44.7296 83.4632 44.98C83.5428 45.098 83.6517 45.1932 83.7793 45.2563C83.9068 45.3193 84.0486 45.3481 84.1907 45.3397C84.409 45.3332 84.6234 45.2807 84.8201 45.1859C85.0651 45.0731 85.2998 44.9394 85.5216 44.7862C85.7766 44.6128 86.0227 44.4268 86.259 44.2286C86.5108 44.0195 86.7506 43.807 86.9784 43.5911C87.5113 43.0756 88.0629 42.494 88.6331 41.8465C88.6508 41.8196 88.6748 41.7974 88.703 41.7817C88.7312 41.766 88.7627 41.7574 88.795 41.7566C88.8306 41.7576 88.8654 41.7682 88.8956 41.7871C88.9258 41.8061 88.9504 41.8328 88.9668 41.8645C88.9875 41.9014 88.996 41.944 88.9909 41.986C88.9859 42.028 88.9677 42.0673 88.9389 42.0983C88.2914 42.9616 87.6559 43.735 87.0324 44.4185C86.7659 44.7063 86.4961 44.9907 86.223 45.2718C85.9659 45.5372 85.6929 45.7868 85.4057 46.0192C85.1642 46.2161 84.9053 46.3906 84.6323 46.5408C84.4327 46.66 84.207 46.7286 83.9748 46.7406C83.6627 46.7402 83.3518 46.7006 83.0496 46.6227C82.7408 46.5437 82.4565 46.3892 82.2222 46.1731C81.954 45.9218 81.7487 45.611 81.6227 45.2658C81.457 44.7861 81.3805 44.2802 81.3969 43.773C81.409 43.151 81.5182 42.5347 81.7206 41.9465C81.9502 41.249 82.2391 40.5724 82.5839 39.9241C82.9466 39.2314 83.3552 38.5638 83.807 37.9257C84.2292 37.3253 84.6919 36.7544 85.1918 36.217C85.6039 35.7664 86.0658 35.3642 86.5687 35.018C86.9095 34.7577 87.3183 34.6015 87.7458 34.5684C87.9818 34.5698 88.2148 34.6216 88.4293 34.7202C88.648 34.817 88.8535 34.9412 89.0408 35.0899C89.2089 35.2209 89.3575 35.3749 89.4824 35.5476C89.5803 35.6686 89.6395 35.8162 89.6523 35.9712C89.6429 36.3759 89.5575 36.7752 89.4005 37.1483C89.2367 37.565 89.036 37.9663 88.801 38.3473C88.5961 38.6876 88.3549 39.0045 88.0815 39.2926C87.8357 39.5444 87.6339 39.6703 87.482 39.6703C87.364 39.6703 87.2486 39.6356 87.1503 39.5704C87.0574 39.5127 86.9749 39.4398 86.9065 39.3545C86.8526 39.2959 86.8238 39.2183 86.8265 39.1387C86.8265 39.0728 86.8825 39.0408 86.9784 39.0408C87.1437 39.0178 87.2946 38.9346 87.4021 38.807C87.5855 38.6234 87.7508 38.4227 87.8957 38.2074C88.0677 37.9613 88.2213 37.7028 88.3553 37.4341C88.482 37.1888 88.5786 36.9291 88.6431 36.6607C88.6951 36.4642 88.6951 36.2576 88.6431 36.0612C88.6005 35.9253 88.4712 35.8573 88.2554 35.8573Z" fill="white"/>
<path d="M94.0108 41.8465C94.0285 41.8196 94.0525 41.7973 94.0807 41.7817C94.1089 41.766 94.1404 41.7574 94.1727 41.7566C94.2083 41.7576 94.2431 41.7681 94.2733 41.7871C94.3035 41.8061 94.3281 41.8328 94.3445 41.8645C94.3652 41.9014 94.3737 41.9439 94.3686 41.986C94.3636 42.028 94.3454 42.0673 94.3165 42.0983C93.9535 42.6934 93.4951 43.2247 92.9596 43.671C92.544 44.0375 92.0255 44.2671 91.4748 44.3285C91.2249 44.6058 90.9409 44.8502 90.6295 45.0559C90.3809 45.2294 90.0872 45.3266 89.7842 45.3357C89.591 45.3284 89.4027 45.2728 89.2366 45.1738C89.031 45.0607 88.8432 44.9179 88.6791 44.7502C88.5024 44.5738 88.3535 44.3716 88.2374 44.1507C88.1191 43.9293 88.0573 43.6822 88.0576 43.4312C88.0666 43.1618 88.1248 42.8963 88.2294 42.6479C88.3444 42.3515 88.4855 42.0659 88.6511 41.7945C88.807 41.5346 88.9877 41.2903 89.1906 41.0651C89.3327 40.8948 89.5108 40.7583 89.7122 40.6654C89.8892 40.3172 90.1267 40.0033 90.4137 39.7382C90.6639 39.4782 91.0062 39.3267 91.3669 39.3165C91.566 39.3225 91.7594 39.3849 91.9245 39.4964C92.1215 39.6204 92.2975 39.7748 92.446 39.954C92.6063 40.1468 92.7369 40.3623 92.8337 40.5935C92.9339 40.8264 92.9856 41.0773 92.9856 41.3309C92.9686 41.647 92.8955 41.9576 92.7698 42.2482C92.6163 42.6385 92.4235 43.0121 92.1942 43.3633C92.5388 43.2598 92.8517 43.0707 93.1035 42.8137C93.398 42.5286 93.7004 42.2062 94.0108 41.8465ZM89.5863 44.3105C89.7302 44.3105 89.9341 44.1773 90.1978 43.9109C90.1638 43.8249 90.1456 43.7335 90.1439 43.6411C90.1347 43.5425 90.1514 43.4432 90.1924 43.3532C90.2334 43.2631 90.2973 43.1853 90.3777 43.1275C90.5385 43.0245 90.7263 42.9716 90.9173 42.9756C91.1889 42.5523 91.4178 42.1031 91.6007 41.6347C91.7825 41.1986 91.8801 40.7321 91.8885 40.2598C91.8899 40.1925 91.8711 40.1264 91.8345 40.0699C91.814 40.0422 91.7866 40.0203 91.7551 40.0063C91.7236 39.9923 91.689 39.9867 91.6547 39.99C91.5397 39.9918 91.4276 40.0257 91.3309 40.0879C91.2167 40.1596 91.1136 40.2478 91.0252 40.3497C90.9286 40.4586 90.8417 40.5756 90.7654 40.6994C90.6943 40.8123 90.6309 40.9298 90.5755 41.0511C90.7003 41.1858 90.7956 41.3451 90.8553 41.5188C90.8973 41.6626 90.8453 41.7346 90.7014 41.7346C90.5364 41.7492 90.3813 41.8197 90.2618 41.9344C90.0835 42.0845 89.9286 42.2603 89.8022 42.456C89.6516 42.6833 89.5282 42.9274 89.4345 43.1834C89.3352 43.4384 89.2831 43.7092 89.2806 43.9828C89.2762 44.0656 89.2986 44.1476 89.3445 44.2166C89.374 44.2509 89.4115 44.2774 89.4537 44.2938C89.4959 44.3102 89.5414 44.3159 89.5863 44.3105Z" fill="white"/>
<path d="M95.1079 45.3357C94.963 45.3245 94.8208 45.2908 94.6862 45.2358C94.4848 45.1628 94.2939 45.0634 94.1187 44.9401C93.9239 44.8048 93.7564 44.634 93.6251 44.4365C93.4887 44.2284 93.419 43.9837 93.4253 43.735C93.447 43.2831 93.557 42.8398 93.749 42.4301C93.9676 41.9197 94.2353 41.4318 94.5484 40.9732C94.8324 40.5418 95.1679 40.1465 95.5476 39.7962C95.9073 39.4724 96.231 39.3106 96.5188 39.3106C96.7408 39.3095 96.9608 39.3522 97.1663 39.4365C97.3569 39.513 97.5358 39.616 97.6978 39.7422C97.837 39.8513 97.9584 39.9815 98.0575 40.1279C98.1342 40.2303 98.1806 40.3522 98.1914 40.4796C98.1857 40.6603 98.1428 40.8378 98.0655 41.0012C97.9839 41.1902 97.8842 41.3709 97.7678 41.5408C97.668 41.6922 97.5535 41.8335 97.4261 41.9624C97.3571 42.0513 97.2585 42.1123 97.1483 42.1343C97.0552 42.1351 96.9643 42.1064 96.8885 42.0524C96.8134 42.0065 96.746 41.9492 96.6886 41.8825C96.6671 41.8595 96.6504 41.8325 96.6394 41.803C96.6285 41.7735 96.6235 41.7421 96.6247 41.7106C96.6247 41.6567 96.6707 41.6307 96.7426 41.6307C96.8145 41.6307 96.9145 41.5588 97.0404 41.4149C97.1674 41.2687 97.2731 41.1052 97.3541 40.9293C97.43 40.7763 97.4819 40.6125 97.508 40.4437C97.524 40.2998 97.462 40.2278 97.3181 40.2278C97.1743 40.2278 96.9544 40.3437 96.6986 40.5776C96.4105 40.8448 96.1568 41.1469 95.9432 41.4768C95.6855 41.8632 95.4711 42.2767 95.3038 42.7098C95.1293 43.1384 95.0377 43.5961 95.034 44.0588C95.034 44.2986 95.1479 44.4185 95.3757 44.4185C95.6883 44.4114 95.9943 44.3277 96.267 44.1747C96.5928 43.9996 96.9002 43.7921 97.1842 43.5552C97.4968 43.2966 97.7913 43.0168 98.0655 42.7178C98.3453 42.4121 98.6011 42.1183 98.8289 41.8465C98.8497 41.8184 98.8768 41.7956 98.9081 41.78C98.9393 41.7644 98.9738 41.7564 99.0088 41.7566C99.0435 41.7561 99.0776 41.7662 99.1065 41.7855C99.1354 41.8047 99.1577 41.8323 99.1707 41.8645C99.1878 41.9028 99.1936 41.9453 99.1872 41.9867C99.1808 42.0282 99.1626 42.067 99.1347 42.0983C98.9069 42.4101 98.6451 42.7538 98.3533 43.1315C98.062 43.5056 97.7434 43.8577 97.4001 44.1847C97.068 44.5004 96.6989 44.7749 96.301 45.002C95.9394 45.2158 95.528 45.3309 95.1079 45.3357Z" fill="white"/>
<path d="M102.032 41.8465C102.073 41.7968 102.131 41.7645 102.194 41.7566C102.23 41.7579 102.264 41.7687 102.294 41.7876C102.324 41.8066 102.348 41.8331 102.364 41.8645C102.385 41.9012 102.394 41.9436 102.389 41.9856C102.385 42.0277 102.367 42.0671 102.338 42.0983C102.326 42.1223 102.26 42.2202 102.138 42.3941C102.016 42.5679 101.869 42.7758 101.689 43.0156C101.509 43.2554 101.307 43.5092 101.089 43.779C100.871 44.0488 100.639 44.3006 100.406 44.5344C100.195 44.7491 99.9636 44.9419 99.7142 45.1099C99.5308 45.2448 99.3121 45.3233 99.0847 45.3357C98.9843 45.3278 98.8865 45.2999 98.797 45.2538C98.6702 45.1954 98.5519 45.1201 98.4452 45.03C98.3329 44.9354 98.2335 44.8266 98.1495 44.7062C98.071 44.6024 98.027 44.4766 98.0236 44.3465C98.0405 44.1259 98.0855 43.9083 98.1575 43.699C98.2481 43.3993 98.362 43.0662 98.4992 42.6998C98.6364 42.3335 98.7863 41.9464 98.9489 41.5388C99.1114 41.1391 99.2673 40.7734 99.4165 40.4416C99.5657 40.1099 99.6989 39.8401 99.8162 39.6323C99.9361 39.4225 100.016 39.3185 100.05 39.3185C100.208 39.3224 100.363 39.3657 100.5 39.4444C100.648 39.5209 100.783 39.6208 100.899 39.7402C101 39.8421 101.076 39.965 101.123 40.0999C101.146 40.1484 101.154 40.2025 101.146 40.2554C101.138 40.3084 101.115 40.3579 101.079 40.3977C100.944 40.5815 100.835 40.7833 100.755 40.9972C100.612 41.3209 100.462 41.6773 100.306 42.0663C100.15 42.4554 100.017 42.8184 99.9061 43.1555C99.8236 43.3637 99.7665 43.5811 99.7362 43.803C99.7362 43.8869 99.7722 43.9289 99.8441 43.9289C100.056 43.8964 100.252 43.7953 100.402 43.6411C100.641 43.4375 100.866 43.2178 101.075 42.9836C101.298 42.7371 101.501 42.5033 101.687 42.2822C101.867 42.0464 101.984 41.9065 102.032 41.8465ZM101.833 35.8513C101.987 35.8557 102.14 35.8889 102.282 35.9492C102.441 36.0101 102.589 36.095 102.722 36.201C102.834 36.2876 102.929 36.3947 103.002 36.5168C103.032 36.5609 103.044 36.6145 103.038 36.6674C103.031 36.7204 103.006 36.7691 102.966 36.8046C102.751 37.0158 102.551 37.2407 102.366 37.478C102.186 37.7125 102.024 37.9283 101.881 38.1255C101.737 38.3253 101.613 38.4852 101.511 38.6111C101.409 38.737 101.329 38.801 101.269 38.801C101.112 38.7731 100.968 38.6978 100.855 38.5852C100.743 38.4727 100.667 38.3282 100.639 38.1715C100.652 37.972 100.691 37.775 100.755 37.5859C100.836 37.3214 100.936 37.063 101.053 36.8126C101.16 36.5765 101.29 36.351 101.439 36.1391C101.585 35.9532 101.719 35.8573 101.835 35.8573L101.833 35.8513Z" fill="white"/>
<path d="M108.291 41.8465C108.312 41.8184 108.339 41.7956 108.371 41.78C108.402 41.7643 108.436 41.7563 108.471 41.7565C108.506 41.7561 108.54 41.7661 108.569 41.7854C108.598 41.8047 108.62 41.8322 108.633 41.8645C108.65 41.9028 108.656 41.9452 108.65 41.9867C108.643 42.0281 108.625 42.0669 108.597 42.0983C108.585 42.1222 108.519 42.2202 108.397 42.394C108.275 42.5679 108.129 42.7717 107.956 43.0055C107.782 43.2394 107.584 43.4912 107.356 43.7609C107.128 44.0307 106.906 44.2825 106.673 44.5163C106.462 44.7311 106.231 44.9239 105.981 45.0919C105.803 45.2245 105.591 45.3029 105.37 45.3177C105.265 45.3086 105.164 45.278 105.072 45.2278C104.944 45.1662 104.823 45.0904 104.712 45.0019C104.599 44.9125 104.499 44.8067 104.416 44.6882C104.338 44.5844 104.294 44.4586 104.291 44.3285C104.323 43.9855 104.404 43.649 104.532 43.3293C104.694 42.8617 104.877 42.376 105.082 41.8724C105.31 41.2849 105.576 40.6554 105.881 39.984C105.493 40.2756 105.148 40.6207 104.856 41.0091C104.496 41.4648 104.155 41.9444 103.831 42.448C103.507 42.9516 103.225 43.4312 102.986 43.8868C102.804 44.2187 102.641 44.561 102.5 44.912C102.488 44.972 102.478 45.0259 102.472 45.0739C102.469 45.1158 102.469 45.1579 102.472 45.1998C102.472 45.2837 102.418 45.3257 102.31 45.3257C102.197 45.3181 102.087 45.2875 101.986 45.2358C101.85 45.1732 101.72 45.0975 101.599 45.0099C101.477 44.9241 101.371 44.818 101.285 44.6962C101.206 44.5924 101.162 44.4666 101.159 44.3365C101.173 44.1213 101.218 43.9092 101.293 43.707C101.383 43.4312 101.493 43.1254 101.635 42.7897C101.777 42.454 101.92 42.1063 102.076 41.7465L102.516 40.7294C102.649 40.411 102.763 40.1352 102.858 39.902C102.926 39.751 102.972 39.5907 102.994 39.4264C102.994 39.3425 103.03 39.3005 103.102 39.3005C103.21 39.3148 103.312 39.3583 103.397 39.4264C103.529 39.5142 103.652 39.6132 103.767 39.7222C103.882 39.8303 103.985 39.951 104.073 40.0819C104.146 40.1786 104.19 40.2945 104.199 40.4156C104.141 40.6638 104.056 40.905 103.947 41.135C104.151 40.8832 104.361 40.6461 104.576 40.4236C104.792 40.2011 104.999 40.0066 105.196 39.8401C105.368 39.6888 105.555 39.5549 105.753 39.4404C105.887 39.3571 106.038 39.3077 106.195 39.2965C106.31 39.3062 106.421 39.3432 106.519 39.4044C106.656 39.4801 106.783 39.5735 106.896 39.6822C107.014 39.7939 107.119 39.9179 107.21 40.0519C107.29 40.1556 107.338 40.2809 107.346 40.4116C107.325 40.5114 107.292 40.6081 107.246 40.6994L107.004 41.2749C106.908 41.5027 106.805 41.7445 106.689 42.0023C106.573 42.2601 106.471 42.5059 106.375 42.7398C106.279 42.9736 106.197 43.1834 106.131 43.3693C106.08 43.4931 106.047 43.6237 106.033 43.7569C106.033 43.8529 106.063 43.9008 106.123 43.9008C106.335 43.8684 106.531 43.7673 106.681 43.6131C106.918 43.4114 107.143 43.1952 107.354 42.9656C107.577 42.7258 107.776 42.4946 107.954 42.2721L108.291 41.8465Z" fill="white"/>
<path d="M114.508 41.8465C114.529 41.8184 114.556 41.7956 114.588 41.78C114.619 41.7644 114.653 41.7564 114.688 41.7566C114.723 41.7561 114.757 41.7662 114.786 41.7854C114.815 41.8047 114.837 41.8323 114.85 41.8645C114.867 41.9028 114.873 41.9452 114.867 41.9867C114.86 42.0282 114.842 42.067 114.814 42.0983C114.586 42.4101 114.337 42.7545 114.067 43.1315C113.806 43.4987 113.523 43.8503 113.221 44.1846C112.956 44.4822 112.664 44.7557 112.35 45.002C112.119 45.2021 111.828 45.3195 111.523 45.3357C111.43 45.3253 111.341 45.2946 111.261 45.2458C111.139 45.1804 111.024 45.102 110.919 45.012C110.807 44.9175 110.708 44.8086 110.624 44.6882C110.547 44.5901 110.503 44.4707 110.498 44.3465C110.508 44.1299 110.557 43.9168 110.641 43.717C110.737 43.4652 110.833 43.2074 110.929 42.9436C110.713 43.2434 110.482 43.5372 110.236 43.8249C110.007 44.0951 109.76 44.3501 109.498 44.5883C109.276 44.7934 109.032 44.9742 108.771 45.1279C108.576 45.2493 108.353 45.3181 108.124 45.3277C107.999 45.326 107.878 45.2816 107.782 45.2018C107.669 45.1128 107.572 45.0061 107.494 44.8861C107.411 44.7567 107.344 44.6178 107.294 44.4724C107.243 44.3376 107.216 44.1949 107.214 44.0508C107.233 43.8002 107.301 43.5558 107.414 43.3313C107.567 42.9919 107.744 42.664 107.944 42.3501C108.166 41.9957 108.412 41.6394 108.681 41.281C108.938 40.9402 109.216 40.6152 109.512 40.3077C109.762 40.0424 110.036 39.8015 110.332 39.5883C110.527 39.4293 110.765 39.3326 111.015 39.3105C111.274 39.313 111.528 39.3818 111.753 39.5104C111.99 39.6407 112.208 39.8042 112.4 39.996C112.584 40.177 112.747 40.3781 112.886 40.5955C112.999 40.7638 113.084 40.9495 113.137 41.1451C113.137 41.1548 113.138 41.1646 113.141 41.1739C113.144 41.1831 113.149 41.1917 113.155 41.199V41.253C113.13 41.4117 113.082 41.5659 113.012 41.7106C112.916 41.9444 112.812 42.1962 112.696 42.466C112.58 42.7358 112.478 42.9976 112.382 43.2494C112.306 43.4207 112.258 43.6027 112.238 43.789C112.238 43.8729 112.274 43.9149 112.346 43.9149C112.511 43.907 112.668 43.8468 112.796 43.743C112.976 43.6075 113.144 43.4571 113.299 43.2934C113.479 43.1082 113.671 42.8897 113.875 42.6379C114.079 42.3861 114.29 42.1223 114.508 41.8465ZM109.095 43.9328C109.143 43.9328 109.247 43.8609 109.408 43.717C109.57 43.5731 109.756 43.3893 109.966 43.1675C110.176 42.9456 110.396 42.7058 110.624 42.448C110.851 42.1902 111.063 41.9424 111.261 41.7026C111.459 41.4628 111.621 41.249 111.747 41.0631C111.836 40.9557 111.9 40.8303 111.936 40.6954C111.935 40.5952 111.911 40.4966 111.865 40.4077C111.838 40.3589 111.799 40.3181 111.752 40.2897C111.704 40.2612 111.65 40.246 111.595 40.2458C111.444 40.2688 111.304 40.3387 111.195 40.4456C111 40.6099 110.816 40.7875 110.645 40.9772C110.433 41.2086 110.232 41.4514 110.046 41.7046C109.847 41.9711 109.668 42.2375 109.506 42.504C109.356 42.7375 109.223 42.9813 109.107 43.2334C109.023 43.3959 108.971 43.573 108.955 43.755C108.968 43.8736 109.017 43.9328 109.101 43.9328H109.095Z" fill="white"/>
<path d="M123.939 41.8465C123.958 41.8214 123.982 41.8011 124.01 41.7872C124.038 41.7733 124.069 41.7663 124.101 41.7666C124.136 41.7679 124.17 41.7786 124.2 41.7976C124.23 41.8166 124.254 41.8431 124.271 41.8745C124.292 41.9112 124.3 41.9536 124.296 41.9956C124.291 42.0376 124.273 42.0771 124.245 42.1083C124.233 42.1323 124.167 42.2302 124.045 42.4041C123.923 42.5779 123.775 42.7858 123.595 43.0256C123.415 43.2654 123.213 43.5192 122.996 43.789C122.778 44.0587 122.546 44.3105 122.312 44.5444C122.1 44.7608 121.864 44.9537 121.611 45.1199C121.429 45.2516 121.215 45.3298 120.991 45.3457C120.89 45.3371 120.792 45.3064 120.703 45.2558C120.579 45.1927 120.461 45.117 120.352 45.03C120.238 44.9405 120.139 44.8348 120.056 44.7162C119.977 44.6124 119.933 44.4866 119.93 44.3565C119.962 44.0136 120.044 43.677 120.172 43.3573C120.333 42.8897 120.516 42.4041 120.721 41.9005C120.949 41.3129 121.216 40.6834 121.521 40.012C121.257 40.1999 121.018 40.4201 120.809 40.6675C120.563 40.9486 120.317 41.2603 120.072 41.6027C119.827 41.9451 119.59 42.2962 119.363 42.6559C119.135 43.0156 118.931 43.354 118.751 43.6711C118.571 43.9881 118.423 44.2672 118.305 44.5084C118.223 44.682 118.156 44.8625 118.106 45.048C118.091 45.1007 118.085 45.1553 118.088 45.2098C118.088 45.2938 118.034 45.3357 117.926 45.3357C117.813 45.3282 117.703 45.2975 117.602 45.2458C117.468 45.1844 117.342 45.1087 117.224 45.02C117.106 44.9324 117.003 44.8264 116.918 44.7062C116.84 44.6024 116.796 44.4766 116.793 44.3465C116.825 44.0036 116.906 43.667 117.034 43.3473C117.196 42.8797 117.379 42.3941 117.584 41.8905C117.812 41.303 118.078 40.6735 118.383 40.002C117.995 40.2936 117.65 40.6387 117.358 41.0272C116.998 41.4828 116.657 41.9624 116.333 42.466C116.009 42.9696 115.727 43.4492 115.488 43.9049C115.306 44.2367 115.144 44.579 115.002 44.93C114.98 44.9813 114.968 45.0362 114.966 45.0919V45.2178C114.966 45.3018 114.912 45.3437 114.804 45.3437C114.691 45.3361 114.581 45.3055 114.48 45.2538C114.344 45.1912 114.214 45.1156 114.093 45.028C113.971 44.9422 113.865 44.836 113.779 44.7142C113.7 44.6104 113.656 44.4846 113.653 44.3545C113.667 44.1393 113.712 43.9273 113.787 43.725C113.878 43.4492 113.989 43.1435 114.121 42.8077C114.253 42.472 114.399 42.1243 114.56 41.7646C114.723 41.4049 114.87 41.0658 115.002 40.7474C115.134 40.4296 115.244 40.1479 115.334 39.9201C115.402 39.769 115.448 39.6088 115.47 39.4444C115.47 39.3605 115.506 39.3185 115.578 39.3185C115.686 39.3328 115.788 39.3763 115.873 39.4444C116.005 39.5322 116.128 39.6312 116.243 39.7402C116.359 39.8498 116.464 39.9703 116.557 40.0999C116.635 40.1946 116.683 40.3111 116.693 40.4336C116.677 40.5106 116.653 40.5856 116.621 40.6575C116.573 40.7834 116.507 40.9492 116.421 41.1531C116.637 40.9013 116.853 40.6641 117.068 40.4416C117.284 40.2192 117.491 40.0246 117.688 39.8581C117.86 39.7068 118.047 39.5729 118.245 39.4584C118.379 39.3752 118.53 39.3258 118.687 39.3145C118.799 39.3237 118.907 39.3608 119.001 39.4225C119.136 39.5011 119.263 39.5943 119.379 39.7002C119.501 39.8102 119.609 39.9343 119.702 40.0699C119.782 40.1737 119.83 40.2989 119.838 40.4296C119.83 40.523 119.805 40.6143 119.766 40.6994C119.718 40.8193 119.652 40.9692 119.566 41.1491C119.782 40.8973 119.998 40.6601 120.214 40.4376C120.43 40.2152 120.636 40.0206 120.833 39.8541C121.006 39.7028 121.192 39.5689 121.391 39.4544C121.524 39.3712 121.676 39.3218 121.833 39.3105C121.945 39.3197 122.052 39.3568 122.146 39.4185C122.282 39.4971 122.408 39.5903 122.524 39.6962C122.646 39.8062 122.755 39.9303 122.848 40.0659C122.928 40.1697 122.975 40.2949 122.984 40.4257C122.963 40.5254 122.929 40.6221 122.884 40.7134L122.642 41.289C122.546 41.5168 122.442 41.7586 122.318 42.0164C122.194 42.2742 122.09 42.52 121.994 42.7538C121.898 42.9876 121.817 43.1974 121.751 43.3833C121.7 43.5072 121.667 43.6377 121.653 43.771C121.653 43.8669 121.689 43.9149 121.761 43.9149C121.973 43.8824 122.169 43.7813 122.318 43.6271C122.559 43.4222 122.787 43.2026 123.002 42.9696C123.229 42.7231 123.433 42.4893 123.613 42.2682L123.939 41.8465Z" fill="white"/>
<path d="M129.317 41.8465C129.334 41.8196 129.358 41.7974 129.386 41.7817C129.415 41.766 129.446 41.7574 129.478 41.7566C129.514 41.758 129.548 41.7687 129.578 41.7876C129.608 41.8066 129.632 41.8331 129.648 41.8645C129.669 41.9012 129.678 41.9437 129.673 41.9857C129.669 42.0277 129.651 42.0671 129.622 42.0984C129.259 42.6939 128.8 43.2254 128.263 43.6711C127.848 44.0375 127.331 44.2671 126.781 44.3286C126.53 44.6054 126.246 44.8497 125.935 45.056C125.687 45.2295 125.393 45.3267 125.09 45.3358C124.896 45.3288 124.707 45.2731 124.54 45.1739C124.115 44.9368 123.767 44.5805 123.541 44.1487C123.423 43.9274 123.361 43.6803 123.361 43.4293C123.369 43.16 123.427 42.8944 123.531 42.6459C123.647 42.3495 123.789 42.064 123.955 41.7926C124.11 41.5322 124.291 41.2878 124.494 41.0632C124.636 40.892 124.814 40.7553 125.016 40.6635C125.192 40.3144 125.429 40.0002 125.717 39.7362C125.967 39.4758 126.31 39.3244 126.671 39.3146C126.87 39.3206 127.063 39.383 127.228 39.4944C127.425 39.619 127.601 39.7734 127.75 39.9521C127.909 40.1449 128.039 40.3604 128.135 40.5916C128.236 40.8244 128.289 41.0753 128.289 41.329C128.272 41.6451 128.199 41.9557 128.074 42.2462C127.92 42.6379 127.727 43.0129 127.498 43.3653C127.842 43.2617 128.154 43.0727 128.405 42.8158C128.697 42.526 129.003 42.2063 129.317 41.8465ZM124.9 44.3106C125.044 44.3106 125.248 44.1774 125.512 43.9109C125.478 43.8249 125.459 43.7336 125.458 43.6411C125.448 43.5425 125.465 43.4431 125.506 43.3529C125.547 43.2628 125.611 43.185 125.691 43.1275C125.852 43.024 126.04 42.9711 126.231 42.9756C126.502 42.5519 126.731 42.1028 126.914 41.6347C127.095 41.1983 127.193 40.732 127.202 40.2598C127.204 40.1926 127.185 40.1264 127.148 40.07C127.128 40.0423 127.1 40.0203 127.069 40.0063C127.037 39.9923 127.003 39.9867 126.968 39.99C126.853 39.9918 126.741 40.0257 126.645 40.088C126.53 40.1591 126.427 40.2474 126.339 40.3497C126.241 40.4581 126.153 40.5751 126.077 40.6995C126.006 40.8119 125.943 40.9294 125.889 41.0512C126.014 41.1859 126.108 41.3452 126.167 41.5188C126.209 41.6627 126.167 41.7346 126.015 41.7346C125.85 41.7491 125.694 41.8196 125.574 41.9345C125.396 42.0846 125.242 42.2604 125.116 42.4561C124.965 42.6837 124.841 42.9278 124.746 43.1835C124.648 43.4385 124.596 43.7094 124.594 43.9828C124.59 44.0653 124.612 44.147 124.656 44.2167C124.686 44.251 124.724 44.2775 124.767 44.2938C124.809 44.3102 124.855 44.3159 124.9 44.3106Z" fill="white"/>
<path d="M133.345 41.8465C133.363 41.8196 133.387 41.7973 133.415 41.7817C133.443 41.766 133.475 41.7574 133.507 41.7566C133.543 41.7579 133.577 41.7686 133.607 41.7876C133.637 41.8065 133.661 41.8331 133.677 41.8645C133.698 41.9012 133.707 41.9436 133.702 41.9856C133.697 42.0276 133.68 42.0671 133.651 42.0983C133.255 42.7868 132.715 43.3818 132.068 43.8429C132.003 44.0782 131.887 44.296 131.727 44.4804C131.558 44.6781 131.364 44.8534 131.151 45.002C130.949 45.1498 130.729 45.2713 130.496 45.3637C130.289 45.4436 130.07 45.4862 129.848 45.4896C129.71 45.4836 129.574 45.4496 129.448 45.3897C129.298 45.324 129.159 45.2364 129.035 45.1299C128.904 45.0262 128.79 44.9028 128.697 44.7642C128.617 44.6461 128.573 44.5071 128.571 44.3645C128.567 44.3212 128.573 44.2776 128.589 44.237C128.604 44.1965 128.629 44.1601 128.661 44.1307C128.711 44.0866 128.774 44.0612 128.841 44.0587C128.881 44.0567 128.921 44.0657 128.957 44.0847C128.987 44.1026 129.014 44.1241 129.039 44.1487C129.064 44.1741 129.091 44.1981 129.119 44.2206C129.159 44.2474 129.207 44.2601 129.255 44.2566C129.303 44.2566 129.426 44.2446 129.632 44.2206C129.849 44.1919 130.057 44.1184 130.244 44.0048C130.197 43.9578 130.159 43.9017 130.135 43.8398C130.11 43.778 130.098 43.7117 130.1 43.6451C130.099 43.5764 130.113 43.5084 130.139 43.4448C130.165 43.3813 130.203 43.3236 130.252 43.2751C130.3 43.2265 130.358 43.1881 130.421 43.1621C130.485 43.1361 130.553 43.123 130.622 43.1235C130.631 43.1228 130.641 43.124 130.65 43.1271C130.66 43.1302 130.668 43.1351 130.675 43.1415C130.663 42.9416 130.63 42.6619 130.576 42.3141C130.522 41.9664 130.464 41.5587 130.406 41.0911C130.238 41.2727 130.081 41.465 129.938 41.6666L129.614 42.0983C129.597 42.1252 129.573 42.1475 129.544 42.1631C129.516 42.1788 129.485 42.1874 129.452 42.1882C129.417 42.1872 129.382 42.1767 129.352 42.1577C129.322 42.1387 129.297 42.112 129.281 42.0803C129.26 42.0434 129.251 42.0009 129.256 41.9589C129.262 41.9168 129.28 41.8775 129.309 41.8465L129.596 41.4688C129.73 41.265 129.849 41.0611 129.956 40.8573C130.055 40.6691 130.14 40.4733 130.208 40.2718C130.276 40.0846 130.312 39.8874 130.316 39.6882V39.4005C130.313 39.2701 130.338 39.1406 130.387 39.02C130.437 38.8993 130.51 38.7901 130.604 38.699C130.738 38.5354 130.932 38.4319 131.143 38.4113C131.253 38.4114 131.361 38.4389 131.457 38.4912C131.553 38.5411 131.641 38.6051 131.719 38.681C131.784 38.7432 131.833 38.8199 131.863 38.9049C131.873 38.9399 131.873 38.9771 131.863 39.0123C131.854 39.0475 131.835 39.0795 131.809 39.1047C131.713 39.2126 131.609 39.3285 131.485 39.4544C131.351 39.6188 131.287 39.8288 131.305 40.04C131.304 40.3094 131.337 40.5779 131.403 40.8393C131.469 41.1031 131.545 41.3629 131.629 41.6207C131.713 41.8785 131.797 42.1303 131.88 42.3761C131.961 42.6136 132.021 42.8576 132.06 43.1055C132.293 42.9468 132.507 42.7624 132.698 42.5559C132.914 42.3348 133.13 42.0983 133.345 41.8465Z" fill="white"/>
<path d="M138.02 45.3357C137.875 45.3245 137.732 45.2908 137.598 45.2358C137.397 45.1624 137.206 45.063 137.03 44.9401C136.836 44.8043 136.669 44.6335 136.537 44.4365C136.4 44.2284 136.331 43.9837 136.337 43.735C136.359 43.2831 136.469 42.8398 136.661 42.4301C136.879 41.9197 137.147 41.4318 137.46 40.9732C137.744 40.5418 138.08 40.1465 138.459 39.7962C138.819 39.4724 139.143 39.3106 139.43 39.3106C139.652 39.3095 139.873 39.3522 140.078 39.4365C140.269 39.5127 140.448 39.6156 140.61 39.7422C140.749 39.8508 140.871 39.981 140.969 40.1279C141.046 40.2303 141.092 40.3522 141.103 40.4796C141.097 40.6603 141.054 40.8378 140.977 41.0012C140.895 41.1898 140.796 41.3704 140.681 41.5408C140.581 41.6918 140.467 41.8329 140.34 41.9624C140.27 42.0514 140.171 42.1124 140.06 42.1343C139.967 42.1348 139.876 42.1061 139.8 42.0524C139.729 42.0052 139.665 41.948 139.61 41.8825C139.589 41.8594 139.573 41.8323 139.562 41.8028C139.551 41.7733 139.547 41.742 139.548 41.7106C139.548 41.6567 139.592 41.6307 139.664 41.6307C139.736 41.6307 139.836 41.5588 139.962 41.4149C140.089 41.2687 140.195 41.1052 140.276 40.9293C140.352 40.7763 140.404 40.6125 140.43 40.4437C140.448 40.2998 140.384 40.2278 140.24 40.2278C140.096 40.2278 139.878 40.3437 139.62 40.5776C139.333 40.8459 139.08 41.1478 138.865 41.4768C138.608 41.8636 138.394 42.277 138.225 42.7098C138.051 43.1384 137.959 43.5961 137.956 44.0588C137.956 44.2986 138.07 44.4185 138.297 44.4185C138.61 44.4116 138.916 44.3279 139.189 44.1747C139.514 43.9996 139.822 43.7921 140.106 43.5552C140.418 43.2966 140.713 43.0168 140.987 42.7178C141.27 42.4114 141.524 42.121 141.751 41.8465C141.771 41.8184 141.798 41.7956 141.83 41.78C141.861 41.7644 141.896 41.7564 141.93 41.7566C141.965 41.7561 141.999 41.7662 142.028 41.7855C142.057 41.8047 142.079 41.8323 142.092 41.8645C142.109 41.9028 142.115 41.9453 142.109 41.9867C142.102 42.0282 142.084 42.067 142.056 42.0983C141.829 42.4101 141.568 42.7545 141.275 43.1315C140.984 43.5061 140.666 43.8582 140.322 44.1847C139.99 44.5004 139.622 44.7748 139.225 45.002C138.86 45.2179 138.444 45.333 138.02 45.3357Z" fill="white"/>
<path d="M147.12 41.8466C147.139 41.8215 147.164 41.8012 147.192 41.7873C147.22 41.7734 147.251 41.7663 147.282 41.7666C147.318 41.7676 147.353 41.7782 147.383 41.7971C147.413 41.8161 147.438 41.8428 147.454 41.8745C147.475 41.9115 147.483 41.954 147.478 41.996C147.473 42.038 147.455 42.0774 147.426 42.1084C147.064 42.7039 146.605 43.2353 146.069 43.6811C145.653 44.0475 145.135 44.2771 144.584 44.3386C144.334 44.6158 144.05 44.8602 143.739 45.066C143.49 45.2395 143.197 45.3367 142.894 45.3458C142.7 45.3385 142.512 45.2828 142.346 45.1839C141.921 44.9459 141.574 44.5898 141.347 44.1587C141.229 43.9374 141.167 43.6903 141.167 43.4393C141.176 43.1699 141.234 42.9044 141.339 42.6559C141.454 42.3596 141.595 42.074 141.761 41.8026C141.916 41.5426 142.097 41.2983 142.3 41.0732C142.442 40.9029 142.62 40.7663 142.822 40.6735C142.999 40.3253 143.236 40.0113 143.523 39.7462C143.773 39.4862 144.116 39.3348 144.476 39.3246C144.676 39.3306 144.869 39.393 145.034 39.5044C145.231 39.6284 145.407 39.7829 145.556 39.9621C145.716 40.1548 145.846 40.3704 145.943 40.6016C146.043 40.8345 146.095 41.0854 146.095 41.339C146.078 41.6551 146.005 41.9657 145.879 42.2562C145.725 42.6445 145.533 43.0161 145.304 43.3654C145.648 43.2618 145.961 43.0728 146.213 42.8158C146.507 42.5294 146.81 42.2063 147.12 41.8466ZM142.696 44.3106C142.84 44.3106 143.044 44.1774 143.307 43.9109C143.273 43.8249 143.255 43.7336 143.253 43.6411C143.244 43.5426 143.261 43.4433 143.302 43.3532C143.343 43.2631 143.407 43.1853 143.487 43.1275C143.648 43.0245 143.836 42.9717 144.027 42.9757C144.298 42.5524 144.527 42.1032 144.71 41.6347C144.892 41.1987 144.99 40.7322 144.998 40.2598C144.999 40.1926 144.981 40.1264 144.944 40.07C144.924 40.0423 144.896 40.0203 144.865 40.0063C144.833 39.9923 144.799 39.9867 144.764 39.9901C144.649 39.9918 144.537 40.0257 144.44 40.088C144.326 40.1597 144.223 40.2479 144.135 40.3498C144.038 40.4586 143.951 40.5756 143.875 40.6995C143.8 40.8121 143.734 40.9296 143.675 41.0512C143.8 41.1859 143.895 41.3452 143.955 41.5188C143.997 41.6627 143.955 41.7347 143.801 41.7347C143.636 41.7493 143.481 41.8198 143.361 41.9345C143.183 42.0845 143.028 42.2603 142.902 42.4561C142.752 42.6838 142.629 42.9279 142.534 43.1835C142.435 43.4384 142.383 43.7093 142.38 43.9829C142.377 44.0655 142.399 44.1472 142.444 44.2167C142.475 44.2525 142.514 44.2799 142.558 44.2964C142.602 44.3128 142.649 44.3177 142.696 44.3106Z" fill="white"/>
<path d="M153.379 41.8465C153.4 41.8184 153.427 41.7956 153.458 41.78C153.49 41.7643 153.524 41.7563 153.559 41.7565C153.594 41.7561 153.628 41.7661 153.657 41.7854C153.686 41.8047 153.708 41.8322 153.721 41.8645C153.738 41.9028 153.744 41.9452 153.738 41.9867C153.731 42.0281 153.713 42.0669 153.685 42.0983C153.673 42.1222 153.607 42.2202 153.485 42.394C153.363 42.5679 153.219 42.7717 153.046 43.0055C152.872 43.2394 152.674 43.4912 152.446 43.7609C152.218 44.0307 151.996 44.2825 151.763 44.5163C151.551 44.7311 151.319 44.924 151.069 45.0919C150.891 45.2245 150.679 45.3029 150.458 45.3177C150.354 45.3085 150.253 45.2779 150.162 45.2278C150.034 45.1662 149.913 45.0904 149.802 45.0019C149.688 44.9125 149.588 44.8068 149.504 44.6882C149.426 44.5844 149.382 44.4586 149.378 44.3285C149.411 43.9855 149.494 43.649 149.622 43.3293C149.784 42.8617 149.966 42.376 150.17 41.8724C150.398 41.2849 150.664 40.6554 150.969 39.984C150.581 40.2756 150.236 40.6207 149.944 41.0091C149.584 41.4648 149.243 41.9444 148.919 42.448C148.595 42.9516 148.313 43.4312 148.074 43.8868C147.892 44.2187 147.729 44.561 147.588 44.912C147.576 44.972 147.568 45.0259 147.562 45.0739C147.559 45.1158 147.559 45.1579 147.562 45.1998C147.562 45.2837 147.508 45.3257 147.4 45.3257C147.287 45.3181 147.177 45.2875 147.076 45.2358C146.941 45.1731 146.812 45.0975 146.691 45.0099C146.568 44.9241 146.461 44.818 146.375 44.6962C146.296 44.5924 146.252 44.4666 146.249 44.3365C146.264 44.1212 146.31 43.9092 146.385 43.707C146.474 43.4312 146.588 43.1254 146.727 42.7897C146.865 42.454 147.012 42.1063 147.166 41.7465L147.608 40.7294C147.741 40.411 147.855 40.1352 147.95 39.902C148.018 39.751 148.063 39.5907 148.084 39.4264C148.084 39.3425 148.12 39.3005 148.191 39.3005C148.3 39.3144 148.403 39.358 148.489 39.4264C148.62 39.5142 148.743 39.6132 148.857 39.7222C148.972 39.8303 149.074 39.951 149.163 40.0819C149.236 40.1786 149.28 40.2945 149.289 40.4156C149.231 40.6638 149.146 40.905 149.037 41.135C149.241 40.8832 149.45 40.6461 149.666 40.4236C149.882 40.2011 150.089 40.0066 150.288 39.8401C150.46 39.6888 150.647 39.5549 150.845 39.4404C150.978 39.3572 151.129 39.3078 151.285 39.2965C151.4 39.3062 151.511 39.3432 151.609 39.4044C151.746 39.4801 151.873 39.5735 151.986 39.6822C152.104 39.7939 152.21 39.9178 152.302 40.0519C152.382 40.1557 152.428 40.281 152.436 40.4116C152.416 40.5114 152.383 40.6082 152.338 40.6994L152.078 41.2709C151.982 41.4987 151.878 41.7406 151.765 41.9983C151.651 42.2561 151.545 42.5019 151.449 42.7358C151.353 42.9696 151.273 43.1794 151.207 43.3653C151.156 43.4892 151.122 43.6197 151.107 43.7529C151.107 43.8489 151.137 43.8968 151.197 43.8968C151.409 43.8644 151.605 43.7633 151.755 43.6091C151.993 43.4074 152.219 43.1912 152.43 42.9616C152.651 42.7218 152.851 42.4906 153.03 42.2681L153.379 41.8465Z" fill="white"/>
<path d="M163.199 41.8466C163.22 41.8185 163.247 41.7957 163.279 41.7801C163.31 41.7644 163.344 41.7564 163.379 41.7566C163.414 41.7562 163.448 41.7662 163.477 41.7855C163.506 41.8048 163.528 41.8323 163.541 41.8646C163.558 41.9029 163.564 41.9453 163.558 41.9868C163.551 42.0283 163.533 42.067 163.505 42.0984C163.277 42.4101 163.029 42.7545 162.76 43.1316C162.499 43.4987 162.216 43.8504 161.914 44.1847C161.648 44.4824 161.356 44.7559 161.041 45.0021C160.81 45.2022 160.519 45.3196 160.214 45.3358C160.122 45.3253 160.033 45.2946 159.954 45.2459C159.832 45.1804 159.718 45.102 159.612 45.012C159.499 44.9176 159.399 44.8087 159.315 44.6883C159.238 44.5902 159.194 44.4708 159.189 44.3466C159.199 44.1299 159.248 43.9168 159.333 43.7171C159.428 43.4653 159.524 43.2075 159.62 42.9437C159.404 43.2435 159.174 43.5372 158.929 43.825C158.7 44.0951 158.454 44.3501 158.191 44.5884C157.968 44.7935 157.724 44.9743 157.462 45.128C157.267 45.2493 157.044 45.3182 156.815 45.3278C156.69 45.326 156.569 45.2816 156.473 45.2019C156.361 45.1128 156.263 45.0062 156.185 44.8861C156.102 44.7568 156.035 44.6179 155.985 44.4725C155.934 44.3377 155.906 44.195 155.903 44.0508C155.922 43.8002 155.99 43.5558 156.103 43.3314C156.257 42.992 156.434 42.6641 156.635 42.3502C156.856 41.9958 157.102 41.6394 157.372 41.281C157.628 40.9376 157.904 40.6099 158.199 40.2998C158.448 40.0345 158.722 39.7936 159.017 39.5804C159.212 39.4214 159.45 39.3246 159.7 39.3026C159.959 39.305 160.213 39.3738 160.438 39.5025C160.675 39.6328 160.893 39.7963 161.085 39.9881C161.269 40.1691 161.432 40.3702 161.571 40.5876C161.684 40.7559 161.769 40.9415 161.823 41.1371C161.822 41.1469 161.823 41.1567 161.826 41.1659C161.829 41.1752 161.834 41.1837 161.841 41.1911V41.2451C161.815 41.4038 161.767 41.558 161.697 41.7027C161.601 41.9365 161.497 42.1883 161.383 42.4581C161.269 42.7279 161.163 42.9897 161.067 43.2415C160.991 43.4127 160.943 43.5948 160.923 43.781C160.923 43.865 160.959 43.9069 161.031 43.9069C161.196 43.8991 161.353 43.8389 161.481 43.7351C161.661 43.5996 161.829 43.4492 161.984 43.2854C162.164 43.1002 162.356 42.8818 162.56 42.63C162.764 42.3782 162.977 42.117 163.199 41.8466ZM157.786 43.9329C157.834 43.9329 157.94 43.861 158.102 43.7171C158.263 43.5732 158.449 43.3893 158.659 43.1675C158.869 42.9457 159.087 42.7059 159.315 42.4481C159.542 42.1903 159.756 41.9425 159.954 41.7027C160.152 41.4629 160.314 41.2491 160.44 41.0632C160.528 40.9559 160.593 40.8303 160.628 40.6955C160.626 40.5953 160.602 40.4967 160.556 40.4077C160.529 40.359 160.49 40.3182 160.443 40.2897C160.395 40.2612 160.341 40.2461 160.286 40.2459C160.135 40.2689 159.995 40.3388 159.886 40.4457C159.692 40.61 159.509 40.7877 159.339 40.9773C159.126 41.2086 158.925 41.4515 158.739 41.7047C158.541 41.9711 158.361 42.2376 158.199 42.5041C158.049 42.7376 157.916 42.9813 157.8 43.2335C157.716 43.3959 157.663 43.573 157.646 43.7551C157.655 43.8736 157.702 43.9329 157.786 43.9329Z" fill="white"/>
<path d="M172.624 41.8466C172.642 41.8196 172.666 41.7974 172.694 41.7817C172.722 41.7661 172.754 41.7575 172.786 41.7567C172.821 41.7577 172.856 41.7682 172.886 41.7872C172.917 41.8061 172.941 41.8329 172.958 41.8646C172.978 41.9015 172.987 41.944 172.982 41.986C172.977 42.0281 172.958 42.0674 172.93 42.0984C172.918 42.1224 172.852 42.2203 172.73 42.3941C172.608 42.568 172.46 42.7758 172.28 43.0156C172.1 43.2555 171.9 43.5093 171.681 43.779C171.461 44.0488 171.231 44.3006 170.997 44.5344C170.785 44.7509 170.549 44.9438 170.296 45.11C170.114 45.242 169.898 45.3203 169.674 45.3358C169.573 45.3272 169.475 45.2965 169.386 45.2459C169.262 45.1827 169.145 45.1071 169.037 45.02C168.923 44.9306 168.822 44.8249 168.739 44.7063C168.661 44.6025 168.616 44.4767 168.613 44.3466C168.646 44.0036 168.728 43.6671 168.857 43.3474C169.018 42.8798 169.201 42.3941 169.404 41.8905C169.632 41.303 169.899 40.6735 170.204 40.0021C169.941 40.19 169.703 40.4102 169.494 40.6575C169.248 40.9386 169.002 41.2504 168.757 41.5928C168.512 41.9352 168.275 42.2862 168.046 42.6459C167.818 43.0057 167.614 43.344 167.434 43.6611C167.254 43.9782 167.108 44.2633 166.994 44.5164C166.912 44.6901 166.845 44.8707 166.795 45.056C166.78 45.1088 166.774 45.1633 166.777 45.2179C166.777 45.3018 166.723 45.3438 166.615 45.3438C166.502 45.3362 166.392 45.3056 166.291 45.2539C166.157 45.1925 166.031 45.1168 165.913 45.028C165.795 44.9404 165.692 44.8345 165.607 44.7143C165.529 44.6105 165.485 44.4847 165.482 44.3546C165.515 44.0115 165.597 43.675 165.725 43.3554C165.887 42.8877 166.069 42.4021 166.273 41.8985C166.501 41.311 166.767 40.6815 167.072 40.0101C166.684 40.3016 166.339 40.6468 166.047 41.0352C165.687 41.4909 165.346 41.9705 165.022 42.4741C164.698 42.9777 164.416 43.4573 164.177 43.9129C163.995 44.2448 163.833 44.5871 163.691 44.9381C163.669 44.9893 163.657 45.0442 163.655 45.1V45.2259C163.655 45.3098 163.601 45.3518 163.493 45.3518C163.38 45.3442 163.27 45.3136 163.169 45.2619C163.034 45.1992 162.905 45.1236 162.784 45.036C162.661 44.9502 162.555 44.8441 162.468 44.7223C162.39 44.6185 162.345 44.4927 162.342 44.3626C162.357 44.1473 162.403 43.9353 162.478 43.7331C162.569 43.4573 162.679 43.1515 162.81 42.8158C162.94 42.4801 163.088 42.1324 163.251 41.7726C163.414 41.4129 163.56 41.0739 163.691 40.7555C163.823 40.4377 163.935 40.1559 164.025 39.9281C164.093 39.7771 164.138 39.6168 164.159 39.4525C164.159 39.3686 164.195 39.3266 164.267 39.3266C164.375 39.3405 164.478 39.3841 164.564 39.4525C164.695 39.5403 164.818 39.6393 164.932 39.7483C165.048 39.8578 165.154 39.9783 165.248 40.108C165.326 40.2029 165.372 40.3194 165.382 40.4417C165.366 40.5186 165.342 40.5937 165.31 40.6655C165.262 40.7914 165.196 40.9573 165.11 41.1611C165.326 40.9093 165.542 40.6722 165.757 40.4497C165.973 40.2272 166.18 40.0327 166.379 39.8662C166.551 39.7149 166.738 39.581 166.936 39.4665C167.069 39.3833 167.22 39.3339 167.376 39.3226C167.489 39.3317 167.597 39.3688 167.692 39.4305C167.827 39.5092 167.954 39.6023 168.07 39.7083C168.192 39.8183 168.3 39.9424 168.393 40.078C168.473 40.1818 168.52 40.3071 168.527 40.4377C168.519 40.5311 168.494 40.6224 168.455 40.7075C168.407 40.8274 168.341 40.9773 168.255 41.1571C168.471 40.9053 168.687 40.6682 168.903 40.4457C169.119 40.2232 169.326 40.0287 169.524 39.8622C169.697 39.7109 169.883 39.577 170.082 39.4625C170.214 39.3793 170.365 39.3299 170.522 39.3186C170.634 39.3277 170.743 39.3648 170.837 39.4265C170.973 39.5052 171.1 39.5983 171.215 39.7043C171.337 39.8143 171.446 39.9384 171.539 40.074C171.618 40.1778 171.665 40.3031 171.673 40.4337C171.653 40.5335 171.62 40.6303 171.575 40.7215L171.331 41.297C171.235 41.5248 171.131 41.7666 171.007 42.0244C170.883 42.2822 170.779 42.528 170.683 42.7618C170.588 42.9957 170.508 43.2055 170.442 43.3913C170.39 43.5153 170.357 43.6458 170.342 43.779C170.342 43.875 170.378 43.9229 170.45 43.9229C170.662 43.8905 170.858 43.7894 171.007 43.6352C171.239 43.4255 171.458 43.2019 171.663 42.9657C171.89 42.7192 172.094 42.4854 172.274 42.2642L172.624 41.8466Z" fill="white"/>
<path d="M178.002 41.8465C178.019 41.8196 178.043 41.7973 178.072 41.7817C178.1 41.766 178.131 41.7574 178.163 41.7566C178.199 41.7576 178.234 41.7681 178.264 41.7871C178.294 41.8061 178.319 41.8328 178.335 41.8645C178.356 41.9014 178.364 41.9439 178.359 41.986C178.354 42.028 178.336 42.0673 178.307 42.0983C177.944 42.6934 177.486 43.2247 176.95 43.671C176.535 44.0372 176.016 44.2667 175.466 44.3285C175.216 44.6058 174.932 44.8502 174.62 45.0559C174.372 45.2294 174.078 45.3266 173.775 45.3357C173.582 45.3284 173.394 45.2728 173.227 45.1738C173.022 45.0607 172.834 44.9179 172.67 44.7502C172.493 44.5738 172.344 44.3716 172.228 44.1507C172.11 43.9293 172.048 43.6822 172.048 43.4312C172.057 43.1618 172.116 42.8963 172.22 42.6479C172.335 42.3515 172.476 42.0659 172.642 41.7945C172.798 41.5346 172.978 41.2903 173.181 41.0651C173.323 40.8948 173.502 40.7583 173.703 40.6654C173.88 40.3172 174.118 40.0033 174.404 39.7382C174.655 39.4782 174.997 39.3267 175.358 39.3165C175.557 39.3225 175.75 39.3849 175.915 39.4964C176.112 39.6204 176.288 39.7748 176.437 39.954C176.597 40.1468 176.728 40.3623 176.825 40.5935C176.925 40.8264 176.976 41.0773 176.976 41.3309C176.959 41.647 176.886 41.9576 176.761 42.2482C176.607 42.6385 176.414 43.0121 176.185 43.3633C176.53 43.2598 176.842 43.0707 177.094 42.8137C177.389 42.5286 177.691 42.2062 178.002 41.8465ZM173.577 44.3105C173.721 44.3105 173.925 44.1773 174.189 43.9109C174.155 43.8249 174.136 43.7335 174.135 43.6411C174.126 43.5425 174.142 43.4432 174.183 43.3532C174.224 43.2631 174.288 43.1853 174.369 43.1275C174.529 43.0245 174.717 42.9716 174.908 42.9756C175.18 42.5523 175.409 42.1031 175.592 41.6347C175.773 41.1986 175.871 40.7321 175.879 40.2598C175.881 40.1925 175.862 40.1264 175.825 40.0699C175.805 40.0422 175.777 40.0203 175.746 40.0063C175.714 39.9923 175.68 39.9867 175.645 39.99C175.531 39.9918 175.418 40.0257 175.322 40.0879C175.207 40.1596 175.104 40.2478 175.016 40.3497C174.919 40.4586 174.833 40.5756 174.756 40.6994C174.682 40.812 174.615 40.9295 174.556 41.0511C174.68 41.1864 174.776 41.3455 174.836 41.5188C174.876 41.6626 174.836 41.7346 174.682 41.7346C174.517 41.7492 174.362 41.8197 174.243 41.9344C174.064 42.0845 173.909 42.2603 173.783 42.456C173.632 42.6833 173.509 42.9274 173.415 43.1834C173.315 43.4381 173.263 43.7091 173.261 43.9828C173.257 44.0656 173.279 44.1476 173.325 44.2166C173.356 44.2524 173.395 44.2799 173.439 44.2963C173.483 44.3128 173.531 44.3176 173.577 44.3105Z" fill="white"/>
<path d="M182.822 41.8466C182.843 41.8185 182.87 41.7957 182.901 41.78C182.932 41.7644 182.967 41.7564 183.002 41.7566C183.036 41.7562 183.07 41.7662 183.099 41.7855C183.128 41.8047 183.151 41.8323 183.163 41.8645C183.181 41.9028 183.186 41.9453 183.18 41.9868C183.174 42.0282 183.155 42.067 183.128 42.0984C183.116 42.1223 183.05 42.2203 182.928 42.3941C182.806 42.568 182.658 42.7758 182.478 43.0156C182.298 43.2554 182.096 43.5092 181.878 43.779C181.661 44.0488 181.429 44.3006 181.195 44.5344C180.985 44.7491 180.753 44.942 180.504 45.1099C180.326 45.2426 180.113 45.321 179.892 45.3358C179.788 45.3267 179.686 45.296 179.594 45.2458C179.466 45.1843 179.346 45.1085 179.235 45.02C179.121 44.9305 179.021 44.8248 178.939 44.7063C178.86 44.6024 178.816 44.4767 178.813 44.3466C178.845 44.0036 178.927 43.6671 179.055 43.3474C179.219 42.8797 179.4 42.3941 179.604 41.8905C179.832 41.303 180.099 40.6735 180.404 40.002L180.476 39.8581L180.276 39.8941C180.123 39.9408 179.966 39.9768 179.808 40.002L179.628 40.2618L179.257 40.7674C179.113 40.9673 178.957 41.1891 178.789 41.4229C178.621 41.6567 178.453 41.8825 178.285 42.0984C178.268 42.1253 178.244 42.1475 178.215 42.1632C178.187 42.1789 178.156 42.1875 178.124 42.1883C178.085 42.1855 178.048 42.1718 178.018 42.1487C177.987 42.1256 177.964 42.0941 177.95 42.058C177.937 42.022 177.934 41.9828 177.943 41.9453C177.951 41.9078 177.97 41.8735 177.998 41.8466L178.573 41.0912C178.681 40.9353 178.801 40.7634 178.933 40.5776C179.065 40.3917 179.179 40.2159 179.275 40.048H179.023C178.926 40.0404 178.833 40.0104 178.75 39.9605C178.667 39.9105 178.597 39.842 178.545 39.7602C178.412 39.6105 178.334 39.4205 178.321 39.2207C178.337 39.0222 178.386 38.8277 178.465 38.6451C178.567 38.3807 178.683 38.1224 178.815 37.8717C178.939 37.6298 179.087 37.4008 179.257 37.1883C179.412 36.9964 179.546 36.9005 179.656 36.9005C179.812 36.906 179.965 36.9427 180.106 37.0084C180.265 37.0753 180.416 37.1597 180.556 37.2602C180.674 37.3392 180.769 37.4472 180.833 37.574C180.861 37.6211 180.872 37.6764 180.864 37.7307C180.856 37.785 180.83 37.8348 180.789 37.8717C180.523 38.1382 180.274 38.4106 180.042 38.6891C179.81 38.9675 179.604 39.2107 179.422 39.4185C179.626 39.3945 179.812 39.3765 179.98 39.3645C180.12 39.3407 180.26 39.3253 180.402 39.3186C180.54 39.3186 180.639 39.3186 180.699 39.3186C180.814 39.3283 180.925 39.3653 181.023 39.4265C181.161 39.5022 181.288 39.5956 181.401 39.7043C181.518 39.816 181.623 39.9399 181.715 40.074C181.795 40.1777 181.842 40.3029 181.851 40.4337C181.83 40.5335 181.796 40.6302 181.751 40.7215L181.509 41.297C181.413 41.5248 181.309 41.7666 181.193 42.0244C181.077 42.2822 180.975 42.528 180.879 42.7618C180.783 42.9956 180.701 43.2055 180.635 43.3913C180.584 43.5152 180.551 43.6458 180.538 43.779C180.538 43.8749 180.568 43.9229 180.627 43.9229C180.84 43.8904 181.036 43.7894 181.185 43.6351C181.426 43.4302 181.654 43.2106 181.869 42.9777C182.096 42.7312 182.3 42.4974 182.48 42.2762L182.822 41.8466Z" fill="white"/>
</svg>
