<svg width="24" height="24" viewBox="0 0 24 24" fill="none" xmlns="http://www.w3.org/2000/svg">
<path d="M6.16211 17H4.64844L2.21191 13.7969C2.12077 13.6764 2.06543 13.5951 2.0459 13.5527H2.02637V17H0.864258V9.99805H2.02637V13.2891H2.0459C2.08496 13.2174 2.1403 13.1377 2.21191 13.0498L4.56055 9.99805H5.95215L3.20312 13.3574L6.16211 17ZM10.9082 17H6.97754V9.99805H10.752V10.9844H8.13965V12.9668H10.5469V13.9482H8.13965V16.0186H10.9082V17ZM16.6943 10.9844H14.6826V17H13.5205V10.9844H11.5137V9.99805H16.6943V10.9844ZM20.1855 17.1172C19.1764 17.1172 18.3675 16.79 17.7588 16.1357C17.1533 15.4814 16.8506 14.6302 16.8506 13.582C16.8506 12.4557 17.1598 11.5573 17.7783 10.8867C18.3968 10.2161 19.2367 9.88086 20.2979 9.88086C21.2809 9.88086 22.0719 10.2064 22.6709 10.8574C23.2731 11.5085 23.5742 12.3597 23.5742 13.4111C23.5742 14.5537 23.2666 15.457 22.6514 16.1211C22.0361 16.7852 21.2142 17.1172 20.1855 17.1172ZM20.2393 10.9014C19.598 10.9014 19.0755 11.1406 18.6719 11.6191C18.2715 12.0977 18.0713 12.7275 18.0713 13.5088C18.0713 14.2868 18.2666 14.9134 18.6572 15.3887C19.0479 15.8639 19.5589 16.1016 20.1904 16.1016C20.861 16.1016 21.39 15.8753 21.7773 15.4229C22.1647 14.9704 22.3584 14.3372 22.3584 13.5234C22.3584 12.6868 22.1696 12.0407 21.792 11.585C21.4176 11.1292 20.9001 10.9014 20.2393 10.9014Z" fill="#FF914D"/>
</svg>
