<svg width="24" height="24" viewBox="0 0 24 24" fill="none" xmlns="http://www.w3.org/2000/svg">
<path d="M21.4277 9.53466C21.2981 6.77501 18.8108 5.36904 17.8906 4.96633C17.6051 3.83745 16.5871 3 15.3785 3C13.9492 3 12.7864 4.17091 12.7864 5.61016C12.7864 5.76366 12.8003 5.91391 12.8257 6.06026L3.01771 8.88763C3.01663 8.88795 3.01593 8.88846 3.01491 8.88878C2.74635 8.96741 2.55005 9.21542 2.55005 9.50959V18.2527C2.55005 18.6102 2.83957 18.9 3.19668 18.9H20.781C21.138 18.9 21.4276 18.6102 21.4276 18.2527C21.4276 18.2527 21.5299 11.7117 21.4277 9.53466ZM3.84338 10.1568H20.1343V12.4274H3.84338V10.1568ZM15.3785 4.29456C16.0946 4.29456 16.6772 4.8847 16.6772 5.61016C16.6772 6.33563 16.0947 6.92583 15.3785 6.92583C14.6624 6.92583 14.0798 6.33563 14.0798 5.61016C14.0798 4.8847 14.6623 4.29456 15.3785 4.29456ZM13.3653 7.25183C13.8409 7.8421 14.5666 8.22033 15.3785 8.22033C16.5371 8.22033 17.5205 7.45086 17.8514 6.39277C18.0768 6.5184 18.3337 6.6805 18.5916 6.88266C19.3113 7.44665 19.7849 8.11032 20.006 8.86244H7.77842L13.3653 7.25183ZM3.84338 17.6054V13.7219H20.1343V17.6054H3.84338Z" fill="#FF914D"/>
</svg>
