<svg width="24" height="24" viewBox="0 0 24 24" fill="none" xmlns="http://www.w3.org/2000/svg">
<path fill-rule="evenodd" clip-rule="evenodd" d="M18.0005 18.708C16.3521 20.1869 14.2146 21.0034 12 21C7.0295 21 3 16.9705 3 12C3 9.631 3.915 7.476 5.4115 5.8685L6.8965 7.3535C6.9908 7.44458 7.1171 7.49498 7.2482 7.49384C7.3793 7.4927 7.50471 7.44011 7.59741 7.34741C7.69011 7.25471 7.7427 7.1293 7.74384 6.9982C7.74498 6.8671 7.69458 6.7408 7.6035 6.6465L6.1325 5.1755C7.76353 3.7691 9.84635 2.99685 12 3C16.9705 3 21 7.0295 21 12C21 14.305 20.133 16.4085 18.708 18.0005L15.811 15.104C15.9362 14.7387 16 14.3552 16 13.969V13C16 12.8915 15.9647 12.7859 15.8994 12.6992C15.834 12.6125 15.7423 12.5495 15.638 12.5195C15.8761 12.0375 16 11.5071 16 10.9695V10C16 9.91619 15.9789 9.83372 15.9388 9.76017C15.8986 9.68662 15.8405 9.62436 15.77 9.5791C15.6994 9.53385 15.6186 9.50705 15.535 9.50118C15.4514 9.49531 15.3677 9.51055 15.2915 9.5455L15.2615 9.559C15.419 9.15445 15.4999 8.72413 15.5 8.29V7.5C15.5 7.41901 15.4802 7.33924 15.4426 7.26756C15.4049 7.19587 15.3503 7.13441 15.2836 7.08847C15.2169 7.04253 15.1401 7.01348 15.0597 7.00381C14.9792 6.99415 14.8977 7.00417 14.822 7.033L13.754 7.4395C13.712 7.45536 13.6703 7.47203 13.629 7.4895C13.6102 6.59048 13.2801 5.72584 12.695 5.043L12.38 4.6745C12.3331 4.61961 12.2748 4.57554 12.2092 4.54533C12.1436 4.51511 12.0722 4.49946 12 4.49946C11.9278 4.49946 11.8564 4.51511 11.7908 4.54533C11.7252 4.57554 11.6669 4.61961 11.62 4.6745L11.305 5.0425C10.7195 5.72553 10.3892 6.59058 10.3705 7.49C10.3293 7.47254 10.2878 7.45587 10.246 7.44L9.178 7.0325C9.10228 7.00365 9.02068 6.99364 8.94022 7.00333C8.85977 7.01302 8.78288 7.04211 8.71617 7.08811C8.64946 7.13411 8.59493 7.19564 8.55727 7.26739C8.51961 7.33914 8.49996 7.41897 8.5 7.5V8.29C8.5 8.733 8.5835 9.162 8.738 9.559L8.7085 9.5455C8.63232 9.51055 8.54858 9.49531 8.46497 9.50118C8.38136 9.50705 8.30057 9.53385 8.23003 9.5791C8.15948 9.62436 8.10144 9.68662 8.06125 9.76017C8.02105 9.83372 7.99999 9.91619 8 10V10.9695C8.00002 11.5071 8.12389 12.0375 8.362 12.5195C8.25769 12.5495 8.16595 12.6125 8.10065 12.6992C8.03535 12.7859 8.00002 12.8915 8 13V13.9695C8.00014 14.6391 8.19236 15.2946 8.55386 15.8583C8.91536 16.422 9.43097 16.8701 10.0395 17.1495L11.5 17.821V19H12.5V17.8205L13.9605 17.15C14.5037 16.9006 14.974 16.5162 15.3265 16.0335L18.0005 18.708ZM22 12C22 17.523 17.523 22 12 22C6.477 22 2 17.523 2 12C2 6.477 6.477 2 12 2C17.523 2 22 6.477 22 12ZM12 5.771C12.2692 6.10826 12.4593 6.50161 12.5563 6.92207C12.6533 7.34254 12.6547 7.7794 12.5605 8.2005C12.3435 8.4115 12.1555 8.649 12 8.9075C11.8445 8.64864 11.6561 8.411 11.4395 8.2005C11.3453 7.7794 11.3467 7.34254 11.4437 6.92207C11.5407 6.50161 11.7308 6.10826 12 5.771ZM11.5 10.7745V10.7105C11.5001 10.2038 11.3461 9.70897 11.0586 9.29171C10.7711 8.87444 10.3635 8.5544 9.89 8.374L9.5 8.2255V8.2895C9.49994 8.79624 9.65388 9.29103 9.9414 9.70829C10.2289 10.1256 10.6365 10.4456 11.11 10.626L11.5 10.7745ZM12.5 10.7745L12.89 10.626C13.3635 10.4456 13.7711 10.1256 14.0586 9.70829C14.3461 9.29103 14.5001 8.79624 14.5 8.2895V8.2255L14.11 8.374C13.6365 8.5544 13.2289 8.87444 12.9414 9.29171C12.6539 9.70897 12.4999 10.2038 12.5 10.7105V10.7745ZM12.5 13.0535C12.5 12.3675 12.9 11.744 13.523 11.458L15 10.78V10.9695C14.9999 11.4478 14.8627 11.916 14.6045 12.3186C14.3464 12.7212 13.9781 13.0414 13.5435 13.241L12.5 13.72V13.0535ZM10.0435 11.2585C10.4783 11.4582 10.8466 11.7785 11.1048 12.1813C11.363 12.5841 11.5001 13.0526 11.5 13.531V13.721L10.4565 13.2415C10.0219 13.0419 9.65364 12.7217 9.39548 12.3191C9.13731 11.9165 9.00006 11.4483 9 10.97V10.78L10.0435 11.2585ZM11.5 16.72V16.531C11.5 16.0526 11.3628 15.5843 11.1047 15.1816C10.8465 14.7789 10.4782 14.4587 10.0435 14.259L9 13.78V13.9695C9.00006 14.4478 9.13731 14.916 9.39548 15.3186C9.65364 15.7213 10.0219 16.0414 10.4565 16.241L11.5 16.72ZM12.5 16.72L13.5435 16.241C13.978 16.0414 14.3462 15.7214 14.6044 15.3188C14.8625 14.9163 14.9998 14.4482 15 13.97V13.78L13.523 14.4585C13.2177 14.5986 12.9591 14.8233 12.7777 15.1061C12.5964 15.3888 12.5 15.7176 12.5 16.0535V16.72Z" fill="#FF914D"/>
</svg>
