<svg width="24" height="24" viewBox="0 0 24 24" fill="none" xmlns="http://www.w3.org/2000/svg">
<path d="M0.869995 18.6899H23.1" stroke="#FF914D" stroke-width="1.5" stroke-linecap="round" stroke-linejoin="round"/>
<path d="M2.09998 18.69V8.67747C2.09998 6.83072 3.75767 5.33997 5.80476 5.33997H18.1652C20.2123 5.33997 21.87 6.83072 21.87 8.67747V18.69" stroke="#FF914D" stroke-width="1.5" stroke-linecap="round" stroke-linejoin="round"/>
<path d="M2.58002 9.78003L2.99137 9.79108C3.81408 9.80213 4.47002 10.4653 4.47002 11.2832V11.6479C4.47002 12.4658 5.13708 13.14 5.97091 13.14C6.79361 13.14 7.47179 12.4769 7.47179 11.6479V11.3053C7.47179 10.4874 8.13885 9.81319 8.97267 9.81319C9.79535 9.81319 10.4735 10.4763 10.4735 11.3053V11.6479C10.4735 12.4658 11.1406 13.14 11.9744 13.14C12.7971 13.14 13.4753 12.4769 13.4753 11.6479V11.3053C13.4753 10.4874 14.1424 9.81319 14.9762 9.81319C15.7989 9.81319 16.4771 10.4763 16.4771 11.3053V11.6479C16.4771 12.4658 17.1441 13.14 17.9779 13.14C18.8007 13.14 19.4788 12.4769 19.4788 11.6479V11.3053C19.4788 10.4874 20.1459 9.81319 20.9797 9.81319H21.48" stroke="#FF914D" stroke-width="1.5" stroke-linecap="round" stroke-linejoin="round"/>
</svg>
