<svg width="24" height="24" viewBox="0 0 24 24" fill="none" xmlns="http://www.w3.org/2000/svg">
<path d="M15 11.063C12.53 13.65 10.059 20 10.059 20C10.059 20 6.529 11.063 3 9" stroke="#FF914D" stroke-width="1.5" stroke-linecap="round" stroke-linejoin="round"/>
<path d="M20.496 5.57704L20.922 10.001C21.198 12.871 19.047 15.426 16.177 15.703C13.361 15.973 10.81 13.915 10.539 11.099C10.4742 10.4294 10.542 9.75349 10.7385 9.11003C10.9351 8.46658 11.2565 7.86817 11.6845 7.34901C12.1124 6.82986 12.6385 6.40014 13.2326 6.08443C13.8268 5.76871 14.4773 5.57319 15.147 5.50904L19.863 5.05504C19.9389 5.04773 20.0154 5.05544 20.0883 5.07772C20.1611 5.1 20.2289 5.13642 20.2877 5.18489C20.3465 5.23337 20.3951 5.29295 20.4309 5.36024C20.4666 5.42753 20.4888 5.5012 20.496 5.57704Z" stroke="#FF914D" stroke-width="1.5" stroke-linecap="round" stroke-linejoin="round"/>
</svg>
